<?xml version="1.0" encoding="utf-8"?>
<!-- Generator: Adobe Illustrator 16.0.4, SVG Export Plug-In . SVG Version: 6.00 Build 0)  -->
<!DOCTYPE svg PUBLIC "-//W3C//DTD SVG 1.1//EN" "http://www.w3.org/Graphics/SVG/1.1/DTD/svg11.dtd">
<svg version="1.1" id="Layer_1" xmlns="http://www.w3.org/2000/svg" xmlns:xlink="http://www.w3.org/1999/xlink" x="0px" y="0px"
	 width="60px" height="60px" viewBox="0 0 60 60" enable-background="new 0 0 60 60" xml:space="preserve">
<g>
	<path fill="currentColor" d="M27.56,32.857l-4.448,2.812l0.498,5.013l3.062,2.138h6.657l3.062-2.138l0.498-5.013l-4.448-2.812H27.56z
		 M35.749,40.307l-2.634,1.839h-6.231l-2.633-1.839l-0.426-4.289l3.931-2.484h4.489l3.931,2.484L35.749,40.307z"/>
	<polygon fill="currentColor" points="24.961,36.758 25.171,38.863 25.842,38.797 25.674,37.105 26.98,36.279 26.619,35.71 	"/>
	<polygon fill="currentColor" points="34.157,38.797 34.828,38.863 35.038,36.758 33.38,35.71 33.02,36.279 34.326,37.105 	"/>
	<path fill="currentColor" d="M38.72,19.158l-3.824,3.346v1.84l-2.183-1.014l-5.284-0.031l-2.325,1.045v-1.84l-3.824-3.346h-5.746v8.373
		l2.753,1.765l-2.064,3.766l1.188,9.607l5.709,4.191H36.88l5.709-4.191l1.187-9.607l-2.064-3.766l2.754-1.765v-8.373H38.72z
		 M43.78,27.168l-2.959,1.906l2.259,4.12l-1.125,9.103l-5.296,3.889H23.34l-5.296-3.889l-1.125-9.103l2.259-4.12l-2.959-1.906
		v-7.336h4.808l3.402,2.979v2.591l3.074-1.428h4.994l3.074,1.428v-2.591l3.403-2.979h4.807V27.168z"/>
	<path fill="currentColor" d="M36.514,25.861l3.606,2.433l2.516-1.63v-5.846h-3.184l-2.938,2.473V25.861z M37.188,23.604l2.51-2.11h2.263
		v4.804l-1.834,1.188l-2.938-1.981V23.604z"/>
	<path fill="currentColor" d="M23.459,23.291l-2.938-2.473h-3.185v5.846l2.516,1.63l3.606-2.433V23.291z M22.784,25.503l-2.939,1.981
		l-1.833-1.188v-4.804h2.263l2.509,2.11V25.503z"/>
	<circle fill="currentColor" cx="25.314" cy="30.076" r="0.609"/>
	<circle fill="currentColor" cx="34.685" cy="30.076" r="0.609"/>
</g>
</svg>
