<?xml version="1.0" encoding="utf-8"?>
<!-- Generator: Adobe Illustrator 16.0.4, SVG Export Plug-In . SVG Version: 6.00 Build 0)  -->
<!DOCTYPE svg PUBLIC "-//W3C//DTD SVG 1.1//EN" "http://www.w3.org/Graphics/SVG/1.1/DTD/svg11.dtd">
<svg version="1.1" id="Layer_1" xmlns="http://www.w3.org/2000/svg" xmlns:xlink="http://www.w3.org/1999/xlink" x="0px" y="0px"
	 width="60px" height="60px" viewBox="0 0 60 60" enable-background="new 0 0 60 60" xml:space="preserve">
<g>
	<path fill="currentColor" d="M13.589,31.338v5.531l3.938,5.921l8.342,4.104h8.263l8.455-4.104l3.823-5.923v-5.529H13.589z
		 M45.735,32.014v4.549H14.264v-4.549H45.735z M42.123,42.266l-8.146,3.955h-7.951l-8.039-3.955l-3.344-5.029h30.725L42.123,42.266z
		"/>
	<polygon fill="currentColor" points="23.798,28.23 20.794,25.266 23.798,22.302 23.324,21.821 19.833,25.266 23.324,28.711 	"/>
	<polygon fill="currentColor" points="39.451,28.711 39.925,28.23 36.921,25.266 39.925,22.302 39.451,21.821 35.961,25.266 	"/>
	<polygon fill="currentColor" points="27.355,28.711 27.829,28.231 24.826,25.266 28.072,22.062 24.583,18.617 24.109,19.097 
		27.112,22.062 23.866,25.266 	"/>
	<polygon fill="currentColor" points="31.929,25.266 35.419,28.711 35.893,28.23 32.889,25.266 36.136,22.062 32.646,18.616 
		32.172,19.098 35.176,22.062 	"/>
	<polygon fill="currentColor" points="27.896,25.266 31.387,28.711 31.861,28.23 28.857,25.266 32.104,22.062 28.857,18.857 
		31.861,15.894 31.387,15.413 27.896,18.857 31.144,22.062 	"/>
	<path fill="currentColor" d="M17.584,48.861l-2.39,3.315h29.587l-2.248-3.315H17.584z M16.513,51.502l1.417-1.965h24.247l1.333,1.965
		H16.513z"/>
</g>
</svg>
