<?xml version="1.0" encoding="utf-8"?>
<!-- Generator: Adobe Illustrator 16.0.4, SVG Export Plug-In . SVG Version: 6.00 Build 0)  -->
<!DOCTYPE svg PUBLIC "-//W3C//DTD SVG 1.1//EN" "http://www.w3.org/Graphics/SVG/1.1/DTD/svg11.dtd">
<svg version="1.1" id="Layer_1" xmlns="http://www.w3.org/2000/svg" xmlns:xlink="http://www.w3.org/1999/xlink" x="0px" y="0px"
	 width="60px" height="60px" viewBox="0 0 60 60" enable-background="new 0 0 60 60" xml:space="preserve">
<path fill="currentColor" d="M44.206,31.336v-1.213l-3.563-3.562h-4.759l-3.366-3.366h-2.182v-1.297v-7.04v-1.356l-9.47,4.198
	l8.796,3.899v1.596H27.48l-3.366,3.366h-4.759l-3.562,3.562v1.213H13.59v5.533l3.935,5.92l8.343,4.105h8.261l8.457-4.105
	l3.824-5.922v-5.531H44.206z M22.531,17.699l7.131-3.16v0.318v6.003L22.531,17.699z M43.532,30.402v0.934H32.716v-0.934l3.167-3.168
	h4.48L43.532,30.402z M27.76,23.869h4.479l3.028,3.028l-3.225,3.226v1.213h-4.084v-1.213l-3.226-3.226L27.76,23.869z M16.468,30.402
	l3.167-3.168h4.48l3.167,3.168v0.934H16.468V30.402z M45.735,32.011v4.55h-31.47v-4.55H45.735z M42.122,42.264l-8.148,3.957h-7.949
	l-8.039-3.957l-3.343-5.028h30.725L42.122,42.264z"/>
</svg>
