<?xml version="1.0" encoding="utf-8"?>
<!-- Generator: Adobe Illustrator 16.0.4, SVG Export Plug-In . SVG Version: 6.00 Build 0)  -->
<!DOCTYPE svg PUBLIC "-//W3C//DTD SVG 1.1//EN" "http://www.w3.org/Graphics/SVG/1.1/DTD/svg11.dtd">
<svg version="1.1" id="Layer_1" xmlns="http://www.w3.org/2000/svg" xmlns:xlink="http://www.w3.org/1999/xlink" x="0px" y="0px"
	 width="60px" height="60px" viewBox="0 0 60 60" enable-background="new 0 0 60 60" xml:space="preserve">
<g>
	<polygon fill="currentColor" points="35.92,30.545 36.589,30.459 36.316,28.357 35.138,26.437 34.568,26.798 35.656,28.518 	"/>
	
		<rect x="36.346" y="26.937" transform="matrix(0.9746 0.2241 -0.2241 0.9746 7.0601 -7.6549)" fill="currentColor" width="1.813" height="0.675"/>
	<polygon fill="currentColor" points="28.855,28.508 30.31,26.695 30.945,24.4 30.293,24.229 29.739,26.328 28.33,28.086 	"/>
	
		<rect x="27.251" y="25.892" transform="matrix(0.8568 -0.5157 0.5157 0.8568 -9.4881 18.2981)" fill="currentColor" width="1.89" height="0.675"/>
	
		<rect x="31.415" y="25.962" transform="matrix(-0.8688 0.4952 -0.4952 -0.8688 72.7566 34.9157)" fill="currentColor" width="0.674" height="2.271"/>
	<polygon fill="currentColor" points="22.25,27.799 21.337,29.857 21.953,30.131 22.896,28.008 22.925,25.629 22.25,25.629 	"/>
	
		<rect x="19.656" y="27.804" transform="matrix(0.7051 -0.7091 0.7091 0.7051 -13.8583 22.9604)" fill="currentColor" width="2.035" height="0.674"/>
	
		<rect x="23.384" y="27.516" transform="matrix(-0.6857 -0.7279 0.7279 -0.6857 20.6606 64.6258)" fill="currentColor" width="1.797" height="0.674"/>
	<path fill="currentColor" d="M42.895,31.336l0.294-1.396l-2.339-3.592l-4.025-0.847l-3.392-1.086l-0.199,1.891l-0.549-0.942
		l-1.471-3.242l-2.881,2.068l-3.381,2.024l-0.098-0.099l-2.251-2.76l-2.255,2.734l-2.933,2.934v2.312H13.59v5.533l3.936,5.92
		l8.342,4.105h8.263l8.455-4.105l3.824-5.922v-5.531H42.895z M34.01,25.309l2.642,0.844l3.785,0.799l2.034,3.123l-0.266,1.262
		h-8.087l0.638-2.418l-0.954-1.638L34.01,25.309z M28.699,24.755l2.24-1.606l1.147,2.525l1.946,3.342l-0.612,2.32h-5.656v-2.312
		l-2.318-2.317L28.699,24.755z M18.088,29.302l2.757-2.759l1.754-2.125l1.754,2.148l2.735,2.735v2.034h-9V29.302z M45.736,32.012
		v4.549H14.265v-4.549H45.736z M42.122,42.266l-8.146,3.955h-7.951l-8.038-3.955l-3.344-5.03H45.37L42.122,42.266z"/>
</g>
</svg>
