<?xml version="1.0" encoding="utf-8"?>
<!-- Generator: Adobe Illustrator 16.0.4, SVG Export Plug-In . SVG Version: 6.00 Build 0)  -->
<!DOCTYPE svg PUBLIC "-//W3C//DTD SVG 1.1//EN" "http://www.w3.org/Graphics/SVG/1.1/DTD/svg11.dtd">
<svg version="1.1" id="Layer_1" xmlns="http://www.w3.org/2000/svg" xmlns:xlink="http://www.w3.org/1999/xlink" x="0px" y="0px"
	 width="60px" height="60px" viewBox="0 0 60 60" enable-background="new 0 0 60 60" xml:space="preserve">
<g>
	
		<rect x="25.31" y="38.405" transform="matrix(-0.5527 -0.8334 0.8334 -0.5527 8.5905 82.0955)" fill="currentColor" width="2.037" height="0.675"/>
	<path fill="currentColor" d="M47.457,23.13l-2.562-2.565h-4.729l-2.085,2.089l-0.543-0.544l2.527-2.528v-4.129l-0.576-0.237
		l-4.927,4.955h-9.124l-4.927-4.955l-0.577,0.237v4.129l2.527,2.528l-0.543,0.544l-2.086-2.089h-4.728l-2.561,2.565l2.561,2.567
		h4.251v6.764l1.995,4.064l-1.168,1.174v4.381l3.101,3.1H24.6v0.592l0.909,1.112h8.983l0.908-1.112V45.18h1.318l3.101-3.1v-4.381
		l-1.169-1.175l1.995-4.063v-6.764h4.251L47.457,23.13z M13.496,23.13l1.888-1.892h4.169l1.888,1.892l-1.888,1.893h-4.168
		L13.496,23.13z M34.725,45.531l-0.554,0.678h-8.343l-0.554-0.678V45.18h9.451V45.531z M39.144,41.801l-2.705,2.704H23.562
		l-2.706-2.704v-3.822l2.706-2.721h12.875l2.706,2.721V41.801z M39.969,32.305l-1.823,3.714l-1.427-1.435h-6.38V20.901h-0.675
		v13.683h-6.381l-1.429,1.436l-1.824-3.715V25.5l0-0.001l3.385-3.39l-2.807-2.807V16.27l4.548,4.574h9.686l4.548-4.574v3.033
		l-2.806,2.807l3.385,3.391V32.305z M40.447,25.022l-1.888-1.893l1.888-1.892h4.169l1.888,1.892l-1.889,1.893H40.447z"/>
	
		<rect x="33.336" y="37.724" transform="matrix(-0.8329 -0.5534 0.5534 -0.8329 40.2819 89.6454)" fill="currentColor" width="0.674" height="2.037"/>
	<circle fill="currentColor" cx="24.027" cy="29.883" r="0.609"/>
	<circle fill="currentColor" cx="35.972" cy="29.883" r="0.609"/>
</g>
</svg>
