<?xml version="1.0" encoding="utf-8"?>
<!-- Generator: Adobe Illustrator 16.0.4, SVG Export Plug-In . SVG Version: 6.00 Build 0)  -->
<!DOCTYPE svg PUBLIC "-//W3C//DTD SVG 1.1//EN" "http://www.w3.org/Graphics/SVG/1.1/DTD/svg11.dtd">
<svg version="1.1" id="Layer_1" xmlns="http://www.w3.org/2000/svg" xmlns:xlink="http://www.w3.org/1999/xlink" x="0px" y="0px"
	 width="60px" height="60px" viewBox="0 0 60 60" enable-background="new 0 0 60 60" xml:space="preserve">
<g>
	
		<rect x="26.866" y="34.675" transform="matrix(-0.2624 -0.965 0.965 -0.2624 1.2807 71.0033)" fill="currentColor" width="1.822" height="0.674"/>
	
		<rect x="31.304" y="34.675" transform="matrix(0.2623 -0.965 0.965 0.2623 -10.0203 56.9162)" fill="currentColor" width="1.823" height="0.674"/>
	<circle fill="currentColor" cx="24.535" cy="28.486" r="0.608"/>
	<circle fill="currentColor" cx="35.425" cy="28.486" r="0.608"/>
	<path fill="currentColor" d="M39.02,24.411l-1.989-1.603l1.43-1.43v-2.528l-1.788-1.788h-2.53l-1.112,1.112v-1.574l-1.788-1.787h-2.528
		l-1.788,1.787v1.574l-1.113-1.112h-2.529l-1.787,1.788v2.528l1.447,1.448l-1.965,1.584l-2.977,17.088l4.56,5.471h1.813v1.984
		l1.74,1.738h2.458l1.405-1.402l1.403,1.402h2.459l1.74-1.738V46.97h1.855l4.56-5.471L39.02,24.411z M22.172,19.129l1.392-1.392
		h1.97l1.491,1.49l0.576-0.238V16.88l1.393-1.393h1.97l1.393,1.393v2.109l0.576,0.238l1.491-1.49h1.97l1.393,1.392V21.1
		l-1.393,1.392h-2.199l-4.214,2.407l-4.216-2.407h-2.199L22.172,21.1V19.129z M28.296,50.018h-1.9l-1.345-1.344v-1.883l3.289-2.722
		l1.263,4.644L28.296,50.018z M29.981,47.534l-3.665-13.471l2.31-2.387l2.717,0.002l2.339,2.385L29.981,47.534z M34.908,48.674
		l-1.346,1.344h-1.9l-1.305-1.304l1.276-4.645l3.275,2.721V48.674z M37.121,46.295h-1.754l-3.538-2.94l2.606-9.486l-2.809-2.864
		l-3.285-0.003l-2.776,2.868l2.58,9.485l-3.553,2.94h-1.713l-4.157-4.988l2.879-16.529l1.999-1.61h1.984l4.396,2.508l4.393-2.508
		H36.4l1.999,1.61l2.879,16.529L37.121,46.295z"/>
</g>
</svg>
