<?xml version="1.0" encoding="utf-8"?>
<!-- Generator: Adobe Illustrator 15.0.0, SVG Export Plug-In . SVG Version: 6.00 Build 0)  -->
<!DOCTYPE svg PUBLIC "-//W3C//DTD SVG 1.1//EN" "http://www.w3.org/Graphics/SVG/1.1/DTD/svg11.dtd">
<svg version="1.1" id="Layer_1" xmlns="http://www.w3.org/2000/svg" xmlns:xlink="http://www.w3.org/1999/xlink" x="0px" y="0px"
	 width="30.1px" height="30px" viewBox="0 0 30.1 30" enable-background="new 0 0 30.1 30" xml:space="preserve">
<g>
	<path fill="#C32B54" d="M29.8,15.3l-7.2-7.1l7.5-7.5L29.4,0L22,7.5l-6.8-6.9l-7,6.8L0.7,0L0,0.7l7.5,7.4L0.4,15.3L7.2,22.1L0,29.3
		L0.7,30L7.9,22.8l7.2,7.101L22.2,22.8L29.4,30l0.7-0.7l-7.2-7.2L29.8,15.3z M21.5,7.9l-6.4,6.4L8.7,7.9H21.5z M7.7,21.7V8.3
		L14.4,15L7.7,21.7z M8.2,22.6L15.1,15.7L22,22.6H8.2z M22.4,21.6L15.8,15l6.6-6.6V21.6z"/>
</g>
</svg>
