<?xml version="1.0" encoding="utf-8"?>
<!-- Generator: Adobe Illustrator 16.0.4, SVG Export Plug-In . SVG Version: 6.00 Build 0)  -->
<!DOCTYPE svg PUBLIC "-//W3C//DTD SVG 1.1//EN" "http://www.w3.org/Graphics/SVG/1.1/DTD/svg11.dtd">
<svg version="1.1" id="Layer_1" xmlns="http://www.w3.org/2000/svg" xmlns:xlink="http://www.w3.org/1999/xlink" x="0px" y="0px"
	 width="60px" height="60px" viewBox="0 0 60 60" enable-background="new 0 0 60 60" xml:space="preserve">
<path fill="currentColor" d="M22.408,31.5l1.918,4.272l1.882,8.694l0.165,2.42h7.257l0.141-2.372l1.902-8.741l1.917-4.273H22.408z
	 M36.549,32.176l-0.578,1.287H24.025l-0.575-1.287H36.549z M32.996,46.213h-5.993l-0.128-1.841l-0.114-0.525l1.754,1.356h2.938
	l1.78-1.364l-0.127,0.583L32.996,46.213z M33.455,42.818l-2.231,1.71h-2.479l-2.206-1.705l-1.562-7.228l-0.651-1.459h11.342
	l-0.625,1.393L33.455,42.818z"/>
</svg>
