<?xml version="1.0" encoding="utf-8"?>
<!-- Generator: Adobe Illustrator 15.0.0, SVG Export Plug-In . SVG Version: 6.00 Build 0)  -->
<!DOCTYPE svg PUBLIC "-//W3C//DTD SVG 1.1//EN" "http://www.w3.org/Graphics/SVG/1.1/DTD/svg11.dtd">
<svg version="1.1" id="Layer_1" xmlns="http://www.w3.org/2000/svg" xmlns:xlink="http://www.w3.org/1999/xlink" x="0px" y="0px"
	 width="369.6px" height="223px" viewBox="0 0 369.6 223" style="enable-background:new 0 0 369.6 223;" xml:space="preserve">
<style type="text/css">
<![CDATA[
	.st0{clip-path:url(#SVGID_2_);fill:#C32A53;}
]]>
</style>
<g>
	<defs>
		<rect id="SVGID_1_" width="369.6" height="223"/>
	</defs>
	<clipPath id="SVGID_2_">
		<use xlink:href="#SVGID_1_"  style="overflow:visible;"/>
	</clipPath>
	<path class="st0" d="M136.3,28c-0.2-7.8-0.5-12.5-0.8-14c-0.2-0.9,0.3-1.3,1.4-1.3c1.4,0.2,2.9,0.5,4.2,0.8
		c1.5,0.6,1.7,1.4,0.8,2.2c-0.9,0.6-1.2,2.5-1.1,5.6v5.6c0.6-0.2,1.3-0.3,2.1-0.5c2.7-1.1,4.1-1.2,4.2-0.6c0,0.7,0.1,1.6,0.2,2.7
		c0.2,1.2-0.5,2-1.8,2.4c-1.5,0.7-3.1,1.4-4.8,2.1c-0.1,2.9-0.1,5.2,0,6.8c2.4-1.7,3.9-2.7,4.9-3c0.3-0.1,0.5,0.2,0.8,0.8
		c0,0.8-0.3,1.4-0.8,2c-3,3.3-5.8,6-8.6,8.2c-3,2.2-4.9,3.9-5.8,5.1c-0.8,1.1-2,0.9-3.4-0.5c-1.7-1.4-2.5-2.4-2.3-2.8
		c0-0.5,0.5-0.9,1.4-1.4c3-1.6,5.9-3.3,8.9-5.3c0-0.2,0.1-0.5,0.2-0.8c0-1.1,0-3.6,0.1-7.9c-3.1,0.9-5,1.8-5.6,2.7
		c-0.6,0.8-1.5-0.1-2.7-3c-1.4-2.7-1.6-3.9-0.7-3.8C127.6,30.2,130.5,29.5,136.3,28 M146.8,45.1c2.7-6.4,3.7-13.1,3.5-20.3
		c-0.6-0.5-0.5-1,0.2-1.4c3.6,0,6.9-0.7,10.2-2c0.5-0.1,1-0.4,1.6-0.6c-0.8-3-1.3-5.7-1.6-8.3c-0.8-6-1.7-9.6-2.4-10.6
		c-0.9-1.8,0-2.2,2.7-1.3c2.5,1.1,3.5,2,3,2.9c-1,1.7-0.4,7.1,2.2,15.9c0.5-0.2,1.2-0.3,2-0.5c1.1-0.2,1.7-0.6,2.2-1.3
		c0.3-0.6,1.2,0.2,2.7,2c1.4,2,1.1,3.3-0.7,3.8c-1.4,0.3-3,0.8-4.7,1.4c1.5,5.4,3.2,10.2,5.2,14.4c2-3.3,2.8-6.8,2.8-10.2
		c0-0.9,1-1.1,3-0.7c1.9,0.5,2.7,0.9,2.6,1.3c-0.5,0.5-1.1,2-1.7,4.5c-0.8,2.6-2,4.9-3.9,6.8c-0.5,0.6-1,1.1-1.3,1.5
		c0.9,1.9,1.8,3.7,3,5.2c4,6.2,7.1,9.2,9.4,8.9c0.6,0,1.2-1.8,1.9-5.6c0.6-3.8,0.3-7.7-0.8-11.7c-0.2-0.9,0-1,0.5-0.3
		c1.5,3.1,2.7,6.5,3.3,10.1c0.8,3.6,1,6.2,0.8,8c-0.3,1.8-0.4,3.4-0.1,4.7c0.8,1.6,0.3,2.2-1.1,1.6c-4.2-0.8-8.6-3.8-13.3-8.9
		c-2.1-2.2-3.9-4.6-5.5-7.4c-2.1,1.6-3.6,2.7-4.3,3c-1.1,0.6-2.7,1-4.8,1.1c-1.1,0.1-1.3-0.2-0.4-1.1c3-2.7,5.4-4.9,7.2-7
		c-1.4-2.7-2.8-5.8-3.9-9c-1-2.7-1.9-5.2-2.6-7.9c-0.8,0.3-1.4,0.5-1.9,0.6c-1.5,0.3-3.1,1-4.8,2c-1.6,0.5-2.7,1.4-3,2.7
		c-0.5,1.2-0.8,2.5-1,3.6c0.7-0.1,1.8-0.5,3.5-1.1c1.6-0.8,2.7-1.1,3.4-1.1c3.9,1.1,5.6,2.2,5.2,3.1c-0.6,1-1,1.7-1,2.2
		c-0.1,0.5-0.5,2-0.9,4.5c-0.4,2.4-1.1,5-2,7.7c-1.1,2.8-1.7,4.2-1.8,4.1c-3-1.1-5.8-3.1-8.5-6.3c0,0.9-0.4,1.7-1.1,2.5
		c-4.5,3.5-8.6,5.5-12.3,5.8c-1.7,0.3-2-0.1-0.6-1.1C141.5,52.4,144.6,49,146.8,45.1 M151.8,39.4c-0.5,1.5-0.9,3.2-1.3,4.8
		c-0.3,0.6-0.3,1.3-0.1,1.9c2.9,1.6,4.9,2.2,6.3,1.7c0.5-0.4,1.1-2,1.9-4.9c0.6-2.9,0.6-4.8,0.2-5.6c-0.6-0.3-2-0.2-3.9,0.8
		C153.4,38.7,152.4,39.1,151.8,39.4 M172.5,15c-1.6-2.1-2.3-4-2.1-5.7c0.3-3.3,1.4-4.3,3.3-3.3c0.4,0.1,1.1,0.8,2,1.7
		c0.7,1,1.6,1.7,2.7,2.2c0.8,0.6,1.7,1.2,2.5,1.7c0.3,0.2,0.3,0.9,0.1,1.8c-0.5,1-1.4,1.5-2.8,1.6c-1.7,0.1-2.9,0.3-3.6,0.5
		C173.4,15.8,172.7,15.6,172.5,15"/>
	<path class="st0" d="M205.9,19.4c3.3-4.4,6.3-9.9,9.2-16.3c0.3-0.7,0.6-1.4,1.1-2.4c0.3-0.8,1.6-0.5,4.1,0.8
		c2.3,1.3,2.7,2.3,1.5,2.8c-1.7,1.4-3.6,3.7-5.7,6.7c-2.3,3-3.7,5.2-4.4,6.4c-0.6,0.8-1,1.5-1.1,2.4c1.5,0.6,3,1.4,4.5,2.1
		c0.8,0.5,1,1.1,0.7,2c-0.4,1.2-0.7,3.3-0.5,6.2c0,2.9-0.1,5.2-0.3,7.1c-0.1,0.8-0.1,1.7,0.3,2.3c0.6,1.1-0.8,1.4-4.2,0.8
		c-0.7-0.2-1-0.7-0.7-1.3c0.2-2.4,0.3-5.6,0.2-9.5c-0.2-2.7-0.4-4.9-0.6-6.4c-0.6,0.9-1.5,1.7-2.7,2.5c-2.1,1.2-4.6,2.5-7.5,3.9
		c-1.9,0.8-2.4,0.4-1.2-1.3C200.4,25.7,202.8,22.8,205.9,19.4 M229.6,59.5c-10,0.7-17.9,1.7-23.4,3.3c-0.8,0.5-1.8-0.5-3-2.8
		c-1.4-2.3-0.6-3,2.4-2.2c5.5-0.9,11.7-1.7,19-2.7c0-0.5,0-1.3,0.2-2.2c0-1,0-2.1,0.1-3.3c-3.9,0.2-6.2,0.8-7.1,1.7
		c-0.6,0.8-1.2-0.1-1.8-2.8c-0.8-2.5-0.8-3.6-0.1-3.3c0.3,0.1,3.3-0.2,9.3-0.9v-4c-0.9-2.4,0.1-3,3-2.2c2.8,0.9,3.9,1.9,3.3,2.8
		c-0.2,0.2-0.3,1.1-0.5,2.7c1.5-0.1,3.2-0.3,5.2-0.6c2.9-0.5,4.2-0.5,4.2,0.2c-0.2,0.5-0.2,1.4-0.2,2.5c-0.1,1.1-0.9,1.7-2.1,2
		c-2.2,0.6-4.8,1.1-7.4,1.5c-0.3,2.8-0.4,4.6-0.1,5.4c4.5-0.5,8.7-0.7,12.9-0.7c4,0,6.4-0.2,7.3-0.5c0.5-0.2,0.8,0.3,1.2,1.2
		c0.3,0.9,0.8,1.6,1.4,2c0.6,0.5,0.8,1.6,0.7,3.3c-0.1,1.7-0.8,2.3-1.8,1.7C245.7,59.6,238.3,59.1,229.6,59.5 M220.6,32.4
		c2.3-1.7,5-3.6,8.4-5.5c0.3-0.1,0.5-0.1,0.6,0.1c0.2,0.2,0.1,0.4-0.1,0.6c-2.5,3.3-4.1,6.3-4.7,8.5c-0.2,1.7-0.7,2.3-1.6,1.8
		c-1-0.5-2-1.3-2.8-2.8c-1-1.4-1.3-2.1-0.8-2.3C219.9,32.8,220.1,32.6,220.6,32.4 M231.3,4.6c4.2-1.4,7.7-1.7,10.6-1.2
		c4.4,1.5,6.2,2.7,5.4,3.5c-0.9,0.5-2,1.8-3,4.1c-1.2,2.3-1.8,3.9-1.7,4.9c-0.3,0.8-0.8,1-1.4,0.6c-1.1-0.1-2-0.1-2.8-0.1
		c-0.1,0.2-0.2,0.3-0.1,0.3c-0.3,0.5-0.5,1.5-0.7,3.1c2.8-0.5,5.5-0.9,8.1-1.1c2.6-0.2,4-0.4,4.6-0.6c0.3-0.1,0.6,0.2,1.1,0.8
		c0.3,0.8,0.6,1.3,1.2,1.5c0.5,0.3,0.7,1.1,0.7,2.7c0,1.5-0.5,2-1.4,1.4c-4.1-0.9-9-1.1-14.6-0.5c-0.2,2.2-0.2,4.2-0.2,6.1
		c0,2.5,0.1,4.9,0.2,7c0.3,2.7-0.9,3.4-3.4,2.3c-3-1.1-3.9-2-2.7-2.7c0.9-0.5,1.4-1.8,1.7-4.1c0-1.9-0.1-4.6-0.2-8
		c-4.2,0.7-7.7,1.5-10.3,2.4c-0.6,0.3-1.4-0.3-2.4-2c-1-1.6-0.5-2.1,1.6-1.7c3.1-0.8,6.7-1.7,10.9-2.6c-0.2-1.5-0.2-2.7-0.2-3.6
		c-1.1,0.3-1.9,0.7-2.5,1c-0.4,0.2-0.7,0.2-0.8-0.2c-0.2-0.4-0.6-0.9-1.3-1.7c-2.5-2.4-4.2-5.2-4.7-8.2c-0.6-0.8-0.5-1.2,0.5-1.4
		C224.4,6.5,226.9,5.9,231.3,4.6 M237.4,12.2c1.7-1.6,1.9-3.2,0.9-4.7c-0.8-0.8-2.4-0.8-4.5-0.1c-2.5,0.8-4,1.4-4.3,2
		c-0.5,1.8,0,3.1,1.4,4c0.2,0.2,1.1,0.2,3-0.2C235.5,13,236.6,12.7,237.4,12.2 M241,27.2c-0.8-0.8-0.5-1.1,0.8-1.1
		c3.5,0.7,6.6,1.6,9.3,2.9c0.5,0.2,0.4,1.5-0.1,3.8c-0.5,2.4-1.1,3.7-1.8,3.9c-0.7,0.3-1.2,0.1-1.5-0.6c-0.4-0.6-1-1.4-1.6-2.6
		C243.9,30.9,242.2,28.8,241,27.2"/>
	<path class="st0" d="M114.2,99H69v32h-4v2.7h4v25.4l-3.7,6h18.8v-31.4h15v31.4h18.8l-3.7-6v-25.4h4V131h-4V99z M84.1,101.6h15V131
		h-15V101.6z"/>
	<polygon class="st0" points="27.5,99 31.2,105 31.2,162.5 18.8,162.5 18.8,144.8 0,144.8 3.7,150.7 3.7,165.1 46.3,165.1 46.3,105 
		50,99 	"/>
	<polygon class="st0" points="295.6,99 272.6,99 276.6,105.4 276.6,131.1 272.6,131.1 272.6,133.7 276.6,133.7 276.6,158.9 
		272.6,165.3 295.6,165.3 291.6,158.9 291.6,133.7 295.6,133.7 295.6,131.1 291.6,131.1 291.6,105.4 	"/>
	<polygon class="st0" points="166.4,117.5 185.2,117.5 181.5,111.5 181.5,99 136.3,99 136.3,133.4 166.4,133.4 166.4,162.5 
		151.4,162.5 151.4,147 132.6,147 136.3,152.6 136.3,165.1 181.5,165.1 181.5,130.7 151.4,130.7 151.4,101.6 166.4,101.6 	"/>
	<path class="st0" d="M259,99h-19.5l-10.5,18.8L218.4,99h-19.5l3.7,6v54.1l-3.7,6h18.8V103l9.8,17.5l-7.2,12.9h17.4l-7.2-12.9
		l9.8-17.5v62.1H259l-3.7-6V105L259,99z M233.2,130.7h-8.6l4.3-7.6L233.2,130.7z"/>
	<polygon class="st0" points="365.9,159.1 365.9,105 369.6,99 350.9,99 350.9,159.9 329.2,99 309.5,99 313.2,105 313.2,159.1 
		309.5,165.1 328.3,165.1 328.3,104.2 349.9,165.1 369.6,165.1 	"/>
	<path class="st0" d="M119.2,220h3.3v-6.4c0-3.9,2.7-6.2,8.3-5.4v2.8c-3.2-0.6-5.2,0.5-5.2,2.6v6.4h4.1v2.7h-10.5V220z"/>
	<path class="st0" d="M145.2,218.1c-0.3,3.2-2.5,4.9-6.1,4.9c-3.7,0-6.2-1.9-6.2-5.6v-3.8c0-3.7,2.4-5.6,6.2-5.6
		c3.7,0,6.1,1.9,6.1,5.6v2.9h-9.1v1.1c0,1.7,1.1,2.7,3,2.7s2.8-0.9,3-2.2H145.2z M136.1,214.1h6v-0.7c0-1.8-1.2-2.7-3-2.7
		c-1.8,0-3,0.9-3,2.7V214.1z"/>
	<path class="st0" d="M155,217.1l-2.8-0.6c-2.5-0.5-4.1-1.8-4.1-4.1c0-2.9,2.1-4.3,5.9-4.3c3.7,0,5.8,1.5,5.8,4.4v0.3h-3.1v-0.2
		c0-1.3-0.9-1.9-2.7-1.9c-1.8,0-2.7,0.6-2.7,1.7c0,0.8,0.5,1.3,1.8,1.6l2.9,0.6c2.5,0.5,4.1,1.8,4.1,4.1c0,3-2.3,4.5-6,4.5
		s-6-1.5-6-4.4v-0.3h3.1v0.2c0,1.3,1.1,2,2.9,2c1.8,0,2.9-0.6,2.9-1.8C156.8,217.9,156.2,217.3,155,217.1"/>
	<path class="st0" d="M168.6,217.7c0,2.4,0.8,2.8,4,2.5v2.6c-5.9,1-7.1-1.2-7.1-5.2V211h-3.6v-2.7h10.8v2.7h-4V217.7z"/>
	<path class="st0" d="M180,214.1c1.7,0,3.1,0.4,4,1.3v-2.3c0-1.6-1-2.5-2.7-2.5c-1.8,0-2.7,0.6-2.7,2.2h-3.1c0-3.1,2-4.7,5.8-4.7
		c3.5,0,5.8,1.8,5.8,5.2v4.7c0,2.1,0.6,2.5,2.2,2.2v2.6c-2.7,0.6-4.2-0.1-4.8-1.7c-0.9,1.3-2.5,1.9-4.5,1.9c-3.1,0-5.2-1.5-5.2-4.5
		C174.9,215.6,176.9,214.1,180,214.1 M180.9,220.3c1.8,0,3.1-0.6,3.1-1.8c0-1.2-1.2-1.9-3.1-1.9c-1.8,0-3,0.6-3,1.9
		C178,219.8,179.1,220.3,180.9,220.3"/>
	<path class="st0" d="M194.7,208.3v9.3c0,1.8,1.2,2.7,3,2.7c1.8,0,3-0.9,3-2.7v-9.3h3.1v9.1c0,3.7-2.4,5.6-6.1,5.6
		c-3.7,0-6.1-1.9-6.1-5.6v-9.1H194.7z"/>
	<path class="st0" d="M205.9,220h3.3v-6.4c0-3.9,2.7-6.2,8.3-5.4v2.8c-3.2-0.6-5.2,0.5-5.2,2.6v6.4h4.1v2.7h-10.5V220z"/>
	<path class="st0" d="M224.4,214.1c1.7,0,3.1,0.4,4,1.3v-2.3c0-1.6-1-2.5-2.7-2.5c-1.8,0-2.7,0.6-2.7,2.2h-3.1c0-3.1,2-4.7,5.8-4.7
		c3.5,0,5.8,1.8,5.8,5.2v4.7c0,2.1,0.6,2.5,2.2,2.2v2.6c-2.7,0.6-4.2-0.1-4.8-1.7c-0.9,1.3-2.5,1.9-4.5,1.9c-3.1,0-5.2-1.5-5.2-4.5
		C219.2,215.6,221.2,214.1,224.4,214.1 M225.3,220.3c1.8,0,3.1-0.6,3.1-1.8c0-1.2-1.2-1.9-3.1-1.9c-1.8,0-3,0.6-3,1.9
		C222.3,219.8,223.4,220.3,225.3,220.3"/>
	<path class="st0" d="M236.1,213.6c0-3.7,2.4-5.6,6.2-5.6c3.7,0,6.1,1.9,6.1,5.6v9.1h-3.1v-9.3c0-1.8-1.2-2.7-3-2.7
		c-1.8,0-3,0.9-3,2.7v9.3h-3.1V213.6z"/>
	<path class="st0" d="M257.3,217.7c0,2.4,0.8,2.8,4,2.5v2.6c-5.9,1-7.1-1.2-7.1-5.2V211h-3.6v-2.7h10.8v2.7h-4V217.7z"/>
</g>
</svg>
