<?xml version="1.0" encoding="utf-8"?>
<!-- Generator: Adobe Illustrator 15.0.0, SVG Export Plug-In . SVG Version: 6.00 Build 0)  -->
<!DOCTYPE svg PUBLIC "-//W3C//DTD SVG 1.1//EN" "http://www.w3.org/Graphics/SVG/1.1/DTD/svg11.dtd">
<svg version="1.1" id="Layer_1" xmlns="http://www.w3.org/2000/svg" xmlns:xlink="http://www.w3.org/1999/xlink" x="0px" y="0px"
	 width="739.2px" height="132.8px" viewBox="0 0 739.2 132.8" style="enable-background:new 0 0 739.2 132.8;" xml:space="preserve"
	>
<style type="text/css">
<![CDATA[
	.st0{fill:#C32A53;}
]]>
</style>
<path class="st0" d="M168.2,5.3h30.1v58.8h-30.1V5.3z M138.1,0.1v64h-8v5.4h8v50.8l-7.4,12h37.5V69.5h30.1v62.7h37.5l-7.4-11.9V69.5
	h8v-5.4h-8v-64H138.1z"/>
<polygon class="st0" points="55,0.1 62.4,12.1 62.4,127 37.5,127 37.5,91.6 0,91.6 7.4,103.5 7.4,132.2 92.5,132.2 92.5,12.1 
	100,0.1 "/>
<polygon class="st0" points="545.2,0 553.1,12.8 553.1,64.2 545.2,64.2 545.2,69.4 553.1,69.4 553.1,120 545.2,132.8 591.2,132.8 
	583.2,119.9 583.2,69.4 591.2,69.4 591.2,64.2 583.2,64.2 583.2,12.8 591.2,0 "/>
<polygon class="st0" points="272.7,0.1 272.7,68.8 332.9,68.8 332.9,127 302.8,127 302.8,96.1 265.2,96.1 272.7,107.3 272.7,132.2 
	363,132.2 363,63.6 302.8,63.6 302.8,5.3 332.9,5.3 332.9,37 370.4,37 363,25.1 363,0.1 "/>
<path class="st0" d="M457.9,48.3l8.5,15.3h-17.1L457.9,48.3z M478.9,0.1l-21,37.6L436.8,0.1h-39.1l7.4,12v108.2l-7.4,11.9h37.5V8
	l19.6,35l-14.5,25.8h34.9L460.8,43L480.4,8v124.2h37.5l-7.4-12V12.1l7.4-12H478.9z"/>
<polygon class="st0" points="701.7,0.1 701.7,121.9 658.4,0.1 619.1,0.1 626.5,12 626.5,120.3 619.1,132.2 656.6,132.2 656.6,10.5 
	699.9,132.2 739.2,132.2 731.8,120.3 731.8,12 739.2,0.1 "/>
</svg>
