<?xml version="1.0" encoding="utf-8"?>
<!-- Generator: Adobe Illustrator 16.0.4, SVG Export Plug-In . SVG Version: 6.00 Build 0)  -->
<!DOCTYPE svg PUBLIC "-//W3C//DTD SVG 1.1//EN" "http://www.w3.org/Graphics/SVG/1.1/DTD/svg11.dtd">
<svg version="1.1" id="Layer_1" xmlns="http://www.w3.org/2000/svg" xmlns:xlink="http://www.w3.org/1999/xlink" x="0px" y="0px"
	 width="60px" height="60px" viewBox="0 0 60 60" enable-background="new 0 0 60 60" xml:space="preserve">
<g>
	<path fill="currentColor" d="M23.177,33.579h3.555v-7.79H18.94v7.79h3.555v4.015h-5.016v0.684h4.985L17.717,46.5l-0.035,0.062
		l0.591,0.341l4.563-7.905l4.528,7.844l0.035,0.062l0.591-0.341l-4.783-8.284h5.078v-0.684h-5.108V33.579z M26.049,26.471v6.426
		h-6.426v-6.426H26.049z"/>
	<path fill="currentColor" d="M8.942,33.58h3.555v-7.792H4.708v7.792h3.553v4.014H3.245v0.682h4.986l-5.044,8.736h10.829l-5.045-8.736
		h5.079v-0.682H8.942V33.58z M4.368,46.33l4.233-7.334l4.234,7.334H4.368z M11.814,26.471v6.426H5.39v-6.426H11.814z"/>
	<path fill="currentColor" d="M56.762,37.594h-5.108v-4.015h3.555v-7.79h-7.791v7.79h3.555v4.015h-5.016v0.684h4.985L46.194,46.5
		l-0.035,0.061l0.59,0.342l4.563-7.905l4.528,7.844l0.035,0.062l0.591-0.341l-4.783-8.284h5.078V37.594z M54.525,26.471v6.426H48.1
		v-6.426H54.525z"/>
	<path fill="currentColor" d="M37.419,33.58h3.555v-7.792h-7.789v7.792h3.553v4.014h-5.016v0.682h4.986l-5.044,8.736h10.829l-5.045-8.736
		h5.08v-0.682h-5.109V33.58z M32.845,46.33l4.233-7.334l4.234,7.334H32.845z M40.291,26.471v6.426h-6.425v-6.426H40.291z"/>
</g>
</svg>
