<?xml version="1.0" encoding="utf-8"?>
<!-- Generator: Adobe Illustrator 16.0.4, SVG Export Plug-In . SVG Version: 6.00 Build 0)  -->
<!DOCTYPE svg PUBLIC "-//W3C//DTD SVG 1.1//EN" "http://www.w3.org/Graphics/SVG/1.1/DTD/svg11.dtd">
<svg version="1.1" id="Layer_1" xmlns="http://www.w3.org/2000/svg" xmlns:xlink="http://www.w3.org/1999/xlink" x="0px" y="0px"
	 width="60px" height="60px" viewBox="0 0 60 60" enable-background="new 0 0 60 60" xml:space="preserve">
<g>
	<path fill="currentColor" d="M42.499,37.594h-5.107v-4.015h3.553v-7.79h-7.789v7.79h3.553v4.015h-5.014v0.684h4.983L31.931,46.5
		l-0.035,0.061l0.589,0.342l4.564-7.905l4.528,7.844l0.035,0.062l0.592-0.341l-4.782-8.284h5.077V37.594z M40.263,26.471v6.426
		h-6.426v-6.426H40.263z"/>
	<path fill="currentColor" d="M23.205,33.58h3.555v-7.792h-7.79v7.792h3.554v4.014h-5.016v0.682h4.986l-5.045,8.736H28.28l-5.046-8.736
		h5.08v-0.682h-5.109V33.58z M18.632,46.33l4.233-7.334l4.232,7.334H18.632z M26.077,26.471v6.426h-6.424v-6.426H26.077z"/>
</g>
</svg>
