<?xml version="1.0" encoding="utf-8"?>
<!-- Generator: Adobe Illustrator 16.0.4, SVG Export Plug-In . SVG Version: 6.00 Build 0)  -->
<!DOCTYPE svg PUBLIC "-//W3C//DTD SVG 1.1//EN" "http://www.w3.org/Graphics/SVG/1.1/DTD/svg11.dtd">
<svg version="1.1" id="Layer_1" xmlns="http://www.w3.org/2000/svg" xmlns:xlink="http://www.w3.org/1999/xlink" x="0px" y="0px"
	 width="60px" height="60px" viewBox="0 0 60 60" enable-background="new 0 0 60 60" xml:space="preserve">
<path fill="currentColor" d="M25.667,22.224l-0.946-8.265l-0.67,0.076l0.938,8.188h-1.63v24.671h13.284V22.224H25.667z M24.033,22.898
	h1.032l0.833,7.27h-1.865V22.898z M24.033,30.844h1.942l0.342,2.984h-1.25v4.008h1.708l0.735,6.412h-3.477V30.844z M28.402,34.502
	v2.659h-2.661v-2.659H28.402z M35.967,46.221H24.033v-1.299h11.934V46.221z M35.967,44.248h-3.746l2.811-2.811l-2.833-2.834
	l-2.836,2.834l2.813,2.811h-3.987l-0.735-6.412h1.623v-4.008h-2.081l-0.342-2.984h2.142l1.688,3.055l3.507-1.937l-0.617-1.118h2.593
	V44.248z M32.199,43.316l-1.882-1.879l1.882-1.881l1.879,1.881L32.199,43.316z M29.462,30.654l2.329-1.284l1.284,2.327l-2.327,1.285
	L29.462,30.654z M35.967,30.168h-2.966l-0.946-1.715l-3.109,1.715h-2.37l-0.833-7.27h10.223V30.168z"/>
</svg>
