<?xml version="1.0" encoding="utf-8"?>
<!-- Generator: Adobe Illustrator 16.0.4, SVG Export Plug-In . SVG Version: 6.00 Build 0)  -->
<!DOCTYPE svg PUBLIC "-//W3C//DTD SVG 1.1//EN" "http://www.w3.org/Graphics/SVG/1.1/DTD/svg11.dtd">
<svg version="1.1" id="Layer_1" xmlns="http://www.w3.org/2000/svg" xmlns:xlink="http://www.w3.org/1999/xlink" x="0px" y="0px"
	 width="60px" height="60px" viewBox="0 0 60 60" enable-background="new 0 0 60 60" xml:space="preserve">
<g>
	<path fill="currentColor" d="M40.859,29.115h-3.802v-3.603v-0.337V21.65l-3.065-1.82l-1.91,0.938l-2.762-2.762h-4.287l-2.822,2.822
		l-2.408-0.194l-2.506,1.917v2.625v0.337v21.235l3.146,3.1h13.469l3.146-3.1v-4.016h3.809l1.837-2.168v-9.411L40.859,29.115z
		 M37.058,31.252h2.512l1.007,1.024v7.237l-1.014,1.1h-2.505V31.252z M17.971,46.27V25.85h18.412v20.42H17.971z M17.971,22.884
		l2.036-1.557l2.46,0.198l2.846-2.846h3.729l2.905,2.906l2.016-0.989l2.421,1.437v3.143H17.971V22.884z M33.635,49.172H20.719
		l-2.262-2.229h17.439L33.635,49.172z M42.029,40.317l-1.477,1.74h-3.495v-0.77h2.8l1.393-1.513V32l-1.398-1.424h-2.794v-0.787
		h3.503l1.469,1.625V40.317z"/>
	<rect x="32.874" y="29.174" fill="currentColor" width="0.675" height="14.301"/>
	<rect x="24.765" y="29.174" fill="currentColor" width="0.675" height="14.301"/>
	<rect x="20.709" y="29.174" fill="currentColor" width="0.674" height="14.301"/>
	<rect x="28.819" y="29.174" fill="currentColor" width="0.675" height="14.301"/>
</g>
</svg>
