<?xml version="1.0" encoding="utf-8"?>
<!-- Generator: Adobe Illustrator 16.0.4, SVG Export Plug-In . SVG Version: 6.00 Build 0)  -->
<!DOCTYPE svg PUBLIC "-//W3C//DTD SVG 1.1//EN" "http://www.w3.org/Graphics/SVG/1.1/DTD/svg11.dtd">
<svg version="1.1" id="Layer_1" xmlns="http://www.w3.org/2000/svg" xmlns:xlink="http://www.w3.org/1999/xlink" x="0px" y="0px"
	 width="60px" height="60px" viewBox="0 0 60 60" enable-background="new 0 0 60 60" xml:space="preserve">
<g>
	<path fill="currentColor" d="M33.231,31.338l2.662-2.627l-0.473-0.48l-3.15,3.107h-7.102l2.905-2.867l-3.489-3.444l-0.474,0.479
		l3.003,2.965l-2.906,2.867H13.59v5.531l3.937,5.921l8.343,4.104h8.263l8.455-4.104l3.823-5.923v-5.529H33.231z M45.735,32.014
		v4.549H14.264v-4.549H45.735z M42.124,42.266l-8.146,3.955h-7.951l-8.039-3.955l-3.344-5.029h30.725L42.124,42.266z"/>
	<polygon fill="currentColor" points="23.798,28.23 20.794,25.266 23.798,22.302 23.324,21.821 19.834,25.266 23.324,28.711 	"/>
	<polygon fill="currentColor" points="39.452,28.711 39.926,28.23 36.921,25.266 39.926,22.302 39.452,21.821 35.961,25.266 	"/>
	
		<rect x="23.688" y="20.122" transform="matrix(0.7116 0.7026 -0.7026 0.7116 21.8645 -12.345)" fill="currentColor" width="4.562" height="0.674"/>
	<polygon fill="currentColor" points="32.646,25.507 36.137,22.062 32.646,18.616 32.172,19.098 35.176,22.062 32.172,25.025 	"/>
	<polygon fill="currentColor" points="31.387,28.711 31.861,28.23 28.857,25.266 32.104,22.062 28.857,18.857 31.861,15.894 
		31.388,15.413 27.897,18.857 31.144,22.062 27.897,25.266 	"/>
</g>
</svg>
