<?xml version="1.0" encoding="utf-8"?>
<!-- Generator: Adobe Illustrator 16.0.4, SVG Export Plug-In . SVG Version: 6.00 Build 0)  -->
<!DOCTYPE svg PUBLIC "-//W3C//DTD SVG 1.1//EN" "http://www.w3.org/Graphics/SVG/1.1/DTD/svg11.dtd">
<svg version="1.1" id="Layer_1" xmlns="http://www.w3.org/2000/svg" xmlns:xlink="http://www.w3.org/1999/xlink" x="0px" y="0px"
	 width="60px" height="60px" viewBox="0 0 60 60" enable-background="new 0 0 60 60" xml:space="preserve">
<path fill="currentColor" d="M36.923,31.338l2.905-2.867l-3.248-3.205l3.248-3.204l-2.806-2.77h9.349v-0.675H36.338l-0.001-0.001
	l-0.001,0.001h-3.69l-0.001-0.001l-0.001,0.001H20.551l-0.001-0.001l-0.001,0.001h-6.919v0.675h6.643l2.808,2.77l-3.248,3.204
	l3.248,3.205l-2.905,2.867H13.59v5.531l3.935,5.921l8.345,4.104h8.262l8.457-4.104l3.822-5.923v-5.529H36.923z M36.061,19.292
	l2.807,2.77l-3.247,3.204l3.247,3.205l-2.905,2.867H33.23l2.905-2.867l-3.247-3.205l3.247-3.204l-2.806-2.77H36.061z M32.368,19.292
	l2.807,2.77l-3.248,3.204l3.248,3.205l-2.906,2.867H29.2l2.903-2.867l-3.246-3.205l3.246-3.204l-2.805-2.77H32.368z M28.338,19.292
	l2.805,2.77l-3.246,3.204l3.246,3.205l-2.904,2.867h-3.072l2.903-2.867l-3.246-3.205l3.246-3.204l-2.805-2.77H28.338z M24.04,28.471
	l-3.247-3.205l3.247-3.204l-2.806-2.77h3.071l2.805,2.77l-3.246,3.204l3.246,3.205l-2.904,2.867h-3.071L24.04,28.471z
	 M45.736,32.014v4.547H14.265v-4.547H45.736z M42.124,42.266l-8.148,3.955h-7.949l-8.041-3.955l-3.342-5.03H45.37L42.124,42.266z"/>
</svg>
