<?xml version="1.0" encoding="utf-8"?>
<!-- Generator: Adobe Illustrator 16.0.4, SVG Export Plug-In . SVG Version: 6.00 Build 0)  -->
<!DOCTYPE svg PUBLIC "-//W3C//DTD SVG 1.1//EN" "http://www.w3.org/Graphics/SVG/1.1/DTD/svg11.dtd">
<svg version="1.1" id="Layer_1" xmlns="http://www.w3.org/2000/svg" xmlns:xlink="http://www.w3.org/1999/xlink" x="0px" y="0px"
	 width="60px" height="60px" viewBox="0 0 60 60" enable-background="new 0 0 60 60" xml:space="preserve">
<path fill="currentColor" d="M31.714,46.221l4.913-1.801l1.296-2.774l3.737,0.529l0.903-6.36l-9.673-1.371l1.555-1.124l0.59-3.665
	l-2.174-3.01l-1.872-0.302v-2.786h0.725l2.17-1.055l0.955-1.477l-0.566-0.367l-0.853,1.32l-1.861,0.903h-0.569v-1.935h0.438
	l1.097-1.096v-1.551l-1.097-1.097h-1.552l-1.097,1.097v1.551l1.097,1.096h0.438v1.935h-0.569l-1.836-0.903l-0.879-1.323
	l-0.562,0.373l0.98,1.474l2.14,1.055h0.727v2.678l-1.118-0.18l-3.01,2.174l-0.59,3.666l1.213,1.68l-8.143-1.146l-0.9,6.361
	l3.705,0.525l1.672,4.549l5.087,2.357H13.963v0.674h32.073v-0.674H31.714z M30.155,20.273l-0.701-0.701V18.58l0.701-0.701h0.993
	l0.701,0.701v0.992l-0.701,0.701H30.155z M26.808,28.612l2.558-1.847l3.113,0.501l1.847,2.557l-0.502,3.114l-2.557,1.847
	l-3.113-0.502l-1.846-2.557L26.808,28.612z M18.529,38.215l0.711-5.025l8.118,1.144l0.413,0.571l3.665,0.591l0.667-0.481
	l9.698,1.375l-0.712,5.023L18.529,38.215z M23.681,43.369l-1.451-3.947l14.996,2.124l-1.092,2.336L29.8,46.205L23.681,43.369z"/>
</svg>
