<?xml version="1.0" encoding="utf-8"?>
<!-- Generator: Adobe Illustrator 16.0.4, SVG Export Plug-In . SVG Version: 6.00 Build 0)  -->
<!DOCTYPE svg PUBLIC "-//W3C//DTD SVG 1.1//EN" "http://www.w3.org/Graphics/SVG/1.1/DTD/svg11.dtd">
<svg version="1.1" id="Layer_1" xmlns="http://www.w3.org/2000/svg" xmlns:xlink="http://www.w3.org/1999/xlink" x="0px" y="0px"
	 width="60px" height="60px" viewBox="0 0 60 60" enable-background="new 0 0 60 60" xml:space="preserve">
<g>
	<path fill="currentColor" d="M44.709,31.336l-0.495-2.974l-2.018-2.31l-3.352-0.438v-2.197h-2.302l-1.73-2.296l-3.037,0.635
		l-1.547,1.845l-3.207-1.344l-3.791,1.895l-0.683,2.619l-3.183-0.864l-3.07,1.712l-0.819,3.717h-1.888v5.533l3.936,5.92l8.344,4.105
		h8.262l8.456-4.105l3.824-5.922v-5.531H44.709z M16.89,28.061l2.565-1.431l3.576,0.972l0.777-2.982L27.048,23l3.379,1.416
		l1.716-2.047l2.39-0.5l1.674,2.224h1.964v2.115l3.687,0.481l1.724,1.973l0.445,2.674H16.168L16.89,28.061z M45.736,32.012v4.549
		H14.264v-4.549H45.736z M42.123,42.266l-8.147,3.955h-7.95l-8.04-3.955l-3.344-5.03H45.37L42.123,42.266z"/>
	
		<rect x="39.512" y="29.109" transform="matrix(-0.8538 -0.5206 0.5206 -0.8538 59.4816 75.5966)" fill="currentColor" width="1.686" height="0.675"/>
	
		<rect x="34.97" y="27.819" transform="matrix(-0.4098 -0.9122 0.9122 -0.4098 24.8042 72.3622)" fill="currentColor" width="1.686" height="0.674"/>
	
		<rect x="33.17" y="23.889" transform="matrix(-0.7639 -0.6453 0.6453 -0.7639 43.1462 65.2479)" fill="currentColor" width="0.675" height="1.686"/>
	
		<rect x="25.218" y="24.708" transform="matrix(0.7639 0.6453 -0.6453 0.7639 22.5211 -10.4587)" fill="currentColor" width="0.675" height="1.687"/>
	
		<rect x="28.321" y="26.932" transform="matrix(-0.9297 -0.3682 0.3682 -0.9297 46.2393 63.3615)" fill="currentColor" width="1.687" height="0.674"/>
	
		<rect x="31.523" y="28.881" transform="matrix(-0.6798 -0.7334 0.7334 -0.6798 31.7226 73.2972)" fill="currentColor" width="0.675" height="1.687"/>
	
		<rect x="24.961" y="29.495" transform="matrix(-0.4493 -0.8934 0.8934 -0.4493 10.7459 66.2881)" fill="currentColor" width="1.686" height="0.675"/>
	
		<rect x="18.963" y="29.035" transform="matrix(-0.9562 -0.2929 0.2929 -0.9562 30.1415 63.2587)" fill="currentColor" width="1.687" height="0.676"/>
</g>
</svg>
