<?xml version="1.0" encoding="utf-8"?>
<!-- Generator: Adobe Illustrator 16.0.4, SVG Export Plug-In . SVG Version: 6.00 Build 0)  -->
<!DOCTYPE svg PUBLIC "-//W3C//DTD SVG 1.1//EN" "http://www.w3.org/Graphics/SVG/1.1/DTD/svg11.dtd">
<svg version="1.1" id="Layer_1" xmlns="http://www.w3.org/2000/svg" xmlns:xlink="http://www.w3.org/1999/xlink" x="0px" y="0px"
	 width="60px" height="60px" viewBox="0 0 60 60" enable-background="new 0 0 60 60" xml:space="preserve">
<g>
	<path fill="currentColor" d="M49.434,27.777l-5.778,5.719L33.037,22.86H22.038L10.553,33.984l11.484,11.084l10.986,0.001l10.607-10.597
		l5.803,5.828V27.777z M48.761,29.393v9.238l-4.629-4.656L48.761,29.393z M22.659,33.973l4.882-4.91l4.891,4.91l-4.891,4.91
		L22.659,33.973z M27.064,39.359l-4.553,4.571v-9.149L27.064,39.359z M22.511,33.164v-9.15l4.553,4.57L22.511,33.164z
		 M32.573,34.787v9.157l-4.557-4.583L32.573,34.787z M28.016,28.584L32.573,24v9.159L28.016,28.584z M27.54,28.106l-4.553-4.571
		h9.087L27.54,28.106z M27.541,39.84l4.529,4.555h-9.067L27.541,39.84z M33.248,34.791l4.543,4.562l-4.543,4.538V34.791z
		 M33.248,24.043l4.537,4.557l-4.537,4.553V24.043z M21.836,23.994v19.943l-10.312-9.955L21.836,23.994z M38.268,38.877
		l-4.884-4.904l4.876-4.895l4.893,4.916h0h0.001L38.268,38.877z"/>
	<circle fill="currentColor" cx="17.541" cy="33.504" r="0.609"/>
</g>
</svg>
