<?xml version="1.0" encoding="utf-8"?>
<!-- Generator: Adobe Illustrator 16.0.4, SVG Export Plug-In . SVG Version: 6.00 Build 0)  -->
<!DOCTYPE svg PUBLIC "-//W3C//DTD SVG 1.1//EN" "http://www.w3.org/Graphics/SVG/1.1/DTD/svg11.dtd">
<svg version="1.1" id="Layer_1" xmlns="http://www.w3.org/2000/svg" xmlns:xlink="http://www.w3.org/1999/xlink" x="0px" y="0px"
	 width="60px" height="60px" viewBox="0 0 60 60" enable-background="new 0 0 60 60" xml:space="preserve">
<g>
	<path fill="currentColor" d="M40.454,27.069v-5.37l-2.85-3.207l-2.85,3.207v5.37l2.85,3.188L40.454,27.069z M35.429,21.955l2.175-2.447
		l2.176,2.447v4.856l-2.176,2.433l-2.175-2.433V21.955z"/>
	<polygon fill="currentColor" points="37.941,27.534 37.941,26.599 39.29,24.92 38.764,24.498 37.941,25.521 37.941,24.345 39.29,22.666 
		38.764,22.244 37.941,23.269 37.941,21.233 37.267,21.233 37.267,24.303 36.445,23.279 35.919,23.701 37.267,25.38 37.267,27.534 	
		"/>
	<path fill="currentColor" d="M32.111,24.773l0.007-11.482l-4.299,1.777l-1.644,3.961l1.638,3.962L32.111,24.773z M28.335,15.586
		l3.107-1.285l-0.006,9.463l-3.106-1.289l-1.424-3.445L28.335,15.586z"/>
	
		<rect x="28.401" y="16.967" transform="matrix(0.9139 0.406 -0.406 0.9139 9.514 -10.2342)" fill="currentColor" width="0.95" height="0.675"/>
	
		<rect x="29.779" y="15.692" transform="matrix(0.3747 0.9272 -0.9272 0.3747 33.7808 -18.027)" fill="currentColor" width="0.95" height="0.674"/>
	<rect x="28.089" y="18.695" fill="currentColor" width="0.948" height="0.675"/>
	
		<rect x="28.539" y="20.285" transform="matrix(0.4068 0.9135 -0.9135 0.4068 36.0933 -14.0641)" fill="currentColor" width="0.675" height="0.95"/>
	
		<rect x="29.917" y="21.56" transform="matrix(0.9276 0.3736 -0.3736 0.9276 10.4243 -9.7083)" fill="currentColor" width="0.674" height="0.95"/>
	
		<rect x="30.741" y="29.406" transform="matrix(0.4067 0.9135 -0.9135 0.4067 45.7346 -10.664)" fill="currentColor" width="0.673" height="0.95"/>
	
		<rect x="29.362" y="28.131" transform="matrix(0.9267 0.3759 -0.3759 0.9267 12.9303 -9.0658)" fill="currentColor" width="0.676" height="0.95"/>
	<path fill="currentColor" d="M33.666,31.336l-1.531-3.689l-4.299-1.777l0.005,5.467h-2.702v-5.265l-2.85-3.208l-2.849,3.208v5.265
		h-5.851v5.533l3.936,5.92l8.344,4.105h8.262l8.457-4.105l3.824-5.922v-5.531H33.666z M31.619,28.163l1.316,3.173h-4.42
		l-0.004-4.458L31.619,28.163z M20.115,26.328l2.174-2.448l2.175,2.448v4.855l-0.136,0.152h-1.702v-1.583l1.349-1.681l-0.526-0.422
		l-0.823,1.024v-3.069h-0.674v2.035l-0.822-1.024l-0.526,0.423l1.348,1.679v1.176l-0.822-1.023l-0.526,0.423l1.348,1.678v0.365
		h-1.701l-0.136-0.152V26.328z M45.736,32.012v4.549H14.264v-4.549H45.736z M42.123,42.266l-8.147,3.955h-7.95l-8.04-3.955
		l-3.344-5.03H45.37L42.123,42.266z"/>
</g>
</svg>
