<?xml version="1.0" encoding="utf-8"?>
<!-- Generator: Adobe Illustrator 16.0.4, SVG Export Plug-In . SVG Version: 6.00 Build 0)  -->
<!DOCTYPE svg PUBLIC "-//W3C//DTD SVG 1.1//EN" "http://www.w3.org/Graphics/SVG/1.1/DTD/svg11.dtd">
<svg version="1.1" id="Layer_1" xmlns="http://www.w3.org/2000/svg" xmlns:xlink="http://www.w3.org/1999/xlink" x="0px" y="0px"
	 width="60px" height="60px" viewBox="0 0 60 60" enable-background="new 0 0 60 60" xml:space="preserve">
<g>
	<path fill="currentColor" d="M13.589,31.338v5.531l3.938,5.921l8.342,4.104h8.263l8.455-4.104l3.823-5.923v-5.529H13.589z
		 M45.735,32.013v4.549H14.264v-4.549H45.735z M42.123,42.266l-8.146,3.955h-7.951l-8.038-3.955l-3.345-5.029h30.726L42.123,42.266z
		"/>
	<path fill="currentColor" d="M26.523,28.77L30,26.715l3.478,2.055l-0.88-3.942l3.029-2.671l-4.021-0.381L30,18.068l-1.605,3.707
		l-4.021,0.381l3.029,2.671L26.523,28.77z M25.989,22.681l2.867-0.272L30,19.766l1.144,2.643l2.868,0.272l-2.16,1.905l0.627,2.811
		L30,25.932l-2.479,1.465l0.627-2.811L25.989,22.681z"/>
</g>
</svg>
