<?xml version="1.0" encoding="utf-8"?>
<!-- Generator: Adobe Illustrator 16.0.4, SVG Export Plug-In . SVG Version: 6.00 Build 0)  -->
<!DOCTYPE svg PUBLIC "-//W3C//DTD SVG 1.1//EN" "http://www.w3.org/Graphics/SVG/1.1/DTD/svg11.dtd">
<svg version="1.1" id="Layer_1" xmlns="http://www.w3.org/2000/svg" xmlns:xlink="http://www.w3.org/1999/xlink" x="0px" y="0px"
	 width="60px" height="60px" viewBox="0 0 60 60" enable-background="new 0 0 60 60" xml:space="preserve">
<g>
	<path fill="currentColor" d="M35.839,30.119l3.205-7.618l-4.869-11.147h-8.641l-4.871,11.147l3.207,7.62l5.693,1.68v15.115l-6.615,2.932
		h13.773l-6.443-2.929v-15.12L35.839,30.119z M25.976,12.027h7.756l4.307,9.854H21.67L25.976,12.027z M33.606,49.172h-7.471
		l3.783-1.676L33.606,49.172z M29.921,31.202l-5.553-1.638l-2.951-7.009H38.29l-2.949,7.01L29.921,31.202z"/>
	<rect x="29.747" y="5.099" fill="currentColor" width="0.676" height="3.927"/>
	
		<rect x="23.906" y="7.467" transform="matrix(0.3481 0.9374 -0.9374 0.3481 24.1801 -19.1645)" fill="currentColor" width="3.927" height="0.675"/>
	
		<rect x="20.039" y="9.989" transform="matrix(0.6649 0.7469 -0.7469 0.6649 15.0863 -12.9741)" fill="currentColor" width="3.927" height="0.674"/>
	
		<rect x="18.125" y="13.454" transform="matrix(0.975 0.2224 -0.2224 0.975 3.5694 -4.1213)" fill="currentColor" width="3.926" height="0.674"/>
	
		<rect x="37.949" y="13.454" transform="matrix(-0.975 0.2224 -0.2224 -0.975 81.8916 18.3632)" fill="currentColor" width="3.926" height="0.674"/>
	
		<rect x="33.962" y="5.841" transform="matrix(0.9373 0.3486 -0.3486 0.9373 4.8718 -11.4669)" fill="currentColor" width="0.675" height="3.927"/>
	
		<rect x="37.831" y="8.363" transform="matrix(0.7458 0.6662 -0.6662 0.7458 16.5808 -22.8011)" fill="currentColor" width="0.674" height="3.927"/>
</g>
</svg>
