<?xml version="1.0" encoding="utf-8"?>
<!-- Generator: Adobe Illustrator 16.0.4, SVG Export Plug-In . SVG Version: 6.00 Build 0)  -->
<!DOCTYPE svg PUBLIC "-//W3C//DTD SVG 1.1//EN" "http://www.w3.org/Graphics/SVG/1.1/DTD/svg11.dtd">
<svg version="1.1" id="Layer_1" xmlns="http://www.w3.org/2000/svg" xmlns:xlink="http://www.w3.org/1999/xlink" x="0px" y="0px"
	 width="60px" height="60px" viewBox="0 0 60 60" enable-background="new 0 0 60 60" xml:space="preserve">
<g>
	<path fill="currentColor" d="M42.43,31.417h-3.896V28.27h-8.105l2.692-2.656l-0.474-0.48l-3.18,3.137h-7.102l2.934-2.896l-3.489-3.445
		l-0.474,0.48l3.003,2.965l-2.936,2.896h-5.678v14.189l4.378,4.436h14.051l4.378-4.436v-2.678h3.903l1.838-2.168v-4.158
		L42.43,31.417z M37.859,42.183l-3.986,4.038H20.386L16.4,42.183v-7.724h21.458V42.183z M37.859,33.785H16.4v-4.842h21.458V33.785z
		 M43.601,37.365l-1.477,1.742h-3.59v-7.016h3.597l1.47,1.624V37.365z"/>
	<polygon fill="currentColor" points="21.025,25.133 18.021,22.168 21.025,19.203 20.551,18.723 17.061,22.168 20.551,25.613 	"/>
	<polygon fill="currentColor" points="36.679,25.613 37.153,25.133 34.149,22.168 37.153,19.203 36.679,18.723 33.188,22.168 	"/>
	
		<rect x="20.916" y="17.023" transform="matrix(0.7117 0.7025 -0.7025 0.7117 18.8831 -11.2902)" fill="currentColor" width="4.561" height="0.674"/>
	<polygon fill="currentColor" points="29.874,22.408 33.364,18.963 29.874,15.518 29.399,15.998 32.404,18.963 29.399,21.928 	"/>
	<polygon fill="currentColor" points="28.615,25.613 29.089,25.133 26.084,22.168 29.332,18.963 26.084,15.758 29.088,12.795 
		28.615,12.314 25.124,15.758 28.372,18.963 25.124,22.168 	"/>
</g>
</svg>
