<?xml version="1.0" encoding="utf-8"?>
<!-- Generator: Adobe Illustrator 16.0.4, SVG Export Plug-In . SVG Version: 6.00 Build 0)  -->
<!DOCTYPE svg PUBLIC "-//W3C//DTD SVG 1.1//EN" "http://www.w3.org/Graphics/SVG/1.1/DTD/svg11.dtd">
<svg version="1.1" id="Layer_1" xmlns="http://www.w3.org/2000/svg" xmlns:xlink="http://www.w3.org/1999/xlink" x="0px" y="0px"
	 width="60px" height="60px" viewBox="0 0 60 60" enable-background="new 0 0 60 60" xml:space="preserve">
<g>
	<path fill="currentColor" d="M37.585,12.326l-4.904-2.26V0h-5.545v10.07l-4.721,2.258l-1.598,4.584l-0.02,34.913l3.576,4.113h11.252
		l3.576-4.113V17.023L37.585,12.326z M32.007,10.014h-4.195V2.842h4.195V10.014z M32.007,0.676v1.49h-4.195v-1.49H32.007z
		 M38.528,51.572l-3.209,3.691H24.681l-3.207-3.691V17.08l1.486-4.264l4.514-2.16v0.031h4.87v-0.033l4.698,2.164l1.486,4.262V51.572
		z"/>
	<path fill="currentColor" d="M24.858,22.993l-1.855,1.854v16.293l1.855,1.854h10.213l1.854-1.854V24.848l-1.854-1.854H24.858z
		 M36.251,40.861l-1.459,1.459h-9.654l-1.46-1.459V25.126l1.46-1.458h9.654l1.459,1.458V40.861z"/>
	<path fill="currentColor" d="M29.039,34.511l-1.278,1.278v1.807l1.279,1.276h1.805l1.279-1.276v-1.807l-1.279-1.278H29.039z
		 M31.448,37.316l-0.883,0.881h-1.247l-0.884-0.881v-1.248l0.884-0.883h1.247l0.883,0.883V37.316z"/>
	<path fill="currentColor" d="M29.307,33.161v-1.806l-1.276-1.278h-1.809l-1.275,1.278v1.806l1.275,1.278h1.809L29.307,33.161z
		 M26.501,33.764l-0.88-0.881v-1.249l0.88-0.882h1.25l0.881,0.882v1.249l-0.881,0.881H26.501z"/>
	<path fill="currentColor" d="M31.882,30.077l-1.277,1.276v1.809l1.277,1.277h1.807l1.277-1.278v-1.806l-1.277-1.278H31.882z
		 M34.291,32.883l-0.882,0.881h-1.248l-0.883-0.883v-1.246l0.883-0.883h1.248l0.882,0.882V32.883z"/>
	<polygon fill="currentColor" points="30.339,28.126 31.57,26.607 31.046,26.182 29.663,27.887 29.663,30.099 30.339,30.099 	"/>
</g>
</svg>
