<?xml version="1.0" encoding="utf-8"?>
<!-- Generator: Adobe Illustrator 16.0.4, SVG Export Plug-In . SVG Version: 6.00 Build 0)  -->
<!DOCTYPE svg PUBLIC "-//W3C//DTD SVG 1.1//EN" "http://www.w3.org/Graphics/SVG/1.1/DTD/svg11.dtd">
<svg version="1.1" id="Layer_1" xmlns="http://www.w3.org/2000/svg" xmlns:xlink="http://www.w3.org/1999/xlink" x="0px" y="0px"
	 width="60px" height="60px" viewBox="0 0 60 60" enable-background="new 0 0 60 60" xml:space="preserve">
<path fill="currentColor" d="M29.428,44.326h-4.009v-4.009h4.009V44.326z M26.093,43.65h2.66v-2.658h-2.66V43.65z"/>
<path fill="currentColor" d="M20.262,32.6l3.094,14.297h13.276L39.739,32.6H20.262z M36.088,46.223H23.901l-1.61-7.437h9.372l2.362,2.36
	l2.36-2.36h1.319L36.088,46.223z M32.144,38.312l1.881-1.88l1.878,1.88l-1.878,1.88L32.144,38.312z M36.657,38.111l-2.632-2.633
	l-2.635,2.633h-9.245l-1.047-4.837h17.804l-1.051,4.837H36.657z"/>
</svg>
