<?xml version="1.0" encoding="utf-8"?>
<!-- Generator: Adobe Illustrator 16.0.4, SVG Export Plug-In . SVG Version: 6.00 Build 0)  -->
<!DOCTYPE svg PUBLIC "-//W3C//DTD SVG 1.1//EN" "http://www.w3.org/Graphics/SVG/1.1/DTD/svg11.dtd">
<svg version="1.1" id="Layer_1" xmlns="http://www.w3.org/2000/svg" xmlns:xlink="http://www.w3.org/1999/xlink" x="0px" y="0px"
	 width="60px" height="60px" viewBox="0 0 60 60" enable-background="new 0 0 60 60" xml:space="preserve">
<g>
	<polygon fill="currentColor" points="41.829,30.523 42.181,30.172 42.181,29.674 41.829,29.321 41.332,29.321 40.98,29.674 
		40.98,30.172 41.332,30.523 	"/>
	<polygon fill="currentColor" points="32.862,26.972 32.862,27.47 33.215,27.821 33.712,27.821 34.065,27.47 34.065,26.972 33.712,26.62 
		33.215,26.62 	"/>
	<polygon fill="currentColor" points="33.712,13.728 34.065,13.376 34.065,12.879 33.712,12.525 33.215,12.525 32.862,12.879 
		32.862,13.376 33.215,13.728 	"/>
	<polygon fill="currentColor" points="22.342,16.746 22.695,16.396 22.695,15.896 22.342,15.545 21.845,15.545 21.492,15.896 
		21.492,16.396 21.845,16.746 	"/>
	<path fill="currentColor" d="M40.525,22.893l1.757-5.074l-1.643-3.963l-3.744,2.096l-1.757,5.075l1.65,3.945L40.525,22.893z
		 M37.45,16.415l2.857-1.601l1.254,3.025l-1.589,4.588l-2.852,1.588l-1.26-3.012L37.45,16.415z"/>
	<polygon fill="currentColor" points="37.361,22.288 37.999,22.509 38.305,21.626 40.128,20.48 39.77,19.91 38.657,20.608 39.042,19.497 
		40.865,18.352 40.506,17.779 39.394,18.479 40.06,16.555 39.423,16.335 38.419,19.234 37.977,17.998 37.341,18.226 38.066,20.252 	
		"/>
	<path fill="currentColor" d="M29.532,16.254v-5.37l-2.85-3.208l-2.85,3.208v5.37l2.85,3.188L29.532,16.254z M24.506,11.141l2.176-2.448
		l2.175,2.448v4.855l-2.175,2.434l-2.176-2.434V11.141z"/>
	<polygon fill="currentColor" points="27.02,16.719 27.02,14.564 28.367,12.885 27.841,12.463 27.02,13.487 27.02,10.418 26.345,10.418 
		26.345,12.452 25.522,11.429 24.997,11.852 26.345,13.529 26.345,14.706 25.522,13.683 24.997,14.105 26.345,15.782 26.345,16.719 
			"/>
	<path fill="currentColor" d="M24.259,25.385l3.997,0.004v4.829h3.447v-4.829l4.038,0.004l-1.778-4.301l-3.959-1.641l-3.962,1.638
		L24.259,25.385z M26.063,24.711l2.195-1.221l-0.002,1.223L26.063,24.711z M31.701,23.409l2.35,1.306l-2.347-0.001L31.701,23.409z
		 M30.003,20.182l3.443,1.428l1.073,2.594l-3.497-1.943l0.006,2.453h-0.001v4.83h-2.098v-4.492l0.004-2.707l-3.489,1.939
		l1.112-2.678L30.003,20.182z"/>
	
		<rect x="19.16" y="24.862" transform="matrix(0.6796 0.7336 -0.7336 0.6796 24.7751 -6.3307)" fill="currentColor" width="0.951" height="0.673"/>
	
		<rect x="21.067" y="24.095" transform="matrix(0.9998 0.0217 -0.0217 0.9998 0.5383 -0.4588)" fill="currentColor" width="0.675" height="0.949"/>
	
		<rect x="18.193" y="26.325" transform="matrix(0.9191 0.394 -0.394 0.9191 12.0142 -5.1982)" fill="currentColor" width="0.949" height="0.675"/>
	
		<rect x="17.797" y="28.035" transform="matrix(0.9999 -0.0123 0.0123 0.9999 -0.3482 0.2273)" fill="currentColor" width="0.951" height="0.676"/>
	
		<rect x="18.699" y="29.613" transform="matrix(-0.7028 -0.7114 0.7114 -0.7028 11.0081 64.7771)" fill="currentColor" width="0.675" height="0.951"/>
	<path fill="currentColor" d="M36.625,31.293l1.079-1.078l-2.358-2.357l-2.358,2.357l1.079,1.078H20.541l3.657-8.504l-4.651-0.061
		l-3.072,2.988l-0.057,4.289l1.253,1.287h-4.082v5.533l3.936,5.92l8.342,4.105h8.264l8.456-4.105l3.823-5.922v-5.531H36.625z
		 M33.941,30.215l1.403-1.404l1.404,1.404l-1.079,1.078h-0.65L33.941,30.215z M17.096,29.734l0.05-3.729l2.671-2.6l3.363,0.045
		l-3.373,7.842h-1.193L17.096,29.734z M45.735,31.969v4.549H14.264v-4.549H45.735z M42.123,42.223l-8.147,3.955h-7.952l-8.038-3.955
		l-3.344-5.03h30.727L42.123,42.223z"/>
	<path fill="currentColor" d="M24.17,18.364h-3.334v3.335h3.334V18.364z M23.495,21.024H21.51v-1.985h1.985V21.024z"/>
	<path fill="currentColor" d="M23.259,27.57v1.551l1.096,1.097h1.552l1.096-1.097V27.57l-1.096-1.098h-1.552L23.259,27.57z
		 M25.628,27.148l0.701,0.701v0.992l-0.701,0.701h-0.993l-0.701-0.701V27.85l0.701-0.701H25.628z"/>
	<path fill="currentColor" d="M41.51,26.444l-1.097-1.096h-1.551l-1.097,1.096v1.552l1.097,1.097h1.551l1.097-1.097V26.444z
		 M40.835,27.717l-0.701,0.701h-0.992l-0.702-0.701v-0.992l0.702-0.701h0.992l0.701,0.701V27.717z"/>
	<path fill="currentColor" d="M33.603,18.926l1.098-1.096v-1.552l-1.098-1.097h-1.55l-1.097,1.098v1.55l1.097,1.097H33.603z
		 M31.63,16.559l0.702-0.701h0.992l0.702,0.701v0.99l-0.702,0.703h-0.992l-0.702-0.701V16.559z"/>
</g>
</svg>
