<?xml version="1.0" encoding="UTF-8"?><!DOCTYPE svg PUBLIC "-//W3C//DTD SVG 1.1//EN" "http://www.w3.org/Graphics/SVG/1.1/DTD/svg11.dtd"><svg xmlns="http://www.w3.org/2000/svg" xmlns:xlink="http://www.w3.org/1999/xlink"><defs><path id="SVGID_1_" d="M0 0h369.6v223H0z"/></defs><symbol id="logo-center" viewBox="0 0 369.6 223"><style>.st0{clip-path:url(#SVGID_2_);fill:#c32a53}</style><clipPath id="SVGID_2_"><use xlink:href="#SVGID_1_" overflow="visible"/></clipPath><path class="st0" d="M136.3 28c-.2-7.8-.5-12.5-.8-14-.2-.9.3-1.3 1.4-1.3 1.4.2 2.9.5 4.2.8 1.5.6 1.7 1.4.8 2.2-.9.6-1.2 2.5-1.1 5.6v5.6c.6-.2 1.3-.3 2.1-.5 2.7-1.1 4.1-1.2 4.2-.6 0 .7.1 1.6.2 2.7.2 1.2-.5 2-1.8 2.4-1.5.7-3.1 1.4-4.8 2.1-.1 2.9-.1 5.2 0 6.8 2.4-1.7 3.9-2.7 4.9-3 .3-.1.5.2.8.8 0 .8-.3 1.4-.8 2-3 3.3-5.8 6-8.6 8.2-3 2.2-4.9 3.9-5.8 5.1-.8 1.1-2 .9-3.4-.5-1.7-1.4-2.5-2.4-2.3-2.8 0-.5.5-.9 1.4-1.4 3-1.6 5.9-3.3 8.9-5.3 0-.2.1-.5.2-.8 0-1.1 0-3.6.1-7.9-3.1.9-5 1.8-5.6 2.7-.6.8-1.5-.1-2.7-3-1.4-2.7-1.6-3.9-.7-3.8.5.1 3.4-.6 9.2-2.1m10.5 17.1c2.7-6.4 3.7-13.1 3.5-20.3-.6-.5-.5-1 .2-1.4 3.6 0 6.9-.7 10.2-2 .5-.1 1-.4 1.6-.6-.8-3-1.3-5.7-1.6-8.3-.8-6-1.7-9.6-2.4-10.6-.9-1.8 0-2.2 2.7-1.3 2.5 1.1 3.5 2 3 2.9-1 1.7-.4 7.1 2.2 15.9.5-.2 1.2-.3 2-.5 1.1-.2 1.7-.6 2.2-1.3.3-.6 1.2.2 2.7 2 1.4 2 1.1 3.3-.7 3.8-1.4.3-3 .8-4.7 1.4 1.5 5.4 3.2 10.2 5.2 14.4 2-3.3 2.8-6.8 2.8-10.2 0-.9 1-1.1 3-.7 1.9.5 2.7.9 2.6 1.3-.5.5-1.1 2-1.7 4.5-.8 2.6-2 4.9-3.9 6.8-.5.6-1 1.1-1.3 1.5.9 1.9 1.8 3.7 3 5.2 4 6.2 7.1 9.2 9.4 8.9.6 0 1.2-1.8 1.9-5.6.6-3.8.3-7.7-.8-11.7-.2-.9 0-1 .5-.3 1.5 3.1 2.7 6.5 3.3 10.1.8 3.6 1 6.2.8 8-.3 1.8-.4 3.4-.1 4.7.8 1.6.3 2.2-1.1 1.6-4.2-.8-8.6-3.8-13.3-8.9-2.1-2.2-3.9-4.6-5.5-7.4-2.1 1.6-3.6 2.7-4.3 3-1.1.6-2.7 1-4.8 1.1-1.1.1-1.3-.2-.4-1.1 3-2.7 5.4-4.9 7.2-7-1.4-2.7-2.8-5.8-3.9-9-1-2.7-1.9-5.2-2.6-7.9-.8.3-1.4.5-1.9.6-1.5.3-3.1 1-4.8 2-1.6.5-2.7 1.4-3 2.7-.5 1.2-.8 2.5-1 3.6.7-.1 1.8-.5 3.5-1.1 1.6-.8 2.7-1.1 3.4-1.1 3.9 1.1 5.6 2.2 5.2 3.1-.6 1-1 1.7-1 2.2-.1.5-.5 2-.9 4.5-.4 2.4-1.1 5-2 7.7-1.1 2.8-1.7 4.2-1.8 4.1-3-1.1-5.8-3.1-8.5-6.3 0 .9-.4 1.7-1.1 2.5-4.5 3.5-8.6 5.5-12.3 5.8-1.7.3-2-.1-.6-1.1 4.6-2.9 7.7-6.3 9.9-10.2m5-5.7c-.5 1.5-.9 3.2-1.3 4.8-.3.6-.3 1.3-.1 1.9 2.9 1.6 4.9 2.2 6.3 1.7.5-.4 1.1-2 1.9-4.9.6-2.9.6-4.8.2-5.6-.6-.3-2-.2-3.9.8-1.5.6-2.5 1-3.1 1.3M172.5 15c-1.6-2.1-2.3-4-2.1-5.7.3-3.3 1.4-4.3 3.3-3.3.4.1 1.1.8 2 1.7.7 1 1.6 1.7 2.7 2.2.8.6 1.7 1.2 2.5 1.7.3.2.3.9.1 1.8-.5 1-1.4 1.5-2.8 1.6-1.7.1-2.9.3-3.6.5-1.2.3-1.9.1-2.1-.5M205.9 19.4c3.3-4.4 6.3-9.9 9.2-16.3.3-.7.6-1.4 1.1-2.4.3-.8 1.6-.5 4.1.8 2.3 1.3 2.7 2.3 1.5 2.8-1.7 1.4-3.6 3.7-5.7 6.7-2.3 3-3.7 5.2-4.4 6.4-.6.8-1 1.5-1.1 2.4 1.5.6 3 1.4 4.5 2.1.8.5 1 1.1.7 2-.4 1.2-.7 3.3-.5 6.2 0 2.9-.1 5.2-.3 7.1-.1.8-.1 1.7.3 2.3.6 1.1-.8 1.4-4.2.8-.7-.2-1-.7-.7-1.3.2-2.4.3-5.6.2-9.5-.2-2.7-.4-4.9-.6-6.4-.6.9-1.5 1.7-2.7 2.5-2.1 1.2-4.6 2.5-7.5 3.9-1.9.8-2.4.4-1.2-1.3 1.8-2.5 4.2-5.4 7.3-8.8m23.7 40.1c-10 .7-17.9 1.7-23.4 3.3-.8.5-1.8-.5-3-2.8-1.4-2.3-.6-3 2.4-2.2 5.5-.9 11.7-1.7 19-2.7 0-.5 0-1.3.2-2.2 0-1 0-2.1.1-3.3-3.9.2-6.2.8-7.1 1.7-.6.8-1.2-.1-1.8-2.8-.8-2.5-.8-3.6-.1-3.3.3.1 3.3-.2 9.3-.9v-4c-.9-2.4.1-3 3-2.2 2.8.9 3.9 1.9 3.3 2.8-.2.2-.3 1.1-.5 2.7 1.5-.1 3.2-.3 5.2-.6 2.9-.5 4.2-.5 4.2.2-.2.5-.2 1.4-.2 2.5-.1 1.1-.9 1.7-2.1 2-2.2.6-4.8 1.1-7.4 1.5-.3 2.8-.4 4.6-.1 5.4 4.5-.5 8.7-.7 12.9-.7 4 0 6.4-.2 7.3-.5.5-.2.8.3 1.2 1.2.3.9.8 1.6 1.4 2 .6.5.8 1.6.7 3.3-.1 1.7-.8 2.3-1.8 1.7-6.6-2-14-2.5-22.7-2.1m-9-27.1c2.3-1.7 5-3.6 8.4-5.5.3-.1.5-.1.6.1.2.2.1.4-.1.6-2.5 3.3-4.1 6.3-4.7 8.5-.2 1.7-.7 2.3-1.6 1.8-1-.5-2-1.3-2.8-2.8-1-1.4-1.3-2.1-.8-2.3.3 0 .5-.2 1-.4m10.7-27.8c4.2-1.4 7.7-1.7 10.6-1.2 4.4 1.5 6.2 2.7 5.4 3.5-.9.5-2 1.8-3 4.1-1.2 2.3-1.8 3.9-1.7 4.9-.3.8-.8 1-1.4.6-1.1-.1-2-.1-2.8-.1-.1.2-.2.3-.1.3-.3.5-.5 1.5-.7 3.1 2.8-.5 5.5-.9 8.1-1.1 2.6-.2 4-.4 4.6-.6.3-.1.6.2 1.1.8.3.8.6 1.3 1.2 1.5.5.3.7 1.1.7 2.7 0 1.5-.5 2-1.4 1.4-4.1-.9-9-1.1-14.6-.5-.2 2.2-.2 4.2-.2 6.1 0 2.5.1 4.9.2 7 .3 2.7-.9 3.4-3.4 2.3-3-1.1-3.9-2-2.7-2.7.9-.5 1.4-1.8 1.7-4.1 0-1.9-.1-4.6-.2-8-4.2.7-7.7 1.5-10.3 2.4-.6.3-1.4-.3-2.4-2-1-1.6-.5-2.1 1.6-1.7 3.1-.8 6.7-1.7 10.9-2.6-.2-1.5-.2-2.7-.2-3.6-1.1.3-1.9.7-2.5 1-.4.2-.7.2-.8-.2-.2-.4-.6-.9-1.3-1.7-2.5-2.4-4.2-5.2-4.7-8.2-.6-.8-.5-1.2.5-1.4.9-.1 3.4-.7 7.8-2m6.1 7.6c1.7-1.6 1.9-3.2.9-4.7-.8-.8-2.4-.8-4.5-.1-2.5.8-4 1.4-4.3 2-.5 1.8 0 3.1 1.4 4 .2.2 1.1.2 3-.2 1.6-.2 2.7-.5 3.5-1m3.6 15c-.8-.8-.5-1.1.8-1.1 3.5.7 6.6 1.6 9.3 2.9.5.2.4 1.5-.1 3.8-.5 2.4-1.1 3.7-1.8 3.9-.7.3-1.2.1-1.5-.6-.4-.6-1-1.4-1.6-2.6-2.2-2.6-3.9-4.7-5.1-6.3M114.2 99H69v32h-4v2.7h4v25.4l-3.7 6h18.8v-31.4h15v31.4h18.8l-3.7-6v-25.4h4V131h-4V99zm-30.1 2.6h15V131h-15v-29.4zM27.5 99l3.7 6v57.5H18.8v-17.7H0l3.7 5.9v14.4h42.6V105l3.7-6zM295.6 99h-23l4 6.4v25.7h-4v2.6h4v25.2l-4 6.4h23l-4-6.4v-25.2h4v-2.6h-4v-25.7zM166.4 117.5h18.8l-3.7-6V99h-45.2v34.4h30.1v29.1h-15V147h-18.8l3.7 5.6v12.5h45.2v-34.4h-30.1v-29.1h15zM259 99h-19.5L229 117.8 218.4 99h-19.5l3.7 6v54.1l-3.7 6h18.8V103l9.8 17.5-7.2 12.9h17.4l-7.2-12.9 9.8-17.5v62.1H259l-3.7-6V105l3.7-6zm-25.8 31.7h-8.6l4.3-7.6 4.3 7.6zM365.9 159.1V105l3.7-6h-18.7v60.9L329.2 99h-19.7l3.7 6v54.1l-3.7 6h18.8v-60.9l21.6 60.9h19.7zM119.2 220h3.3v-6.4c0-3.9 2.7-6.2 8.3-5.4v2.8c-3.2-.6-5.2.5-5.2 2.6v6.4h4.1v2.7h-10.5V220zM145.2 218.1c-.3 3.2-2.5 4.9-6.1 4.9-3.7 0-6.2-1.9-6.2-5.6v-3.8c0-3.7 2.4-5.6 6.2-5.6 3.7 0 6.1 1.9 6.1 5.6v2.9h-9.1v1.1c0 1.7 1.1 2.7 3 2.7s2.8-.9 3-2.2h3.1zm-9.1-4h6v-.7c0-1.8-1.2-2.7-3-2.7s-3 .9-3 2.7v.7zM155 217.1l-2.8-.6c-2.5-.5-4.1-1.8-4.1-4.1 0-2.9 2.1-4.3 5.9-4.3 3.7 0 5.8 1.5 5.8 4.4v.3h-3.1v-.2c0-1.3-.9-1.9-2.7-1.9-1.8 0-2.7.6-2.7 1.7 0 .8.5 1.3 1.8 1.6l2.9.6c2.5.5 4.1 1.8 4.1 4.1 0 3-2.3 4.5-6 4.5s-6-1.5-6-4.4v-.3h3.1v.2c0 1.3 1.1 2 2.9 2 1.8 0 2.9-.6 2.9-1.8-.2-1-.8-1.6-2-1.8M168.6 217.7c0 2.4.8 2.8 4 2.5v2.6c-5.9 1-7.1-1.2-7.1-5.2V211h-3.6v-2.7h10.8v2.7h-4v6.7zM180 214.1c1.7 0 3.1.4 4 1.3v-2.3c0-1.6-1-2.5-2.7-2.5-1.8 0-2.7.6-2.7 2.2h-3.1c0-3.1 2-4.7 5.8-4.7 3.5 0 5.8 1.8 5.8 5.2v4.7c0 2.1.6 2.5 2.2 2.2v2.6c-2.7.6-4.2-.1-4.8-1.7-.9 1.3-2.5 1.9-4.5 1.9-3.1 0-5.2-1.5-5.2-4.5.1-2.9 2.1-4.4 5.2-4.4m.9 6.2c1.8 0 3.1-.6 3.1-1.8 0-1.2-1.2-1.9-3.1-1.9-1.8 0-3 .6-3 1.9.1 1.3 1.2 1.8 3 1.8M194.7 208.3v9.3c0 1.8 1.2 2.7 3 2.7s3-.9 3-2.7v-9.3h3.1v9.1c0 3.7-2.4 5.6-6.1 5.6-3.7 0-6.1-1.9-6.1-5.6v-9.1h3.1zM205.9 220h3.3v-6.4c0-3.9 2.7-6.2 8.3-5.4v2.8c-3.2-.6-5.2.5-5.2 2.6v6.4h4.1v2.7h-10.5V220zM224.4 214.1c1.7 0 3.1.4 4 1.3v-2.3c0-1.6-1-2.5-2.7-2.5-1.8 0-2.7.6-2.7 2.2h-3.1c0-3.1 2-4.7 5.8-4.7 3.5 0 5.8 1.8 5.8 5.2v4.7c0 2.1.6 2.5 2.2 2.2v2.6c-2.7.6-4.2-.1-4.8-1.7-.9 1.3-2.5 1.9-4.5 1.9-3.1 0-5.2-1.5-5.2-4.5 0-2.9 2-4.4 5.2-4.4m.9 6.2c1.8 0 3.1-.6 3.1-1.8 0-1.2-1.2-1.9-3.1-1.9-1.8 0-3 .6-3 1.9 0 1.3 1.1 1.8 3 1.8M236.1 213.6c0-3.7 2.4-5.6 6.2-5.6 3.7 0 6.1 1.9 6.1 5.6v9.1h-3.1v-9.3c0-1.8-1.2-2.7-3-2.7s-3 .9-3 2.7v9.3h-3.1v-9.1zM257.3 217.7c0 2.4.8 2.8 4 2.5v2.6c-5.9 1-7.1-1.2-7.1-5.2V211h-3.6v-2.7h10.8v2.7h-4v6.7z"/></symbol><symbol id="logo-small" viewBox="0 0 739.2 132.8"><style>.st0{fill:#c32a53}</style><path class="st0" d="M168.2 5.3h30.1v58.8h-30.1V5.3zM138.1.1v64h-8v5.4h8v50.8l-7.4 12h37.5V69.5h30.1v62.7h37.5l-7.4-11.9V69.5h8v-5.4h-8V.1h-90.3zM55 .1l7.4 12V127H37.5V91.6H0l7.4 11.9v28.7h85.1V12.1l7.5-12zM545.2 0l7.9 12.8v51.4h-7.9v5.2h7.9V120l-7.9 12.8h46l-8-12.9V69.4h8v-5.2h-8V12.8l8-12.8zM272.7.1v68.7h60.2V127h-30.1V96.1h-37.6l7.5 11.2v24.9H363V63.6h-60.2V5.3h30.1V37h37.5L363 25.1V.1zM457.9 48.3l8.5 15.3h-17.1l8.6-15.3zm21-48.2l-21 37.6L436.8.1h-39.1l7.4 12v108.2l-7.4 11.9h37.5V8l19.6 35-14.5 25.8h34.9L460.8 43l19.6-35v124.2h37.5l-7.4-12V12.1l7.4-12h-39zM701.7.1v121.8L658.4.1h-39.3l7.4 11.9v108.3l-7.4 11.9h37.5V10.5l43.3 121.7h39.3l-7.4-11.9V12L739.2.1z"/></symbol></svg>