<?xml version="1.0" encoding="UTF-8"?><!DOCTYPE svg PUBLIC "-//W3C//DTD SVG 1.1//EN" "http://www.w3.org/Graphics/SVG/1.1/DTD/svg11.dtd"><svg xmlns="http://www.w3.org/2000/svg" xmlns:xlink="http://www.w3.org/1999/xlink"><defs><path id="SVGID_1_" d="M0 0h32v32H0z"/><path id="SVGID_1_" d="M0 0h411.7v793H0z"/><path id="SVGID_1_" d="M0 0h369.6v223H0z"/></defs><symbol id="ico-chinese-fb" viewBox="0 0 26 21"><image width="26" height="21" xlink:href="48D517CF.jpg" transform="scale(.9999)" overflow="visible"/></symbol><symbol id="ico-fb" viewBox="0 0 32 32"><style>.st0{clip-path:url(#SVGID_2_);fill:#444}</style><clipPath id="SVGID_2_"><use xlink:href="#SVGID_1_" overflow="visible"/></clipPath><path class="st0" d="M16 0C7.2 0 0 7.2 0 16s7.2 16 16 16 16-7.2 16-16S24.8 0 16 0m4.2 10.7h-1.5c-1.2 0-1.4.6-1.4 1.4v1.8h2.8l-.4 2.8h-2.4V24h-2.9v-7.3h-2.5v-2.8h2.5v-2.1C14.3 9.3 15.8 8 18 8c1 0 1.9.1 2.2.1v2.6z"/></symbol><symbol id="kriziky" viewBox="0 0 411.7 793"><style>.st0{clip-path:url(#SVGID_2_)}.st1{fill:#c32a53}</style><clipPath id="SVGID_2_"><use xlink:href="#SVGID_1_" overflow="visible"/></clipPath><g class="st0"><path class="st1" d="M176.9 470.1l14.3-14.3 14.3 14.3.7-.7-14.3-14.3 14.3-14.4-.7-.7-14.3 14.4-14.3-14.4-.7.7 14.3 14.4-14.3 14.3zM176.9 587.5l14.3-14.3 14.3 14.3.7-.7-14.3-14.3 14.3-14.3-.7-.7-14.3 14.3-14.3-14.3-.7.7 14.3 14.3-14.3 14.3zM352.3 469.4L338 483.7l-14.4-14.3-.7.7 14.4 14.3-14.4 14.3.7.7 14.4-14.3 14.3 14.3.7-.7-14.3-14.3 14.3-14.3zM323.6 323.3L338 309l14.3 14.3.7-.7-14.3-14.3 14.3-14.4-.7-.7-14.3 14.4-14.4-14.4-.7.7 14.4 14.4-14.4 14.3zM118.1 382l14.4-14.3 14.3 14.3.7-.7-14.3-14.3 14.3-14.3-.7-.7-14.3 14.3-14.4-14.3-.7.7 14.4 14.3-14.4 14.3zM294.3 440.7l14.3-14.3 14.3 14.3.7-.7-14.3-14.3 14.3-14.3-.7-.7-14.3 14.3-14.3-14.3-.7.7 14.3 14.3-14.3 14.3zM264.9 558.2l14.4-14.4 14.3 14.4.7-.7-14.3-14.4 14.3-14.3-.7-.7-14.3 14.3-14.4-14.3-.7.7 14.4 14.3-14.4 14.4zM88.8 528.8l14.3-14.3 14.3 14.3.7-.7-14.3-14.3 14.3-14.4-.7-.7-14.3 14.4-14.3-14.4-.7.7 14.3 14.4-14.3 14.3zM.7 499.4L15 485.1l14.4 14.3.7-.7-14.4-14.3 14.4-14.3-.7-.7L15 483.7.7 469.4l-.7.7 14.3 14.3L0 498.7zM411 616.2l-14.3 14.3-14.3-14.3-.7.7 14.3 14.3-28.7 28.7-14.3-14.4-.7.7 14.3 14.3-14.3 14.3.7.7 14.3-14.3 14.3 14.3 14.3 14.3-14.3 14.3-14.3 14.3-14.3-14.1-.4.4.3-.3-14.3-14.3 14.3-14.3-.7-.7-14.2 14.1-14.3-14.3-14.3-14.3 14.3-14.3-.7-.7-14.3 14.3-28.7-28.7 14.3-14.3 14.3-14.3 14.3 14.3.7-.7-14.3-14.3 14.3-14.3-.7-.7-14.3 14.3-14.3-14.3-.7.7 14.3 14.3-14.3 14.3-14.3 14.3-14.3-14.3-14.3-14.3 14.3-14.3-.7-.7-14.3 14.3-14.3-14.3-.7.7 14.3 14.3-14.3 14.3.7.7 14.3-14.3 14.3 14.3 14.3 14.3-28.7 28.7-14.3-14.3-.7.7 14.3 14.3-14.3 14.3-14.3 14.3-28.7-28.7 14.3-14.3-.7-.7-14.3 14.3-14.3-14.3-14.3-14.3 14.3-14.3-.7-.7-14.3 14.3-14.3-14.3-.7.7 14.3 14.3-14.3 14.3-14.3 14.3-14.3-14.3-.7.7 14.3 14.3-28.7 28.7-14.3-14.3-14.3-14.3 14.3-14.3-.7-.7-14.3 14.3-28.7-28.7 14.3-14.3-.7-.7-14.3 14.3-14.3-14.3-.7.7 14.3 14.3-14.3 14.3L15 659.9.7 645.5l-.7.7 14.3 14.3L0 674.9l.4.4-.4.3 14.3 14.3L0 704.3l.3.3-.3.4 14.3 14.3L0 733.6l.4.4-.4.3 14.3 14.3L0 763l.4.4-.4.3L14.3 778 0 792.3l.7.7L15 778.7 29.4 793l.4-.4.4.4 14.3-14.3L58.7 793l.3-.3.3.3 14.3-14.3L88.1 793l.4-.4.4.4 14.3-14.3 14.3 14.3.3-.3.3.3 14.3-14.3 14.3 14.3.4-.4.4.4 14.3-14.3 14.3 14.3.3-.3.3.3 14.3-14.3 14.3 14.3.4-.4.4.4 14.3-14.3 14.3 14.3.4-.4.4.4 14.3-14.3 14.3 14.3.4-.4.4.4 14.3-14.3 14.3 14.3.3-.3.3.3 14.3-14.3 14.3 14.3.4-.4.4.4 14.3-14.3 14.3 14.3.4-.4.4.4 14.3-14.3 14.3 14.3.4-.4.4.4 14.3-14.3L411 793l.7-.7-14.3-14.3 14.3-14.3-.4-.4.4-.4-14.3-14.3 14.3-14.3-.7-.7-14.3 14.3-14.3-14.3-.4.4.4-.4-14.4-14.3 14.3-14.3 14.3-14.3L411 705l.7-.7-14.3-14.3 14.3-14.3-.7-.7-14.3 14.3-14.3-14.3-14.4-14.4 28.7-28.7 14.3 14.3.7-.7-14.3-14.3 14.3-14.3-.7-.7zm-58.3 89.1l14 14-14 14-14-14 14-14zm-103.5 43.4l-14 14-14-14 14-14 14 14zM235.9 734l14-14 14 14-14 14-14-14zm43.4-15.4l-14-14 14-14 14 14-14 14zm14.6-13.3l14 14-14 14-14-14 14-14zm-15.3 14l-14 14-14-14 14-14 14 14zm-14-15.4l-14-14 14-14 14 14-14 14zm-.7.7l-14 14-14-14 14-14 14 14zm.7 30.1l14 14-14 14-14-14 14-14zm.7-.7l14-14 14 14-14 14-14-14zm28.6.7l14 14-14 14-14-14 14-14zm.7-.7l14-14 14 14-14 14-14-14zm14.7-14.7l14-14 14 14-14 14-14-14zm14 15.4l14 14-14 14-14-14 14-14zm.7-.7l14-14 14 14-14 14-14-14zm28.7.7l14 14-14 14-14-14 14-14zm-.8-30.1l-14 14-14-14 14-14 14 14zm-29-29l14.3 14.3-14.3 14.3-14.3 14.3-14.3-14.3-14.3-14.3 14.3-14.3 14.3-14.3 14.3 14.3zm-43.6-43.7l28.7 28.7-14.3 14.3-14.3 14.3-14.3-14.3-14.3-14.3 28.5-28.7zm-29.4 29.4l14 14-14 14-14-14 14-14zM235.2 676l14 14-14 14-14-14 14-14zm14 43.3l-14.3 14.3-14.3 14.3-14.3-14.3-.4.4.4-.4-14.3-14.3 14.3-14.3 14.3-14.3 28.6 28.6zm-204.8-.7l-14-14 14-14 14 14-14 14zm14.7-13.3l14 14-14 14-14-14 14-14zm-29.4-1.4l-14-14 14-14 14 14-14 14zm14 15.4l-14 14-14-14 14-14 14 14zm-14 15.4l14 14-14 14-14-14 14-14zm.7-.7l14-14 14 14-14 14-14-14zm28.7.7l14 14-14 14-14-14 14-14zm.7-.7l14-14 14 14-14 14-14-14zm14.6-14.7l14-14 14 14-14 14-14-14zm14 15.4l14 14-14 14-14-14 14-14zm.7-.7l14-14 14 14-14 14-14-14zm14.7-14.7l14-14 14 14-14 14-14-14zm14 15.4l14 14-14 14-14-14 14-14zm.7-.7l14-14 14 14-14 14-14-14zm28.6.7l14 14-14 14-14-14 14-14zm.4-1.1l-.4.4.4-.4-14.3-14.3 28.7-28.7 14.3 14.3 14.3 14.3-14.3 14.3-14.3 14.3-14.4-14.2zm29 1.1l14 14-14 14-14-14 14-14zm.7-.7l14-14 14 14-14 14-14-14zm28.7.7l14 14-14 14-14-14 14-14zm13.9-44.8l-14.3 14.3-14.3 14.3-14.3-14.3-14.3-14.3 28.7-28.7 28.5 28.7zm-72.3-43.7l14.3-14.3 14.3 14.3 14.3 14.3-28.7 28.7-14.3-14.3-14.3-14.3 14.4-14.4zm-15 15.1l14.3 14.3 14.3 14.3-28.7 28.7-14.3-14.3-14.3-14.3 28.7-28.7zm-15.4 43.3l-14 14-14-14 14-14 14 14zm-14.7-14.7l-14.3 14.3-14.3 14.3-14.3-14.3-14.3-14.3 28.7-28.7 28.5 28.7zm-72.3-43.7l14.3-14.3L73 660.6l-14.3 14.3-14.3 14.3-14.3-14.3-14.3-14.3 14.3-14.4zm-29 29.1l14-14 14 14-14 14-14-14zm0 29.3l14-14 14 14-14 14-14-14zm0 29.4l14-14 14 14-14 14-14-14zm0 29.3l14-14 14 14-14 14-14-14zM29.7 792l-14-14 14-14 14 14-14 14zm.7-28.7l14-14 14 14-14 14-14-14zM59.1 792l-14-14 14-14 14 14-14 14zm.7-28.7l14-14 14 14-14 14-14-14zM88.4 792l-14-14 14-14 14 14-14 14zm.7-28.7l14-14 14 14-14 14-14-14zm28.7 28.7l-14-14 14-14 14 14-14 14zm.7-28.7l14-14 14 14-14 14-14-14zm28.6 28.7l-14-14 14-14 14 14-14 14zm.7-28.7l14-14 14 14-14 14-14-14zm28.7 28.7l-14-14 14-14 14 14-14 14zm.7-28.7l14-14 14 14-14 14-14-14zm28.7 28.7l-14-14 14-14 14 14-14 14zm.7-28.7l14-14 14 14-14 14-14-14zm28.6 28.7l-14-14 14-14 14 14-14 14zm.7-28.7l14-14 14 14-14 14-14-14zm28.7 28.7l-14-14 14-14 14 14-14 14zm.7-28.7l14-14 14 14-14 14-14-14zm28.6 28.7l-14-14 14-14 14 14-14 14zm.7-28.7l14-14 14 14-14 14-14-14zm28.7 28.7l-14-14 14-14 14 14-14 14zm.7-28.7l14-14 14 14-14 14-14-14zm28.7 28.7l-14-14 14-14 14 14-14 14zm.7-28.7l14-14 14 14-14 14-14-14zM382 792l-14-14 14-14 14 14-14 14zm28.7-28.7l-14 14-14-14 14-14 14 14zM382 734.7l14 14-14 14-14-14 14-14zm-.7-.7l-14 14-14-14 14-14 14 14zM411.7 558.2l-.7-.7-14.3 14.3-14.3-14.3-.7.7 14.3 14.3-14.3 14.3.7.7 14.3-14.3 14.3 14.3.7-.7-14.3-14.3zM59.4 587.5l14.3-14.3 14.4 14.3.7-.7-14.4-14.3 14.4-14.3-.7-.7-14.4 14.3-14.3-14.3-.7.7L73 572.5l-14.3 14.3zM.7 411.4L15 397l14.4 14.4.7-.7-14.4-14.4L30.1 382l-.7-.7L15 395.6.7 381.3l-.7.7 14.3 14.3L0 410.7z"/></g><path class="st1" d="M29.7 396.6l-7.3-7.3v14.6zM323.3 426l-7.3-7.4v14.7zM308.6 440.6l7.4-7.3h-14.7zM176.5 455.3l7.3 7.3V448zM191.2 440.6l-7.3 7.4h14.6zM293.9 602.1l7.4 7.3v-14.6zM308.6 587.4l-7.3 7.4H316zM323.3 484.7l7.3 7.3v-14.7zM338 470l-7.4 7.3h14.7zM352.7 484.7l-7.4-7.4V492zM338 499.3l7.3-7.3h-14.7zM88.4 514l7.4 7.4v-14.7zM103.1 499.4l-7.3 7.3h14.6zM117.8 514l-7.3-7.3v14.7zM103.1 528.7l7.3-7.3H95.8zM176.5 572.7l7.3 7.4v-14.7zM191.2 558.1l-7.3 7.3h14.6zM205.9 572.7l-7.4-7.3v14.7zM404 580.1l7.4-7.4-7.4-7.3zM191.2 587.4l7.3-7.3h-14.7zM352.7 660.8l7.3 7.4v-14.7zM367.3 646.2l-7.3 7.3h14.7zM382 660.8l-7.3-7.3v14.7zM367.3 675.5l7.4-7.3H360zM352.7 719.5l7.3 7.4v-14.7zM367.3 704.9l-7.3 7.3h14.7zM352.7 748.9l7.3 7.3v-14.6zM382 748.9l7.4 7.3v-14.6zM396.7 734.2l-7.3 7.4H404zM382 719.5l-7.3-7.3v14.7zM367.3 734.2l7.4-7.3H360zM308.6 734.2l7.4-7.3h-14.7zM323.3 690.2l7.3 7.3v-14.7zM338 675.5l-7.4 7.3h14.7zM352.7 690.2l-7.4-7.4v14.7zM338 704.9l7.3-7.4h-14.7zM264.6 690.2l7.3 7.3v-14.7zM279.3 675.5l-7.4 7.3h14.7zM293.9 690.2l-7.3-7.4v14.7z"/><path class="st1" d="M279.3 704.9l7.3-7.4h-14.7zM235.2 748.9l7.4 7.3v-14.6zM249.9 734.2l-7.3 7.4h14.6zM264.6 748.9l-7.4-7.3v14.6zM249.9 763.6l7.3-7.4h-14.6zM147.1 748.9l7.4 7.3v-14.6zM117.8 748.9l7.3 7.3v-14.6zM161.8 734.2l-7.3 7.4h14.7zM176.5 748.9l-7.3-7.3v14.6zM161.8 763.6l7.4-7.4h-14.7zM147.1 778.3l7.4 7.3v-14.7zM161.8 763.6l-7.3 7.3h14.7zM176.5 778.3l-7.3-7.4v14.7zM154.5 785.6l7.3 7.3 7.4-7.3zM59.1 778.3l7.3 7.3v-14.7z"/><path class="st1" d="M73.8 763.6l-7.4 7.3h14.7zM88.4 778.3l-7.3-7.4v14.7zM66.4 785.6l7.3 7.3 7.4-7.3zM125.1 785.6l7.4 7.3 7.3-7.3zM29.7 748.9l7.3 7.3v-14.6zM44.4 734.2l-7.3 7.4h14.6zM59.1 748.9l-7.4-7.3v14.6zM44.4 763.6l7.3-7.4H37zM.4 778.3l7.3 7.3v-14.7zM15 763.6l-7.3 7.3h14.7zM29.7 778.3l-7.3-7.4v14.7zM7.7 785.6l7.3 7.3 7.4-7.3zM382 778.3l7.4 7.3v-14.7zM396.7 763.6l-7.3 7.3H404zM404 785.6l7.4-7.3-7.4-7.4zM389.4 785.6l7.3 7.3 7.3-7.3zM293.9 778.3l7.4 7.3v-14.7zM308.6 763.6l-7.3 7.3H316zM205.9 778.3l7.3 7.3v-14.7zM176.5 778.3l7.3 7.3v-14.7z"/><path class="st1" d="M220.5 763.6l-7.3 7.3h14.7zM249.9 763.6l-7.3 7.3h14.6zM323.3 778.3l-7.3-7.4v14.7zM301.3 785.6l7.3 7.3 7.3-7.3zM360 785.6l7.3 7.3 7.4-7.3zM264.6 690.2l-7.4-7.4v14.7zM249.9 704.9l7.3-7.4h-14.6zM161.8 704.9l7.4-7.4h-14.7zM396.7 704.9l7.3-7.4h-14.6zM117.8 660.8l7.3 7.4v-14.7zM132.5 646.2l-7.4 7.3h14.7zM147.1 660.8l-7.3-7.3v14.7zM205.9 660.8l-7.4-7.3v14.7zM132.5 675.5l7.3-7.3h-14.7zM117.8 719.5l7.3 7.4v-14.7zM132.5 704.9l-7.4 7.3h14.7zM147.1 719.5l-7.3-7.3v14.7zM132.5 734.2l7.3-7.3h-14.7zM73.7 734.2l7.4-7.3H66.4zM88.4 690.2l7.4 7.3v-14.7zM103.1 675.5l-7.3 7.3h14.6zM117.8 690.2l-7.3-7.4v14.7zM103.1 704.9l7.3-7.4H95.8zM29.7 690.2l7.3 7.3v-14.7zM44.4 675.5l-7.3 7.3h14.6zM59.1 690.2l-7.4-7.4v14.7zM44.4 704.9l7.3-7.4H37.1zM29.7 719.5l-7.3-7.3v14.7zM15 704.9l7.4-7.4H7.7zM279.3 616.8l-7.4 7.3h14.7zM293.9 631.5l-7.3-7.4v14.7zM279.3 646.1l7.3-7.3h-14.7zM44.4 616.8l-7.3 7.3h14.6zM59.1 631.5l-7.4-7.4v14.7zM44.4 646.1l7.3-7.3H37.1z"/></symbol><symbol id="logo-center" viewBox="0 0 369.6 223"><style>.st0{clip-path:url(#SVGID_2_);fill:#c32a53}</style><clipPath id="SVGID_2_"><use xlink:href="#SVGID_1_" overflow="visible"/></clipPath><path class="st0" d="M136.3 28c-.2-7.8-.5-12.5-.8-14-.2-.9.3-1.3 1.4-1.3 1.4.2 2.9.5 4.2.8 1.5.6 1.7 1.4.8 2.2-.9.6-1.2 2.5-1.1 5.6v5.6c.6-.2 1.3-.3 2.1-.5 2.7-1.1 4.1-1.2 4.2-.6 0 .7.1 1.6.2 2.7.2 1.2-.5 2-1.8 2.4-1.5.7-3.1 1.4-4.8 2.1-.1 2.9-.1 5.2 0 6.8 2.4-1.7 3.9-2.7 4.9-3 .3-.1.5.2.8.8 0 .8-.3 1.4-.8 2-3 3.3-5.8 6-8.6 8.2-3 2.2-4.9 3.9-5.8 5.1-.8 1.1-2 .9-3.4-.5-1.7-1.4-2.5-2.4-2.3-2.8 0-.5.5-.9 1.4-1.4 3-1.6 5.9-3.3 8.9-5.3 0-.2.1-.5.2-.8 0-1.1 0-3.6.1-7.9-3.1.9-5 1.8-5.6 2.7-.6.8-1.5-.1-2.7-3-1.4-2.7-1.6-3.9-.7-3.8.5.1 3.4-.6 9.2-2.1m10.5 17.1c2.7-6.4 3.7-13.1 3.5-20.3-.6-.5-.5-1 .2-1.4 3.6 0 6.9-.7 10.2-2 .5-.1 1-.4 1.6-.6-.8-3-1.3-5.7-1.6-8.3-.8-6-1.7-9.6-2.4-10.6-.9-1.8 0-2.2 2.7-1.3 2.5 1.1 3.5 2 3 2.9-1 1.7-.4 7.1 2.2 15.9.5-.2 1.2-.3 2-.5 1.1-.2 1.7-.6 2.2-1.3.3-.6 1.2.2 2.7 2 1.4 2 1.1 3.3-.7 3.8-1.4.3-3 .8-4.7 1.4 1.5 5.4 3.2 10.2 5.2 14.4 2-3.3 2.8-6.8 2.8-10.2 0-.9 1-1.1 3-.7 1.9.5 2.7.9 2.6 1.3-.5.5-1.1 2-1.7 4.5-.8 2.6-2 4.9-3.9 6.8-.5.6-1 1.1-1.3 1.5.9 1.9 1.8 3.7 3 5.2 4 6.2 7.1 9.2 9.4 8.9.6 0 1.2-1.8 1.9-5.6.6-3.8.3-7.7-.8-11.7-.2-.9 0-1 .5-.3 1.5 3.1 2.7 6.5 3.3 10.1.8 3.6 1 6.2.8 8-.3 1.8-.4 3.4-.1 4.7.8 1.6.3 2.2-1.1 1.6-4.2-.8-8.6-3.8-13.3-8.9-2.1-2.2-3.9-4.6-5.5-7.4-2.1 1.6-3.6 2.7-4.3 3-1.1.6-2.7 1-4.8 1.1-1.1.1-1.3-.2-.4-1.1 3-2.7 5.4-4.9 7.2-7-1.4-2.7-2.8-5.8-3.9-9-1-2.7-1.9-5.2-2.6-7.9-.8.3-1.4.5-1.9.6-1.5.3-3.1 1-4.8 2-1.6.5-2.7 1.4-3 2.7-.5 1.2-.8 2.5-1 3.6.7-.1 1.8-.5 3.5-1.1 1.6-.8 2.7-1.1 3.4-1.1 3.9 1.1 5.6 2.2 5.2 3.1-.6 1-1 1.7-1 2.2-.1.5-.5 2-.9 4.5-.4 2.4-1.1 5-2 7.7-1.1 2.8-1.7 4.2-1.8 4.1-3-1.1-5.8-3.1-8.5-6.3 0 .9-.4 1.7-1.1 2.5-4.5 3.5-8.6 5.5-12.3 5.8-1.7.3-2-.1-.6-1.1 4.6-2.9 7.7-6.3 9.9-10.2m5-5.7c-.5 1.5-.9 3.2-1.3 4.8-.3.6-.3 1.3-.1 1.9 2.9 1.6 4.9 2.2 6.3 1.7.5-.4 1.1-2 1.9-4.9.6-2.9.6-4.8.2-5.6-.6-.3-2-.2-3.9.8-1.5.6-2.5 1-3.1 1.3M172.5 15c-1.6-2.1-2.3-4-2.1-5.7.3-3.3 1.4-4.3 3.3-3.3.4.1 1.1.8 2 1.7.7 1 1.6 1.7 2.7 2.2.8.6 1.7 1.2 2.5 1.7.3.2.3.9.1 1.8-.5 1-1.4 1.5-2.8 1.6-1.7.1-2.9.3-3.6.5-1.2.3-1.9.1-2.1-.5M205.9 19.4c3.3-4.4 6.3-9.9 9.2-16.3.3-.7.6-1.4 1.1-2.4.3-.8 1.6-.5 4.1.8 2.3 1.3 2.7 2.3 1.5 2.8-1.7 1.4-3.6 3.7-5.7 6.7-2.3 3-3.7 5.2-4.4 6.4-.6.8-1 1.5-1.1 2.4 1.5.6 3 1.4 4.5 2.1.8.5 1 1.1.7 2-.4 1.2-.7 3.3-.5 6.2 0 2.9-.1 5.2-.3 7.1-.1.8-.1 1.7.3 2.3.6 1.1-.8 1.4-4.2.8-.7-.2-1-.7-.7-1.3.2-2.4.3-5.6.2-9.5-.2-2.7-.4-4.9-.6-6.4-.6.9-1.5 1.7-2.7 2.5-2.1 1.2-4.6 2.5-7.5 3.9-1.9.8-2.4.4-1.2-1.3 1.8-2.5 4.2-5.4 7.3-8.8m23.7 40.1c-10 .7-17.9 1.7-23.4 3.3-.8.5-1.8-.5-3-2.8-1.4-2.3-.6-3 2.4-2.2 5.5-.9 11.7-1.7 19-2.7 0-.5 0-1.3.2-2.2 0-1 0-2.1.1-3.3-3.9.2-6.2.8-7.1 1.7-.6.8-1.2-.1-1.8-2.8-.8-2.5-.8-3.6-.1-3.3.3.1 3.3-.2 9.3-.9v-4c-.9-2.4.1-3 3-2.2 2.8.9 3.9 1.9 3.3 2.8-.2.2-.3 1.1-.5 2.7 1.5-.1 3.2-.3 5.2-.6 2.9-.5 4.2-.5 4.2.2-.2.5-.2 1.4-.2 2.5-.1 1.1-.9 1.7-2.1 2-2.2.6-4.8 1.1-7.4 1.5-.3 2.8-.4 4.6-.1 5.4 4.5-.5 8.7-.7 12.9-.7 4 0 6.4-.2 7.3-.5.5-.2.8.3 1.2 1.2.3.9.8 1.6 1.4 2 .6.5.8 1.6.7 3.3-.1 1.7-.8 2.3-1.8 1.7-6.6-2-14-2.5-22.7-2.1m-9-27.1c2.3-1.7 5-3.6 8.4-5.5.3-.1.5-.1.6.1.2.2.1.4-.1.6-2.5 3.3-4.1 6.3-4.7 8.5-.2 1.7-.7 2.3-1.6 1.8-1-.5-2-1.3-2.8-2.8-1-1.4-1.3-2.1-.8-2.3.3 0 .5-.2 1-.4m10.7-27.8c4.2-1.4 7.7-1.7 10.6-1.2 4.4 1.5 6.2 2.7 5.4 3.5-.9.5-2 1.8-3 4.1-1.2 2.3-1.8 3.9-1.7 4.9-.3.8-.8 1-1.4.6-1.1-.1-2-.1-2.8-.1-.1.2-.2.3-.1.3-.3.5-.5 1.5-.7 3.1 2.8-.5 5.5-.9 8.1-1.1 2.6-.2 4-.4 4.6-.6.3-.1.6.2 1.1.8.3.8.6 1.3 1.2 1.5.5.3.7 1.1.7 2.7 0 1.5-.5 2-1.4 1.4-4.1-.9-9-1.1-14.6-.5-.2 2.2-.2 4.2-.2 6.1 0 2.5.1 4.9.2 7 .3 2.7-.9 3.4-3.4 2.3-3-1.1-3.9-2-2.7-2.7.9-.5 1.4-1.8 1.7-4.1 0-1.9-.1-4.6-.2-8-4.2.7-7.7 1.5-10.3 2.4-.6.3-1.4-.3-2.4-2-1-1.6-.5-2.1 1.6-1.7 3.1-.8 6.7-1.7 10.9-2.6-.2-1.5-.2-2.7-.2-3.6-1.1.3-1.9.7-2.5 1-.4.2-.7.2-.8-.2-.2-.4-.6-.9-1.3-1.7-2.5-2.4-4.2-5.2-4.7-8.2-.6-.8-.5-1.2.5-1.4.9-.1 3.4-.7 7.8-2m6.1 7.6c1.7-1.6 1.9-3.2.9-4.7-.8-.8-2.4-.8-4.5-.1-2.5.8-4 1.4-4.3 2-.5 1.8 0 3.1 1.4 4 .2.2 1.1.2 3-.2 1.6-.2 2.7-.5 3.5-1m3.6 15c-.8-.8-.5-1.1.8-1.1 3.5.7 6.6 1.6 9.3 2.9.5.2.4 1.5-.1 3.8-.5 2.4-1.1 3.7-1.8 3.9-.7.3-1.2.1-1.5-.6-.4-.6-1-1.4-1.6-2.6-2.2-2.6-3.9-4.7-5.1-6.3M114.2 99H69v32h-4v2.7h4v25.4l-3.7 6h18.8v-31.4h15v31.4h18.8l-3.7-6v-25.4h4V131h-4V99zm-30.1 2.6h15V131h-15v-29.4zM27.5 99l3.7 6v57.5H18.8v-17.7H0l3.7 5.9v14.4h42.6V105l3.7-6zM295.6 99h-23l4 6.4v25.7h-4v2.6h4v25.2l-4 6.4h23l-4-6.4v-25.2h4v-2.6h-4v-25.7zM166.4 117.5h18.8l-3.7-6V99h-45.2v34.4h30.1v29.1h-15V147h-18.8l3.7 5.6v12.5h45.2v-34.4h-30.1v-29.1h15zM259 99h-19.5L229 117.8 218.4 99h-19.5l3.7 6v54.1l-3.7 6h18.8V103l9.8 17.5-7.2 12.9h17.4l-7.2-12.9 9.8-17.5v62.1H259l-3.7-6V105l3.7-6zm-25.8 31.7h-8.6l4.3-7.6 4.3 7.6zM365.9 159.1V105l3.7-6h-18.7v60.9L329.2 99h-19.7l3.7 6v54.1l-3.7 6h18.8v-60.9l21.6 60.9h19.7zM119.2 220h3.3v-6.4c0-3.9 2.7-6.2 8.3-5.4v2.8c-3.2-.6-5.2.5-5.2 2.6v6.4h4.1v2.7h-10.5V220zM145.2 218.1c-.3 3.2-2.5 4.9-6.1 4.9-3.7 0-6.2-1.9-6.2-5.6v-3.8c0-3.7 2.4-5.6 6.2-5.6 3.7 0 6.1 1.9 6.1 5.6v2.9h-9.1v1.1c0 1.7 1.1 2.7 3 2.7s2.8-.9 3-2.2h3.1zm-9.1-4h6v-.7c0-1.8-1.2-2.7-3-2.7s-3 .9-3 2.7v.7zM155 217.1l-2.8-.6c-2.5-.5-4.1-1.8-4.1-4.1 0-2.9 2.1-4.3 5.9-4.3 3.7 0 5.8 1.5 5.8 4.4v.3h-3.1v-.2c0-1.3-.9-1.9-2.7-1.9-1.8 0-2.7.6-2.7 1.7 0 .8.5 1.3 1.8 1.6l2.9.6c2.5.5 4.1 1.8 4.1 4.1 0 3-2.3 4.5-6 4.5s-6-1.5-6-4.4v-.3h3.1v.2c0 1.3 1.1 2 2.9 2 1.8 0 2.9-.6 2.9-1.8-.2-1-.8-1.6-2-1.8M168.6 217.7c0 2.4.8 2.8 4 2.5v2.6c-5.9 1-7.1-1.2-7.1-5.2V211h-3.6v-2.7h10.8v2.7h-4v6.7zM180 214.1c1.7 0 3.1.4 4 1.3v-2.3c0-1.6-1-2.5-2.7-2.5-1.8 0-2.7.6-2.7 2.2h-3.1c0-3.1 2-4.7 5.8-4.7 3.5 0 5.8 1.8 5.8 5.2v4.7c0 2.1.6 2.5 2.2 2.2v2.6c-2.7.6-4.2-.1-4.8-1.7-.9 1.3-2.5 1.9-4.5 1.9-3.1 0-5.2-1.5-5.2-4.5.1-2.9 2.1-4.4 5.2-4.4m.9 6.2c1.8 0 3.1-.6 3.1-1.8 0-1.2-1.2-1.9-3.1-1.9-1.8 0-3 .6-3 1.9.1 1.3 1.2 1.8 3 1.8M194.7 208.3v9.3c0 1.8 1.2 2.7 3 2.7s3-.9 3-2.7v-9.3h3.1v9.1c0 3.7-2.4 5.6-6.1 5.6-3.7 0-6.1-1.9-6.1-5.6v-9.1h3.1zM205.9 220h3.3v-6.4c0-3.9 2.7-6.2 8.3-5.4v2.8c-3.2-.6-5.2.5-5.2 2.6v6.4h4.1v2.7h-10.5V220zM224.4 214.1c1.7 0 3.1.4 4 1.3v-2.3c0-1.6-1-2.5-2.7-2.5-1.8 0-2.7.6-2.7 2.2h-3.1c0-3.1 2-4.7 5.8-4.7 3.5 0 5.8 1.8 5.8 5.2v4.7c0 2.1.6 2.5 2.2 2.2v2.6c-2.7.6-4.2-.1-4.8-1.7-.9 1.3-2.5 1.9-4.5 1.9-3.1 0-5.2-1.5-5.2-4.5 0-2.9 2-4.4 5.2-4.4m.9 6.2c1.8 0 3.1-.6 3.1-1.8 0-1.2-1.2-1.9-3.1-1.9-1.8 0-3 .6-3 1.9 0 1.3 1.1 1.8 3 1.8M236.1 213.6c0-3.7 2.4-5.6 6.2-5.6 3.7 0 6.1 1.9 6.1 5.6v9.1h-3.1v-9.3c0-1.8-1.2-2.7-3-2.7s-3 .9-3 2.7v9.3h-3.1v-9.1zM257.3 217.7c0 2.4.8 2.8 4 2.5v2.6c-5.9 1-7.1-1.2-7.1-5.2V211h-3.6v-2.7h10.8v2.7h-4v6.7z"/></symbol><symbol id="logo-small" viewBox="0 0 739.2 132.8"><style>.st0{fill:#c32a53}</style><path class="st0" d="M168.2 5.3h30.1v58.8h-30.1V5.3zM138.1.1v64h-8v5.4h8v50.8l-7.4 12h37.5V69.5h30.1v62.7h37.5l-7.4-11.9V69.5h8v-5.4h-8V.1h-90.3zM55 .1l7.4 12V127H37.5V91.6H0l7.4 11.9v28.7h85.1V12.1l7.5-12zM545.2 0l7.9 12.8v51.4h-7.9v5.2h7.9V120l-7.9 12.8h46l-8-12.9V69.4h8v-5.2h-8V12.8l8-12.8zM272.7.1v68.7h60.2V127h-30.1V96.1h-37.6l7.5 11.2v24.9H363V63.6h-60.2V5.3h30.1V37h37.5L363 25.1V.1zM457.9 48.3l8.5 15.3h-17.1l8.6-15.3zm21-48.2l-21 37.6L436.8.1h-39.1l7.4 12v108.2l-7.4 11.9h37.5V8l19.6 35-14.5 25.8h34.9L460.8 43l19.6-35v124.2h37.5l-7.4-12V12.1l7.4-12h-39zM701.7.1v121.8L658.4.1h-39.3l7.4 11.9v108.3l-7.4 11.9h37.5V10.5l43.3 121.7h39.3l-7.4-11.9V12L739.2.1z"/></symbol></svg>