<?xml version="1.0" encoding="UTF-8"?><!DOCTYPE svg PUBLIC "-//W3C//DTD SVG 1.1//EN" "http://www.w3.org/Graphics/SVG/1.1/DTD/svg11.dtd"><svg xmlns="http://www.w3.org/2000/svg" xmlns:xlink="http://www.w3.org/1999/xlink"><defs><path id="SVGID_1_" d="M0 0h32v32H0z"/><path id="SVGID_1_" d="M0 0h411.7v793H0z"/><path id="SVGID_1_" d="M0 0h369.6v223H0z"/></defs><symbol id="bravcove" viewBox="0 0 60 60"><g fill="currentColor"><path d="M27.56 32.857l-4.448 2.812.498 5.013 3.062 2.138h6.657l3.062-2.138.498-5.013-4.448-2.812H27.56zm8.189 7.45l-2.634 1.839h-6.231l-2.633-1.839-.426-4.289 3.931-2.484h4.489l3.931 2.484-.427 4.289z"/><path d="M24.961 36.758l.21 2.105.671-.066-.168-1.692 1.306-.826-.361-.569zM34.157 38.797l.671.066.21-2.105-1.658-1.048-.36.569 1.306.826z"/><path d="M38.72 19.158l-3.824 3.346v1.84l-2.183-1.014-5.284-.031-2.325 1.045v-1.84l-3.824-3.346h-5.746v8.373l2.753 1.765-2.064 3.766 1.188 9.607 5.709 4.191h13.76l5.709-4.191 1.187-9.607-2.064-3.766 2.754-1.765v-8.373H38.72zm5.06 8.01l-2.959 1.906 2.259 4.12-1.125 9.103-5.296 3.889H23.34l-5.296-3.889-1.125-9.103 2.259-4.12-2.959-1.906v-7.336h4.808l3.402 2.979v2.591l3.074-1.428h4.994l3.074 1.428v-2.591l3.403-2.979h4.807v7.336z"/><path d="M36.514 25.861l3.606 2.433 2.516-1.63v-5.846h-3.184l-2.938 2.473v2.57zm.674-2.257l2.51-2.11h2.263v4.804l-1.834 1.188-2.938-1.981v-1.901zM23.459 23.291l-2.938-2.473h-3.185v5.846l2.516 1.63 3.606-2.433v-2.57zm-.675 2.212l-2.939 1.981-1.833-1.188v-4.804h2.263l2.509 2.11v1.901z"/><circle cx="25.314" cy="30.076" r=".609"/><circle cx="34.685" cy="30.076" r=".609"/></g></symbol><symbol id="cinske_fondue" viewBox="0 0 60 60"><g fill="currentColor"><path d="M13.589 31.338v5.531l3.938 5.921 8.342 4.104h8.263l8.455-4.104 3.823-5.923v-5.529H13.589zm32.146.676v4.549H14.264v-4.549h31.471zm-3.612 10.252l-8.146 3.955h-7.951l-8.039-3.955-3.344-5.029h30.725l-3.245 5.029zM23.798 28.23l-3.004-2.964 3.004-2.964-.474-.481-3.491 3.445 3.491 3.445zM39.451 28.711l.474-.481-3.004-2.964 3.004-2.964-.474-.481-3.49 3.445zM27.355 28.711l.474-.48-3.003-2.965 3.246-3.204-3.489-3.445-.474.48 3.003 2.965-3.246 3.204z"/><path d="M31.929 25.266l3.49 3.445.474-.481-3.004-2.964 3.247-3.204-3.49-3.446-.474.482 3.004 2.964z"/><path d="M27.896 25.266l3.491 3.445.474-.481-3.004-2.964 3.247-3.204-3.247-3.205 3.004-2.963-.474-.481-3.491 3.444 3.248 3.205zM17.584 48.861l-2.39 3.315h29.587l-2.248-3.315H17.584zm-1.071 2.641l1.417-1.965h24.247l1.333 1.965H16.513z"/></g></symbol><symbol id="dezerty" viewBox="0 0 60 60"><path fill="currentColor" d="M44.206 31.336v-1.213l-3.563-3.562h-4.759l-3.366-3.366h-2.182v-9.693l-9.47 4.198 8.796 3.899v1.596H27.48l-3.366 3.366h-4.759l-3.562 3.562v1.213H13.59v5.533l3.935 5.92 8.343 4.105h8.261l8.457-4.105 3.824-5.922v-5.531h-2.204zM22.531 17.699l7.131-3.16v6.321l-7.131-3.161zm21.001 12.703v.934H32.716v-.934l3.167-3.168h4.48l3.169 3.168zM27.76 23.869h4.479l3.028 3.028-3.225 3.226v1.213h-4.084v-1.213l-3.226-3.226 3.028-3.028zm-11.292 6.533l3.167-3.168h4.48l3.167 3.168v.934H16.468v-.934zm29.267 1.609v4.55h-31.47v-4.55h31.47zm-3.613 10.253l-8.148 3.957h-7.949l-8.039-3.957-3.343-5.028h30.725l-3.246 5.028z"/></symbol><symbol id="dim_sum" viewBox="0 0 60 60"><g fill="currentColor"><path d="M35.92 30.545l.669-.086-.273-2.102-1.178-1.92-.57.361 1.088 1.72zM36.446 26.743l1.767.406-.151.658-1.767-.406zM28.855 28.508l1.455-1.813.635-2.295-.652-.171-.554 2.099-1.409 1.758zM27.213 26.429l1.62-.975.348.579-1.62.974zM32.607 27.917l-.586.333-1.124-1.973.585-.333zM22.25 27.799l-.913 2.058.616.274.943-2.123.029-2.379h-.675zM19.717 28.627l1.435-1.443.478.475-1.435 1.443zM24.655 28.737l-1.232-1.308.49-.462 1.233 1.308z"/><path d="M42.895 31.336l.294-1.396-2.339-3.592-4.025-.847-3.392-1.086-.199 1.891-.549-.942-1.471-3.242-2.881 2.068-3.381 2.024-.098-.099-2.251-2.76-2.255 2.734-2.933 2.934v2.312H13.59v5.533l3.936 5.92 8.342 4.105h8.263l8.455-4.105 3.824-5.922v-5.531h-3.515zm-8.885-6.027l2.642.844 3.785.799 2.034 3.123-.266 1.262h-8.087l.638-2.418-.954-1.638.208-1.972zm-5.311-.554l2.24-1.606 1.147 2.525 1.946 3.342-.612 2.32h-5.656v-2.312l-2.318-2.317 3.253-1.952zm-10.611 4.547l2.757-2.759 1.754-2.125 1.754 2.148 2.735 2.735v2.034h-9v-2.033zm27.648 2.71v4.549H14.265v-4.549h31.471zm-3.614 10.254l-8.146 3.955h-7.951l-8.038-3.955-3.344-5.03H45.37l-3.248 5.03z"/></g></symbol><symbol id="hovadzie" viewBox="0 0 60 60"><g fill="currentColor"><path d="M26.608 39.776l-1.125-1.698.562-.373 1.126 1.698z"/><path d="M47.457 23.13l-2.562-2.565h-4.729l-2.085 2.089-.543-.544 2.527-2.528v-4.129l-.576-.237-4.927 4.955h-9.124l-4.927-4.955-.577.237v4.129l2.527 2.528-.543.544-2.086-2.089h-4.728l-2.561 2.565 2.561 2.567h4.251v6.764l1.995 4.064-1.168 1.174v4.381l3.101 3.1H24.6v.592l.909 1.112h8.983l.908-1.112v-.592h1.318l3.101-3.1v-4.381l-1.169-1.175 1.995-4.063v-6.764h4.251l2.561-2.567zm-33.961 0l1.888-1.892h4.169l1.888 1.892-1.888 1.893h-4.168l-1.889-1.893zm21.229 22.401l-.554.678h-8.343l-.554-.678v-.351h9.451v.351zm4.419-3.73l-2.705 2.704H23.562l-2.706-2.704v-3.822l2.706-2.721h12.875l2.706 2.721v3.822zm.825-9.496l-1.823 3.714-1.427-1.435h-6.38V20.901h-.675v13.683h-6.381l-1.429 1.436-1.824-3.715v-6.806l3.385-3.39-2.807-2.807V16.27l4.548 4.574h9.686l4.548-4.574v3.033l-2.806 2.807 3.385 3.391v6.804zm.478-7.283l-1.888-1.893 1.888-1.892h4.169l1.888 1.892-1.889 1.893h-4.168z"/><path d="M33.393 39.777l-.562-.373 1.128-1.697.561.373z"/><circle cx="24.027" cy="29.883" r=".609"/><circle cx="35.972" cy="29.883" r=".609"/></g></symbol><symbol id="hydina" viewBox="0 0 60 60"><g fill="currentColor"><path d="M27.692 35.979l-.478-1.758.65-.177.479 1.758zM31.652 35.803l.478-1.76.65.178-.477 1.759z"/><circle cx="24.535" cy="28.486" r=".608"/><circle cx="35.425" cy="28.486" r=".608"/><path d="M39.02 24.411l-1.989-1.603 1.43-1.43V18.85l-1.788-1.788h-2.53l-1.112 1.112V16.6l-1.788-1.787h-2.528L26.927 16.6v1.574l-1.113-1.112h-2.529l-1.787 1.788v2.528l1.447 1.448-1.965 1.584-2.977 17.088 4.56 5.471h1.813v1.984l1.74 1.738h2.458l1.405-1.402 1.403 1.402h2.459l1.74-1.738V46.97h1.855l4.56-5.471-2.976-17.088zm-16.848-5.282l1.392-1.392h1.97l1.491 1.49.576-.238V16.88l1.393-1.393h1.97l1.393 1.393v2.109l.576.238 1.491-1.49h1.97l1.393 1.392V21.1l-1.393 1.392h-2.199l-4.214 2.407-4.216-2.407h-2.199L22.172 21.1v-1.971zm6.124 30.889h-1.9l-1.345-1.344v-1.883l3.289-2.722 1.263 4.644-1.307 1.305zm1.685-2.484l-3.665-13.471 2.31-2.387 2.717.002 2.339 2.385-3.701 13.471zm4.927 1.14l-1.346 1.344h-1.9l-1.305-1.304 1.276-4.645 3.275 2.721v1.884zm2.213-2.379h-1.754l-3.538-2.94 2.606-9.486-2.809-2.864-3.285-.003-2.776 2.868 2.58 9.485-3.553 2.94h-1.713l-4.157-4.988 2.879-16.529 1.999-1.61h1.984l4.396 2.508 4.393-2.508H36.4l1.999 1.61 2.879 16.529-4.157 4.988z"/></g></symbol><symbol id="ico-chinese-fb" viewBox="0 0 26 21"><image width="26" height="21" xlink:href="48D517CF.jpg" transform="scale(.9999)" overflow="visible"/></symbol><symbol id="ico-fb" viewBox="0 0 32 32"><style>.st0{clip-path:url(#SVGID_2_);fill:#444}</style><clipPath id="SVGID_2_"><use xlink:href="#SVGID_1_" overflow="visible"/></clipPath><path class="st0" d="M16 0C7.2 0 0 7.2 0 16s7.2 16 16 16 16-7.2 16-16S24.8 0 16 0m4.2 10.7h-1.5c-1.2 0-1.4.6-1.4 1.4v1.8h2.8l-.4 2.8h-2.4V24h-2.9v-7.3h-2.5v-2.8h2.5v-2.1C14.3 9.3 15.8 8 18 8c1 0 1.9.1 2.2.1v2.6z"/></symbol><symbol id="kriziky" viewBox="0 0 411.7 793"><style>.st0{clip-path:url(#SVGID_2_)}.st1{fill:#c32a53}</style><clipPath id="SVGID_2_"><use xlink:href="#SVGID_1_" overflow="visible"/></clipPath><g class="st0"><path class="st1" d="M176.9 470.1l14.3-14.3 14.3 14.3.7-.7-14.3-14.3 14.3-14.4-.7-.7-14.3 14.4-14.3-14.4-.7.7 14.3 14.4-14.3 14.3zM176.9 587.5l14.3-14.3 14.3 14.3.7-.7-14.3-14.3 14.3-14.3-.7-.7-14.3 14.3-14.3-14.3-.7.7 14.3 14.3-14.3 14.3zM352.3 469.4L338 483.7l-14.4-14.3-.7.7 14.4 14.3-14.4 14.3.7.7 14.4-14.3 14.3 14.3.7-.7-14.3-14.3 14.3-14.3zM323.6 323.3L338 309l14.3 14.3.7-.7-14.3-14.3 14.3-14.4-.7-.7-14.3 14.4-14.4-14.4-.7.7 14.4 14.4-14.4 14.3zM118.1 382l14.4-14.3 14.3 14.3.7-.7-14.3-14.3 14.3-14.3-.7-.7-14.3 14.3-14.4-14.3-.7.7 14.4 14.3-14.4 14.3zM294.3 440.7l14.3-14.3 14.3 14.3.7-.7-14.3-14.3 14.3-14.3-.7-.7-14.3 14.3-14.3-14.3-.7.7 14.3 14.3-14.3 14.3zM264.9 558.2l14.4-14.4 14.3 14.4.7-.7-14.3-14.4 14.3-14.3-.7-.7-14.3 14.3-14.4-14.3-.7.7 14.4 14.3-14.4 14.4zM88.8 528.8l14.3-14.3 14.3 14.3.7-.7-14.3-14.3 14.3-14.4-.7-.7-14.3 14.4-14.3-14.4-.7.7 14.3 14.4-14.3 14.3zM.7 499.4L15 485.1l14.4 14.3.7-.7-14.4-14.3 14.4-14.3-.7-.7L15 483.7.7 469.4l-.7.7 14.3 14.3L0 498.7zM411 616.2l-14.3 14.3-14.3-14.3-.7.7 14.3 14.3-28.7 28.7-14.3-14.4-.7.7 14.3 14.3-14.3 14.3.7.7 14.3-14.3 14.3 14.3 14.3 14.3-14.3 14.3-14.3 14.3-14.3-14.1-.4.4.3-.3-14.3-14.3 14.3-14.3-.7-.7-14.2 14.1-14.3-14.3-14.3-14.3 14.3-14.3-.7-.7-14.3 14.3-28.7-28.7 14.3-14.3 14.3-14.3 14.3 14.3.7-.7-14.3-14.3 14.3-14.3-.7-.7-14.3 14.3-14.3-14.3-.7.7 14.3 14.3-14.3 14.3-14.3 14.3-14.3-14.3-14.3-14.3 14.3-14.3-.7-.7-14.3 14.3-14.3-14.3-.7.7 14.3 14.3-14.3 14.3.7.7 14.3-14.3 14.3 14.3 14.3 14.3-28.7 28.7-14.3-14.3-.7.7 14.3 14.3-14.3 14.3-14.3 14.3-28.7-28.7 14.3-14.3-.7-.7-14.3 14.3-14.3-14.3-14.3-14.3 14.3-14.3-.7-.7-14.3 14.3-14.3-14.3-.7.7 14.3 14.3-14.3 14.3-14.3 14.3-14.3-14.3-.7.7 14.3 14.3-28.7 28.7-14.3-14.3-14.3-14.3 14.3-14.3-.7-.7-14.3 14.3-28.7-28.7 14.3-14.3-.7-.7-14.3 14.3-14.3-14.3-.7.7 14.3 14.3-14.3 14.3L15 659.9.7 645.5l-.7.7 14.3 14.3L0 674.9l.4.4-.4.3 14.3 14.3L0 704.3l.3.3-.3.4 14.3 14.3L0 733.6l.4.4-.4.3 14.3 14.3L0 763l.4.4-.4.3L14.3 778 0 792.3l.7.7L15 778.7 29.4 793l.4-.4.4.4 14.3-14.3L58.7 793l.3-.3.3.3 14.3-14.3L88.1 793l.4-.4.4.4 14.3-14.3 14.3 14.3.3-.3.3.3 14.3-14.3 14.3 14.3.4-.4.4.4 14.3-14.3 14.3 14.3.3-.3.3.3 14.3-14.3 14.3 14.3.4-.4.4.4 14.3-14.3 14.3 14.3.4-.4.4.4 14.3-14.3 14.3 14.3.4-.4.4.4 14.3-14.3 14.3 14.3.3-.3.3.3 14.3-14.3 14.3 14.3.4-.4.4.4 14.3-14.3 14.3 14.3.4-.4.4.4 14.3-14.3 14.3 14.3.4-.4.4.4 14.3-14.3L411 793l.7-.7-14.3-14.3 14.3-14.3-.4-.4.4-.4-14.3-14.3 14.3-14.3-.7-.7-14.3 14.3-14.3-14.3-.4.4.4-.4-14.4-14.3 14.3-14.3 14.3-14.3L411 705l.7-.7-14.3-14.3 14.3-14.3-.7-.7-14.3 14.3-14.3-14.3-14.4-14.4 28.7-28.7 14.3 14.3.7-.7-14.3-14.3 14.3-14.3-.7-.7zm-58.3 89.1l14 14-14 14-14-14 14-14zm-103.5 43.4l-14 14-14-14 14-14 14 14zM235.9 734l14-14 14 14-14 14-14-14zm43.4-15.4l-14-14 14-14 14 14-14 14zm14.6-13.3l14 14-14 14-14-14 14-14zm-15.3 14l-14 14-14-14 14-14 14 14zm-14-15.4l-14-14 14-14 14 14-14 14zm-.7.7l-14 14-14-14 14-14 14 14zm.7 30.1l14 14-14 14-14-14 14-14zm.7-.7l14-14 14 14-14 14-14-14zm28.6.7l14 14-14 14-14-14 14-14zm.7-.7l14-14 14 14-14 14-14-14zm14.7-14.7l14-14 14 14-14 14-14-14zm14 15.4l14 14-14 14-14-14 14-14zm.7-.7l14-14 14 14-14 14-14-14zm28.7.7l14 14-14 14-14-14 14-14zm-.8-30.1l-14 14-14-14 14-14 14 14zm-29-29l14.3 14.3-14.3 14.3-14.3 14.3-14.3-14.3-14.3-14.3 14.3-14.3 14.3-14.3 14.3 14.3zm-43.6-43.7l28.7 28.7-14.3 14.3-14.3 14.3-14.3-14.3-14.3-14.3 28.5-28.7zm-29.4 29.4l14 14-14 14-14-14 14-14zM235.2 676l14 14-14 14-14-14 14-14zm14 43.3l-14.3 14.3-14.3 14.3-14.3-14.3-.4.4.4-.4-14.3-14.3 14.3-14.3 14.3-14.3 28.6 28.6zm-204.8-.7l-14-14 14-14 14 14-14 14zm14.7-13.3l14 14-14 14-14-14 14-14zm-29.4-1.4l-14-14 14-14 14 14-14 14zm14 15.4l-14 14-14-14 14-14 14 14zm-14 15.4l14 14-14 14-14-14 14-14zm.7-.7l14-14 14 14-14 14-14-14zm28.7.7l14 14-14 14-14-14 14-14zm.7-.7l14-14 14 14-14 14-14-14zm14.6-14.7l14-14 14 14-14 14-14-14zm14 15.4l14 14-14 14-14-14 14-14zm.7-.7l14-14 14 14-14 14-14-14zm14.7-14.7l14-14 14 14-14 14-14-14zm14 15.4l14 14-14 14-14-14 14-14zm.7-.7l14-14 14 14-14 14-14-14zm28.6.7l14 14-14 14-14-14 14-14zm.4-1.1l-.4.4.4-.4-14.3-14.3 28.7-28.7 14.3 14.3 14.3 14.3-14.3 14.3-14.3 14.3-14.4-14.2zm29 1.1l14 14-14 14-14-14 14-14zm.7-.7l14-14 14 14-14 14-14-14zm28.7.7l14 14-14 14-14-14 14-14zm13.9-44.8l-14.3 14.3-14.3 14.3-14.3-14.3-14.3-14.3 28.7-28.7 28.5 28.7zm-72.3-43.7l14.3-14.3 14.3 14.3 14.3 14.3-28.7 28.7-14.3-14.3-14.3-14.3 14.4-14.4zm-15 15.1l14.3 14.3 14.3 14.3-28.7 28.7-14.3-14.3-14.3-14.3 28.7-28.7zm-15.4 43.3l-14 14-14-14 14-14 14 14zm-14.7-14.7l-14.3 14.3-14.3 14.3-14.3-14.3-14.3-14.3 28.7-28.7 28.5 28.7zm-72.3-43.7l14.3-14.3L73 660.6l-14.3 14.3-14.3 14.3-14.3-14.3-14.3-14.3 14.3-14.4zm-29 29.1l14-14 14 14-14 14-14-14zm0 29.3l14-14 14 14-14 14-14-14zm0 29.4l14-14 14 14-14 14-14-14zm0 29.3l14-14 14 14-14 14-14-14zM29.7 792l-14-14 14-14 14 14-14 14zm.7-28.7l14-14 14 14-14 14-14-14zM59.1 792l-14-14 14-14 14 14-14 14zm.7-28.7l14-14 14 14-14 14-14-14zM88.4 792l-14-14 14-14 14 14-14 14zm.7-28.7l14-14 14 14-14 14-14-14zm28.7 28.7l-14-14 14-14 14 14-14 14zm.7-28.7l14-14 14 14-14 14-14-14zm28.6 28.7l-14-14 14-14 14 14-14 14zm.7-28.7l14-14 14 14-14 14-14-14zm28.7 28.7l-14-14 14-14 14 14-14 14zm.7-28.7l14-14 14 14-14 14-14-14zm28.7 28.7l-14-14 14-14 14 14-14 14zm.7-28.7l14-14 14 14-14 14-14-14zm28.6 28.7l-14-14 14-14 14 14-14 14zm.7-28.7l14-14 14 14-14 14-14-14zm28.7 28.7l-14-14 14-14 14 14-14 14zm.7-28.7l14-14 14 14-14 14-14-14zm28.6 28.7l-14-14 14-14 14 14-14 14zm.7-28.7l14-14 14 14-14 14-14-14zm28.7 28.7l-14-14 14-14 14 14-14 14zm.7-28.7l14-14 14 14-14 14-14-14zm28.7 28.7l-14-14 14-14 14 14-14 14zm.7-28.7l14-14 14 14-14 14-14-14zM382 792l-14-14 14-14 14 14-14 14zm28.7-28.7l-14 14-14-14 14-14 14 14zM382 734.7l14 14-14 14-14-14 14-14zm-.7-.7l-14 14-14-14 14-14 14 14zM411.7 558.2l-.7-.7-14.3 14.3-14.3-14.3-.7.7 14.3 14.3-14.3 14.3.7.7 14.3-14.3 14.3 14.3.7-.7-14.3-14.3zM59.4 587.5l14.3-14.3 14.4 14.3.7-.7-14.4-14.3 14.4-14.3-.7-.7-14.4 14.3-14.3-14.3-.7.7L73 572.5l-14.3 14.3zM.7 411.4L15 397l14.4 14.4.7-.7-14.4-14.4L30.1 382l-.7-.7L15 395.6.7 381.3l-.7.7 14.3 14.3L0 410.7z"/></g><path class="st1" d="M29.7 396.6l-7.3-7.3v14.6zM323.3 426l-7.3-7.4v14.7zM308.6 440.6l7.4-7.3h-14.7zM176.5 455.3l7.3 7.3V448zM191.2 440.6l-7.3 7.4h14.6zM293.9 602.1l7.4 7.3v-14.6zM308.6 587.4l-7.3 7.4H316zM323.3 484.7l7.3 7.3v-14.7zM338 470l-7.4 7.3h14.7zM352.7 484.7l-7.4-7.4V492zM338 499.3l7.3-7.3h-14.7zM88.4 514l7.4 7.4v-14.7zM103.1 499.4l-7.3 7.3h14.6zM117.8 514l-7.3-7.3v14.7zM103.1 528.7l7.3-7.3H95.8zM176.5 572.7l7.3 7.4v-14.7zM191.2 558.1l-7.3 7.3h14.6zM205.9 572.7l-7.4-7.3v14.7zM404 580.1l7.4-7.4-7.4-7.3zM191.2 587.4l7.3-7.3h-14.7zM352.7 660.8l7.3 7.4v-14.7zM367.3 646.2l-7.3 7.3h14.7zM382 660.8l-7.3-7.3v14.7zM367.3 675.5l7.4-7.3H360zM352.7 719.5l7.3 7.4v-14.7zM367.3 704.9l-7.3 7.3h14.7zM352.7 748.9l7.3 7.3v-14.6zM382 748.9l7.4 7.3v-14.6zM396.7 734.2l-7.3 7.4H404zM382 719.5l-7.3-7.3v14.7zM367.3 734.2l7.4-7.3H360zM308.6 734.2l7.4-7.3h-14.7zM323.3 690.2l7.3 7.3v-14.7zM338 675.5l-7.4 7.3h14.7zM352.7 690.2l-7.4-7.4v14.7zM338 704.9l7.3-7.4h-14.7zM264.6 690.2l7.3 7.3v-14.7zM279.3 675.5l-7.4 7.3h14.7zM293.9 690.2l-7.3-7.4v14.7z"/><path class="st1" d="M279.3 704.9l7.3-7.4h-14.7zM235.2 748.9l7.4 7.3v-14.6zM249.9 734.2l-7.3 7.4h14.6zM264.6 748.9l-7.4-7.3v14.6zM249.9 763.6l7.3-7.4h-14.6zM147.1 748.9l7.4 7.3v-14.6zM117.8 748.9l7.3 7.3v-14.6zM161.8 734.2l-7.3 7.4h14.7zM176.5 748.9l-7.3-7.3v14.6zM161.8 763.6l7.4-7.4h-14.7zM147.1 778.3l7.4 7.3v-14.7zM161.8 763.6l-7.3 7.3h14.7zM176.5 778.3l-7.3-7.4v14.7zM154.5 785.6l7.3 7.3 7.4-7.3zM59.1 778.3l7.3 7.3v-14.7z"/><path class="st1" d="M73.8 763.6l-7.4 7.3h14.7zM88.4 778.3l-7.3-7.4v14.7zM66.4 785.6l7.3 7.3 7.4-7.3zM125.1 785.6l7.4 7.3 7.3-7.3zM29.7 748.9l7.3 7.3v-14.6zM44.4 734.2l-7.3 7.4h14.6zM59.1 748.9l-7.4-7.3v14.6zM44.4 763.6l7.3-7.4H37zM.4 778.3l7.3 7.3v-14.7zM15 763.6l-7.3 7.3h14.7zM29.7 778.3l-7.3-7.4v14.7zM7.7 785.6l7.3 7.3 7.4-7.3zM382 778.3l7.4 7.3v-14.7zM396.7 763.6l-7.3 7.3H404zM404 785.6l7.4-7.3-7.4-7.4zM389.4 785.6l7.3 7.3 7.3-7.3zM293.9 778.3l7.4 7.3v-14.7zM308.6 763.6l-7.3 7.3H316zM205.9 778.3l7.3 7.3v-14.7zM176.5 778.3l7.3 7.3v-14.7z"/><path class="st1" d="M220.5 763.6l-7.3 7.3h14.7zM249.9 763.6l-7.3 7.3h14.6zM323.3 778.3l-7.3-7.4v14.7zM301.3 785.6l7.3 7.3 7.3-7.3zM360 785.6l7.3 7.3 7.4-7.3zM264.6 690.2l-7.4-7.4v14.7zM249.9 704.9l7.3-7.4h-14.6zM161.8 704.9l7.4-7.4h-14.7zM396.7 704.9l7.3-7.4h-14.6zM117.8 660.8l7.3 7.4v-14.7zM132.5 646.2l-7.4 7.3h14.7zM147.1 660.8l-7.3-7.3v14.7zM205.9 660.8l-7.4-7.3v14.7zM132.5 675.5l7.3-7.3h-14.7zM117.8 719.5l7.3 7.4v-14.7zM132.5 704.9l-7.4 7.3h14.7zM147.1 719.5l-7.3-7.3v14.7zM132.5 734.2l7.3-7.3h-14.7zM73.7 734.2l7.4-7.3H66.4zM88.4 690.2l7.4 7.3v-14.7zM103.1 675.5l-7.3 7.3h14.6zM117.8 690.2l-7.3-7.4v14.7zM103.1 704.9l7.3-7.4H95.8zM29.7 690.2l7.3 7.3v-14.7zM44.4 675.5l-7.3 7.3h14.6zM59.1 690.2l-7.4-7.4v14.7zM44.4 704.9l7.3-7.4H37.1zM29.7 719.5l-7.3-7.3v14.7zM15 704.9l7.4-7.4H7.7zM279.3 616.8l-7.4 7.3h14.7zM293.9 631.5l-7.3-7.4v14.7zM279.3 646.1l7.3-7.3h-14.7zM44.4 616.8l-7.3 7.3h14.6zM59.1 631.5l-7.4-7.4v14.7zM44.4 646.1l7.3-7.3H37.1z"/></symbol><symbol id="krizik_sam" viewBox="0 0 30.1 30"><path fill="#C32B54" d="M29.8 15.3l-7.2-7.1L30.1.7l-.7-.7L22 7.5 15.2.6l-7 6.8L.7 0 0 .7l7.5 7.4-7.1 7.2 6.8 6.8L0 29.3l.7.7 7.2-7.2 7.2 7.101 7.1-7.101 7.2 7.2.7-.7-7.2-7.2 6.9-6.8zm-8.3-7.4l-6.4 6.4-6.4-6.4h12.8zM7.7 21.7V8.3l6.7 6.7-6.7 6.7zm.5.9l6.9-6.9 6.9 6.9H8.2zm14.2-1L15.8 15l6.6-6.6v13.2z"/></symbol><symbol id="likery_palenky_a_aperitivy" viewBox="0 0 60 60"><path fill="currentColor" d="M22.408 31.5l1.918 4.272 1.882 8.694.165 2.42h7.257l.141-2.372 1.902-8.741L37.59 31.5H22.408zm14.141.676l-.578 1.287H24.025l-.575-1.287h13.099zm-3.553 14.037h-5.993l-.128-1.841-.114-.525 1.754 1.356h2.938l1.78-1.364-.127.583-.11 1.791zm.459-3.395l-2.231 1.71h-2.479l-2.206-1.705-1.562-7.228-.651-1.459h11.342l-.625 1.393-1.588 7.289z"/></symbol><symbol id="logo-center" viewBox="0 0 369.6 223"><style>.st0{clip-path:url(#SVGID_2_);fill:#c32a53}</style><clipPath id="SVGID_2_"><use xlink:href="#SVGID_1_" overflow="visible"/></clipPath><path class="st0" d="M136.3 28c-.2-7.8-.5-12.5-.8-14-.2-.9.3-1.3 1.4-1.3 1.4.2 2.9.5 4.2.8 1.5.6 1.7 1.4.8 2.2-.9.6-1.2 2.5-1.1 5.6v5.6c.6-.2 1.3-.3 2.1-.5 2.7-1.1 4.1-1.2 4.2-.6 0 .7.1 1.6.2 2.7.2 1.2-.5 2-1.8 2.4-1.5.7-3.1 1.4-4.8 2.1-.1 2.9-.1 5.2 0 6.8 2.4-1.7 3.9-2.7 4.9-3 .3-.1.5.2.8.8 0 .8-.3 1.4-.8 2-3 3.3-5.8 6-8.6 8.2-3 2.2-4.9 3.9-5.8 5.1-.8 1.1-2 .9-3.4-.5-1.7-1.4-2.5-2.4-2.3-2.8 0-.5.5-.9 1.4-1.4 3-1.6 5.9-3.3 8.9-5.3 0-.2.1-.5.2-.8 0-1.1 0-3.6.1-7.9-3.1.9-5 1.8-5.6 2.7-.6.8-1.5-.1-2.7-3-1.4-2.7-1.6-3.9-.7-3.8.5.1 3.4-.6 9.2-2.1m10.5 17.1c2.7-6.4 3.7-13.1 3.5-20.3-.6-.5-.5-1 .2-1.4 3.6 0 6.9-.7 10.2-2 .5-.1 1-.4 1.6-.6-.8-3-1.3-5.7-1.6-8.3-.8-6-1.7-9.6-2.4-10.6-.9-1.8 0-2.2 2.7-1.3 2.5 1.1 3.5 2 3 2.9-1 1.7-.4 7.1 2.2 15.9.5-.2 1.2-.3 2-.5 1.1-.2 1.7-.6 2.2-1.3.3-.6 1.2.2 2.7 2 1.4 2 1.1 3.3-.7 3.8-1.4.3-3 .8-4.7 1.4 1.5 5.4 3.2 10.2 5.2 14.4 2-3.3 2.8-6.8 2.8-10.2 0-.9 1-1.1 3-.7 1.9.5 2.7.9 2.6 1.3-.5.5-1.1 2-1.7 4.5-.8 2.6-2 4.9-3.9 6.8-.5.6-1 1.1-1.3 1.5.9 1.9 1.8 3.7 3 5.2 4 6.2 7.1 9.2 9.4 8.9.6 0 1.2-1.8 1.9-5.6.6-3.8.3-7.7-.8-11.7-.2-.9 0-1 .5-.3 1.5 3.1 2.7 6.5 3.3 10.1.8 3.6 1 6.2.8 8-.3 1.8-.4 3.4-.1 4.7.8 1.6.3 2.2-1.1 1.6-4.2-.8-8.6-3.8-13.3-8.9-2.1-2.2-3.9-4.6-5.5-7.4-2.1 1.6-3.6 2.7-4.3 3-1.1.6-2.7 1-4.8 1.1-1.1.1-1.3-.2-.4-1.1 3-2.7 5.4-4.9 7.2-7-1.4-2.7-2.8-5.8-3.9-9-1-2.7-1.9-5.2-2.6-7.9-.8.3-1.4.5-1.9.6-1.5.3-3.1 1-4.8 2-1.6.5-2.7 1.4-3 2.7-.5 1.2-.8 2.5-1 3.6.7-.1 1.8-.5 3.5-1.1 1.6-.8 2.7-1.1 3.4-1.1 3.9 1.1 5.6 2.2 5.2 3.1-.6 1-1 1.7-1 2.2-.1.5-.5 2-.9 4.5-.4 2.4-1.1 5-2 7.7-1.1 2.8-1.7 4.2-1.8 4.1-3-1.1-5.8-3.1-8.5-6.3 0 .9-.4 1.7-1.1 2.5-4.5 3.5-8.6 5.5-12.3 5.8-1.7.3-2-.1-.6-1.1 4.6-2.9 7.7-6.3 9.9-10.2m5-5.7c-.5 1.5-.9 3.2-1.3 4.8-.3.6-.3 1.3-.1 1.9 2.9 1.6 4.9 2.2 6.3 1.7.5-.4 1.1-2 1.9-4.9.6-2.9.6-4.8.2-5.6-.6-.3-2-.2-3.9.8-1.5.6-2.5 1-3.1 1.3M172.5 15c-1.6-2.1-2.3-4-2.1-5.7.3-3.3 1.4-4.3 3.3-3.3.4.1 1.1.8 2 1.7.7 1 1.6 1.7 2.7 2.2.8.6 1.7 1.2 2.5 1.7.3.2.3.9.1 1.8-.5 1-1.4 1.5-2.8 1.6-1.7.1-2.9.3-3.6.5-1.2.3-1.9.1-2.1-.5M205.9 19.4c3.3-4.4 6.3-9.9 9.2-16.3.3-.7.6-1.4 1.1-2.4.3-.8 1.6-.5 4.1.8 2.3 1.3 2.7 2.3 1.5 2.8-1.7 1.4-3.6 3.7-5.7 6.7-2.3 3-3.7 5.2-4.4 6.4-.6.8-1 1.5-1.1 2.4 1.5.6 3 1.4 4.5 2.1.8.5 1 1.1.7 2-.4 1.2-.7 3.3-.5 6.2 0 2.9-.1 5.2-.3 7.1-.1.8-.1 1.7.3 2.3.6 1.1-.8 1.4-4.2.8-.7-.2-1-.7-.7-1.3.2-2.4.3-5.6.2-9.5-.2-2.7-.4-4.9-.6-6.4-.6.9-1.5 1.7-2.7 2.5-2.1 1.2-4.6 2.5-7.5 3.9-1.9.8-2.4.4-1.2-1.3 1.8-2.5 4.2-5.4 7.3-8.8m23.7 40.1c-10 .7-17.9 1.7-23.4 3.3-.8.5-1.8-.5-3-2.8-1.4-2.3-.6-3 2.4-2.2 5.5-.9 11.7-1.7 19-2.7 0-.5 0-1.3.2-2.2 0-1 0-2.1.1-3.3-3.9.2-6.2.8-7.1 1.7-.6.8-1.2-.1-1.8-2.8-.8-2.5-.8-3.6-.1-3.3.3.1 3.3-.2 9.3-.9v-4c-.9-2.4.1-3 3-2.2 2.8.9 3.9 1.9 3.3 2.8-.2.2-.3 1.1-.5 2.7 1.5-.1 3.2-.3 5.2-.6 2.9-.5 4.2-.5 4.2.2-.2.5-.2 1.4-.2 2.5-.1 1.1-.9 1.7-2.1 2-2.2.6-4.8 1.1-7.4 1.5-.3 2.8-.4 4.6-.1 5.4 4.5-.5 8.7-.7 12.9-.7 4 0 6.4-.2 7.3-.5.5-.2.8.3 1.2 1.2.3.9.8 1.6 1.4 2 .6.5.8 1.6.7 3.3-.1 1.7-.8 2.3-1.8 1.7-6.6-2-14-2.5-22.7-2.1m-9-27.1c2.3-1.7 5-3.6 8.4-5.5.3-.1.5-.1.6.1.2.2.1.4-.1.6-2.5 3.3-4.1 6.3-4.7 8.5-.2 1.7-.7 2.3-1.6 1.8-1-.5-2-1.3-2.8-2.8-1-1.4-1.3-2.1-.8-2.3.3 0 .5-.2 1-.4m10.7-27.8c4.2-1.4 7.7-1.7 10.6-1.2 4.4 1.5 6.2 2.7 5.4 3.5-.9.5-2 1.8-3 4.1-1.2 2.3-1.8 3.9-1.7 4.9-.3.8-.8 1-1.4.6-1.1-.1-2-.1-2.8-.1-.1.2-.2.3-.1.3-.3.5-.5 1.5-.7 3.1 2.8-.5 5.5-.9 8.1-1.1 2.6-.2 4-.4 4.6-.6.3-.1.6.2 1.1.8.3.8.6 1.3 1.2 1.5.5.3.7 1.1.7 2.7 0 1.5-.5 2-1.4 1.4-4.1-.9-9-1.1-14.6-.5-.2 2.2-.2 4.2-.2 6.1 0 2.5.1 4.9.2 7 .3 2.7-.9 3.4-3.4 2.3-3-1.1-3.9-2-2.7-2.7.9-.5 1.4-1.8 1.7-4.1 0-1.9-.1-4.6-.2-8-4.2.7-7.7 1.5-10.3 2.4-.6.3-1.4-.3-2.4-2-1-1.6-.5-2.1 1.6-1.7 3.1-.8 6.7-1.7 10.9-2.6-.2-1.5-.2-2.7-.2-3.6-1.1.3-1.9.7-2.5 1-.4.2-.7.2-.8-.2-.2-.4-.6-.9-1.3-1.7-2.5-2.4-4.2-5.2-4.7-8.2-.6-.8-.5-1.2.5-1.4.9-.1 3.4-.7 7.8-2m6.1 7.6c1.7-1.6 1.9-3.2.9-4.7-.8-.8-2.4-.8-4.5-.1-2.5.8-4 1.4-4.3 2-.5 1.8 0 3.1 1.4 4 .2.2 1.1.2 3-.2 1.6-.2 2.7-.5 3.5-1m3.6 15c-.8-.8-.5-1.1.8-1.1 3.5.7 6.6 1.6 9.3 2.9.5.2.4 1.5-.1 3.8-.5 2.4-1.1 3.7-1.8 3.9-.7.3-1.2.1-1.5-.6-.4-.6-1-1.4-1.6-2.6-2.2-2.6-3.9-4.7-5.1-6.3M114.2 99H69v32h-4v2.7h4v25.4l-3.7 6h18.8v-31.4h15v31.4h18.8l-3.7-6v-25.4h4V131h-4V99zm-30.1 2.6h15V131h-15v-29.4zM27.5 99l3.7 6v57.5H18.8v-17.7H0l3.7 5.9v14.4h42.6V105l3.7-6zM295.6 99h-23l4 6.4v25.7h-4v2.6h4v25.2l-4 6.4h23l-4-6.4v-25.2h4v-2.6h-4v-25.7zM166.4 117.5h18.8l-3.7-6V99h-45.2v34.4h30.1v29.1h-15V147h-18.8l3.7 5.6v12.5h45.2v-34.4h-30.1v-29.1h15zM259 99h-19.5L229 117.8 218.4 99h-19.5l3.7 6v54.1l-3.7 6h18.8V103l9.8 17.5-7.2 12.9h17.4l-7.2-12.9 9.8-17.5v62.1H259l-3.7-6V105l3.7-6zm-25.8 31.7h-8.6l4.3-7.6 4.3 7.6zM365.9 159.1V105l3.7-6h-18.7v60.9L329.2 99h-19.7l3.7 6v54.1l-3.7 6h18.8v-60.9l21.6 60.9h19.7zM119.2 220h3.3v-6.4c0-3.9 2.7-6.2 8.3-5.4v2.8c-3.2-.6-5.2.5-5.2 2.6v6.4h4.1v2.7h-10.5V220zM145.2 218.1c-.3 3.2-2.5 4.9-6.1 4.9-3.7 0-6.2-1.9-6.2-5.6v-3.8c0-3.7 2.4-5.6 6.2-5.6 3.7 0 6.1 1.9 6.1 5.6v2.9h-9.1v1.1c0 1.7 1.1 2.7 3 2.7s2.8-.9 3-2.2h3.1zm-9.1-4h6v-.7c0-1.8-1.2-2.7-3-2.7s-3 .9-3 2.7v.7zM155 217.1l-2.8-.6c-2.5-.5-4.1-1.8-4.1-4.1 0-2.9 2.1-4.3 5.9-4.3 3.7 0 5.8 1.5 5.8 4.4v.3h-3.1v-.2c0-1.3-.9-1.9-2.7-1.9-1.8 0-2.7.6-2.7 1.7 0 .8.5 1.3 1.8 1.6l2.9.6c2.5.5 4.1 1.8 4.1 4.1 0 3-2.3 4.5-6 4.5s-6-1.5-6-4.4v-.3h3.1v.2c0 1.3 1.1 2 2.9 2 1.8 0 2.9-.6 2.9-1.8-.2-1-.8-1.6-2-1.8M168.6 217.7c0 2.4.8 2.8 4 2.5v2.6c-5.9 1-7.1-1.2-7.1-5.2V211h-3.6v-2.7h10.8v2.7h-4v6.7zM180 214.1c1.7 0 3.1.4 4 1.3v-2.3c0-1.6-1-2.5-2.7-2.5-1.8 0-2.7.6-2.7 2.2h-3.1c0-3.1 2-4.7 5.8-4.7 3.5 0 5.8 1.8 5.8 5.2v4.7c0 2.1.6 2.5 2.2 2.2v2.6c-2.7.6-4.2-.1-4.8-1.7-.9 1.3-2.5 1.9-4.5 1.9-3.1 0-5.2-1.5-5.2-4.5.1-2.9 2.1-4.4 5.2-4.4m.9 6.2c1.8 0 3.1-.6 3.1-1.8 0-1.2-1.2-1.9-3.1-1.9-1.8 0-3 .6-3 1.9.1 1.3 1.2 1.8 3 1.8M194.7 208.3v9.3c0 1.8 1.2 2.7 3 2.7s3-.9 3-2.7v-9.3h3.1v9.1c0 3.7-2.4 5.6-6.1 5.6-3.7 0-6.1-1.9-6.1-5.6v-9.1h3.1zM205.9 220h3.3v-6.4c0-3.9 2.7-6.2 8.3-5.4v2.8c-3.2-.6-5.2.5-5.2 2.6v6.4h4.1v2.7h-10.5V220zM224.4 214.1c1.7 0 3.1.4 4 1.3v-2.3c0-1.6-1-2.5-2.7-2.5-1.8 0-2.7.6-2.7 2.2h-3.1c0-3.1 2-4.7 5.8-4.7 3.5 0 5.8 1.8 5.8 5.2v4.7c0 2.1.6 2.5 2.2 2.2v2.6c-2.7.6-4.2-.1-4.8-1.7-.9 1.3-2.5 1.9-4.5 1.9-3.1 0-5.2-1.5-5.2-4.5 0-2.9 2-4.4 5.2-4.4m.9 6.2c1.8 0 3.1-.6 3.1-1.8 0-1.2-1.2-1.9-3.1-1.9-1.8 0-3 .6-3 1.9 0 1.3 1.1 1.8 3 1.8M236.1 213.6c0-3.7 2.4-5.6 6.2-5.6 3.7 0 6.1 1.9 6.1 5.6v9.1h-3.1v-9.3c0-1.8-1.2-2.7-3-2.7s-3 .9-3 2.7v9.3h-3.1v-9.1zM257.3 217.7c0 2.4.8 2.8 4 2.5v2.6c-5.9 1-7.1-1.2-7.1-5.2V211h-3.6v-2.7h10.8v2.7h-4v6.7z"/></symbol><symbol id="logo-small" viewBox="0 0 739.2 132.8"><style>.st0{fill:#c32a53}</style><path class="st0" d="M168.2 5.3h30.1v58.8h-30.1V5.3zM138.1.1v64h-8v5.4h8v50.8l-7.4 12h37.5V69.5h30.1v62.7h37.5l-7.4-11.9V69.5h8v-5.4h-8V.1h-90.3zM55 .1l7.4 12V127H37.5V91.6H0l7.4 11.9v28.7h85.1V12.1l7.5-12zM545.2 0l7.9 12.8v51.4h-7.9v5.2h7.9V120l-7.9 12.8h46l-8-12.9V69.4h8v-5.2h-8V12.8l8-12.8zM272.7.1v68.7h60.2V127h-30.1V96.1h-37.6l7.5 11.2v24.9H363V63.6h-60.2V5.3h30.1V37h37.5L363 25.1V.1zM457.9 48.3l8.5 15.3h-17.1l8.6-15.3zm21-48.2l-21 37.6L436.8.1h-39.1l7.4 12v108.2l-7.4 11.9h37.5V8l19.6 35-14.5 25.8h34.9L460.8 43l19.6-35v124.2h37.5l-7.4-12V12.1l7.4-12h-39zM701.7.1v121.8L658.4.1h-39.3l7.4 11.9v108.3l-7.4 11.9h37.5V10.5l43.3 121.7h39.3l-7.4-11.9V12L739.2.1z"/></symbol><symbol id="martini" viewBox="0 0 60 60"><path fill="currentColor" d="M30.266 31.363l13.487-11.785H16.125l13.427 11.769v15.569l-6.615 2.932H36.71l-6.444-2.929V31.363zM17.918 20.254h24.026l-1.893 1.639H19.787l-1.869-1.639zm21.353 2.312l-9.353 8.204-9.359-8.204h18.712zm-5.676 26.606h-7.471l3.783-1.676 3.688 1.676z"/></symbol><symbol id="menu_pre_1_osobu" viewBox="0 0 60 60"><path fill="currentColor" d="M35.402 37.577h-5.108v-4.015h3.555v-7.79h-7.791v7.79h3.554v4.015h-5.015v.683h4.985l-4.749 8.224-.035.062.592.341 4.563-7.905 4.528 7.844.035.062.591-.341-4.784-8.285h5.079v-.685zm-2.236-11.123v6.426h-6.427v-6.426h6.427z"/></symbol><symbol id="menu_pre_2_osoby" viewBox="0 0 60 60"><g fill="currentColor"><path d="M42.499 37.594h-5.107v-4.015h3.553v-7.79h-7.789v7.79h3.553v4.015h-5.014v.684h4.983L31.931 46.5l-.035.061.589.342 4.564-7.905 4.528 7.844.035.062.592-.341-4.782-8.284h5.077v-.685zm-2.236-11.123v6.426h-6.426v-6.426h6.426zM23.205 33.58h3.555v-7.792h-7.79v7.792h3.554v4.014h-5.016v.682h4.986l-5.045 8.736H28.28l-5.046-8.736h5.08v-.682h-5.109V33.58zm-4.573 12.75l4.233-7.334 4.232 7.334h-8.465zm7.445-19.859v6.426h-6.424v-6.426h6.424z"/></g></symbol><symbol id="menu_pre_4_osoby" viewBox="0 0 60 60"><g fill="currentColor"><path d="M23.177 33.579h3.555v-7.79H18.94v7.79h3.555v4.015h-5.016v.684h4.985L17.717 46.5l-.035.062.591.341 4.563-7.905 4.528 7.844.035.062.591-.341-4.783-8.284h5.078v-.684h-5.108v-4.016zm2.872-7.108v6.426h-6.426v-6.426h6.426zM8.942 33.58h3.555v-7.792H4.708v7.792h3.553v4.014H3.245v.682h4.986l-5.044 8.736h10.829l-5.045-8.736h5.079v-.682H8.942V33.58zM4.368 46.33l4.233-7.334 4.234 7.334H4.368zm7.446-19.859v6.426H5.39v-6.426h6.424zM56.762 37.594h-5.108v-4.015h3.555v-7.79h-7.791v7.79h3.555v4.015h-5.016v.684h4.985L46.194 46.5l-.035.061.59.342 4.563-7.905 4.528 7.844.035.062.591-.341-4.783-8.284h5.078v-.685zm-2.237-11.123v6.426H48.1v-6.426h6.425zM37.419 33.58h3.555v-7.792h-7.789v7.792h3.553v4.014h-5.016v.682h4.986l-5.044 8.736h10.829l-5.045-8.736h5.08v-.682h-5.109V33.58zm-4.574 12.75l4.233-7.334 4.234 7.334h-8.467zm7.446-19.859v6.426h-6.425v-6.426h6.425z"/></g></symbol><symbol id="nealkoholicke_napoje" viewBox="0 0 60 60"><path fill="currentColor" d="M25.667 22.224l-.946-8.265-.67.076.938 8.188h-1.63v24.671h13.284v-24.67H25.667zm-1.634.674h1.032l.833 7.27h-1.865v-7.27zm0 7.946h1.942l.342 2.984h-1.25v4.008h1.708l.735 6.412h-3.477V30.844zm4.369 3.658v2.659h-2.661v-2.659h2.661zm7.565 11.719H24.033v-1.299h11.934v1.299zm0-1.973h-3.746l2.811-2.811-2.833-2.834-2.836 2.834 2.813 2.811h-3.987l-.735-6.412h1.623v-4.008h-2.081l-.342-2.984h2.142l1.688 3.055 3.507-1.937-.617-1.118h2.593v13.404zm-3.768-.932l-1.882-1.879 1.882-1.881 1.879 1.881-1.879 1.879zm-2.737-12.662l2.329-1.284 1.284 2.327-2.327 1.285-1.286-2.328zm6.505-.486h-2.966l-.946-1.715-3.109 1.715h-2.37l-.833-7.27h10.223v7.27z"/></symbol><symbol id="pivo" viewBox="0 0 60 60"><g fill="currentColor"><path d="M40.859 29.115h-3.802V21.65l-3.065-1.82-1.91.938-2.762-2.762h-4.287l-2.822 2.822-2.408-.194-2.506 1.917v24.197l3.146 3.1h13.469l3.146-3.1v-4.016h3.809l1.837-2.168v-9.411l-1.845-2.038zm-3.801 2.137h2.512l1.007 1.024v7.237l-1.014 1.1h-2.505v-9.361zM17.971 46.27V25.85h18.412v20.42H17.971zm0-23.386l2.036-1.557 2.46.198 2.846-2.846h3.729l2.905 2.906 2.016-.989 2.421 1.437v3.143H17.971v-2.292zm15.664 26.288H20.719l-2.262-2.229h17.439l-2.261 2.229zm8.394-8.855l-1.477 1.74h-3.495v-.77h2.8l1.393-1.513V32l-1.398-1.424h-2.794v-.787h3.503l1.469 1.625v8.903z"/><path d="M32.874 29.174h.675v14.301h-.675zM24.765 29.174h.675v14.301h-.675zM20.709 29.174h.674v14.301h-.674zM28.819 29.174h.675v14.301h-.675z"/></g></symbol><symbol id="polievka" viewBox="0 0 60 60"><g fill="currentColor"><path d="M33.231 31.338l2.662-2.627-.473-.48-3.15 3.107h-7.102l2.905-2.867-3.489-3.444-.474.479 3.003 2.965-2.906 2.867H13.59v5.531l3.937 5.921 8.343 4.104h8.263l8.455-4.104 3.823-5.923v-5.529h-13.18zm12.504.676v4.549H14.264v-4.549h31.471zm-3.611 10.252l-8.146 3.955h-7.951l-8.039-3.955-3.344-5.029h30.725l-3.245 5.029z"/><path d="M23.798 28.23l-3.004-2.964 3.004-2.964-.474-.481-3.49 3.445 3.49 3.445zM39.452 28.711l.474-.481-3.005-2.964 3.005-2.964-.474-.481-3.491 3.445zM24.583 18.617l3.246 3.205-.473.48-3.246-3.205zM32.646 25.507l3.491-3.445-3.491-3.446-.474.482 3.004 2.964-3.004 2.963zM31.387 28.711l.474-.481-3.004-2.964 3.247-3.204-3.247-3.205 3.004-2.963-.473-.481-3.491 3.444 3.247 3.205-3.247 3.204z"/></g></symbol><symbol id="prazena_ryza_a_rezance" viewBox="0 0 60 60"><path fill="currentColor" d="M36.923 31.338l2.905-2.867-3.248-3.205 3.248-3.204-2.806-2.77h9.349v-.675H36.338l-.001-.001-.001.001h-3.69l-.001-.001-.001.001H20.551l-.001-.001-.001.001H13.63v.675h6.643l2.808 2.77-3.248 3.204 3.248 3.205-2.905 2.867H13.59v5.531l3.935 5.921 8.345 4.104h8.262l8.457-4.104 3.822-5.923v-5.529h-9.488zm-.862-12.046l2.807 2.77-3.247 3.204 3.247 3.205-2.905 2.867H33.23l2.905-2.867-3.247-3.205 3.247-3.204-2.806-2.77h2.732zm-3.693 0l2.807 2.77-3.248 3.204 3.248 3.205-2.906 2.867H29.2l2.903-2.867-3.246-3.205 3.246-3.204-2.805-2.77h3.07zm-4.03 0l2.805 2.77-3.246 3.204 3.246 3.205-2.904 2.867h-3.072l2.903-2.867-3.246-3.205 3.246-3.204-2.805-2.77h3.073zm-4.298 9.179l-3.247-3.205 3.247-3.204-2.806-2.77h3.071l2.805 2.77-3.246 3.204 3.246 3.205-2.904 2.867h-3.071l2.905-2.867zm21.696 3.543v4.547H14.265v-4.547h31.471zm-3.612 10.252l-8.148 3.955h-7.949l-8.041-3.955-3.342-5.03H45.37l-3.246 5.03z"/></symbol><symbol id="predjedla" viewBox="0 0 60 60"><path fill="currentColor" d="M31.714 46.221l4.913-1.801 1.296-2.774 3.737.529.903-6.36-9.673-1.371 1.555-1.124.59-3.665-2.174-3.01-1.872-.302v-2.786h.725l2.17-1.055.955-1.477-.566-.367-.853 1.32-1.861.903h-.569v-1.935h.438l1.097-1.096v-1.551l-1.097-1.097h-1.552l-1.097 1.097v1.551l1.097 1.096h.438v1.935h-.569l-1.836-.903-.879-1.323-.562.373.98 1.474 2.14 1.055h.727v2.678l-1.118-.18-3.01 2.174-.59 3.666 1.213 1.68-8.143-1.146-.9 6.361 3.705.525 1.672 4.549 5.087 2.357H13.963v.674h32.073v-.674H31.714zm-1.559-25.948l-.701-.701v-.992l.701-.701h.993l.701.701v.992l-.701.701h-.993zm-3.347 8.339l2.558-1.847 3.113.501 1.847 2.557-.502 3.114-2.557 1.847-3.113-.502-1.846-2.557.5-3.113zm-8.279 9.603l.711-5.025 8.118 1.144.413.571 3.665.591.667-.481 9.698 1.375-.712 5.023-22.56-3.198zm5.152 5.154l-1.451-3.947 14.996 2.124-1.092 2.336-6.334 2.323-6.119-2.836z"/></symbol><symbol id="prilohy" viewBox="0 0 60 60"><g fill="currentColor"><path d="M44.709 31.336l-.495-2.974-2.018-2.31-3.352-.438v-2.197h-2.302l-1.73-2.296-3.037.635-1.547 1.845-3.207-1.344-3.791 1.895-.683 2.619-3.183-.864-3.07 1.712-.819 3.717h-1.888v5.533l3.936 5.92 8.344 4.105h8.262l8.456-4.105 3.824-5.922v-5.531h-1.7zM16.89 28.061l2.565-1.431 3.576.972.777-2.982 3.24-1.62 3.379 1.416 1.716-2.047 2.39-.5 1.674 2.224h1.964v2.115l3.687.481 1.724 1.973.445 2.674H16.168l.722-3.275zm28.846 3.951v4.549H14.264v-4.549h31.472zm-3.613 10.254l-8.147 3.955h-7.95l-8.04-3.955-3.344-5.03H45.37l-3.247 5.03z"/><path d="M40.9 30.173l-1.44-.877.352-.577 1.44.878zM35.85 29.062l-.69-1.538.614-.276.69 1.538zM33.223 25.594l-.515-.435 1.088-1.288.515.436zM25.841 24.689l.516.435-1.089 1.29-.516-.436zM29.826 27.895l-1.569-.621.248-.627 1.569.621zM31.475 30.545l-.46-.495 1.238-1.147.459.495zM25.882 30.736l-.758-1.506.603-.304.758 1.507zM20.513 29.941l-1.613-.494.198-.646 1.613.494z"/></g></symbol><symbol id="rozlievane_vina" viewBox="0 0 60 60"><path fill="currentColor" d="M30.424 31.799l5.56-1.68 3.208-7.618-4.872-11.147h-8.64l-4.871 11.147 3.208 7.62 5.693 1.68v15.115l-6.615 2.932h13.773l-6.444-2.929v-15.12zm-4.303-19.772h7.757l4.307 9.854h-16.37l4.306-9.854zm-1.606 17.537l-2.951-7.009h16.873l-2.951 7.01-5.42 1.637-5.551-1.638zm9.238 19.608h-7.471l3.783-1.676 3.688 1.676z"/></symbol><symbol id="ryby_a_plody_mora" viewBox="0 0 60 60"><g fill="currentColor"><path d="M49.434 27.777l-5.778 5.719L33.037 22.86H22.038L10.553 33.984l11.484 11.084 10.986.001L43.63 34.472l5.803 5.828V27.777zm-.673 1.616v9.238l-4.629-4.656 4.629-4.582zm-26.102 4.58l4.882-4.91 4.891 4.91-4.891 4.91-4.882-4.91zm4.405 5.386l-4.553 4.571v-9.149l4.553 4.578zm-4.553-6.195v-9.15l4.553 4.57-4.553 4.58zm10.062 1.623v9.157l-4.557-4.583 4.557-4.574zm-4.557-6.203L32.573 24v9.159l-4.557-4.575zm-.476-.478l-4.553-4.571h9.087l-4.534 4.571zm.001 11.734l4.529 4.555h-9.067l4.538-4.555zm5.707-5.049l4.543 4.562-4.543 4.538v-9.1zm0-10.748l4.537 4.557-4.537 4.553v-9.11zm-11.412-.049v19.943l-10.312-9.955 10.312-9.988zm16.432 14.883l-4.884-4.904 4.876-4.895 4.893 4.916h.001l-4.886 4.883z"/><circle cx="17.541" cy="33.504" r=".609"/></g></symbol><symbol id="salaty" viewBox="0 0 60 60"><g fill="currentColor"><path d="M40.454 27.069v-5.37l-2.85-3.207-2.85 3.207v5.37l2.85 3.188 2.85-3.188zm-5.025-5.114l2.175-2.447 2.176 2.447v4.856l-2.176 2.433-2.175-2.433v-4.856z"/><path d="M37.941 27.534v-.935l1.349-1.679-.526-.422-.823 1.023v-1.176l1.349-1.679-.526-.422-.823 1.025v-2.036h-.674v3.07l-.822-1.024-.526.422 1.348 1.679v2.154zM32.111 24.773l.007-11.482-4.299 1.777-1.644 3.961 1.638 3.962 4.298 1.782zm-3.776-9.187l3.107-1.285-.006 9.463-3.106-1.289-1.424-3.445 1.429-3.444z"/><path d="M28.581 16.803l.868.385-.274.617-.868-.385zM30.39 15.464l.355.88-.625.253-.356-.88zM28.089 18.695h.948v.675h-.948zM29.173 20.258l.274.617-.868.386-.274-.616zM30.12 21.468l.626.252-.355.88-.625-.251zM31.375 29.377l.273.615-.868.386-.273-.614zM29.566 28.04l.626.254-.357.88-.626-.253z"/><path d="M33.666 31.336l-1.531-3.689-4.299-1.777.005 5.467h-2.702v-5.265l-2.85-3.208-2.849 3.208v5.265h-5.851v5.533l3.936 5.92 8.344 4.105h8.262l8.457-4.105 3.824-5.922v-5.531H33.666zm-2.047-3.173l1.316 3.173h-4.42l-.004-4.458 3.108 1.285zm-11.504-1.835l2.174-2.448 2.175 2.448v4.855l-.136.152h-1.702v-1.583l1.349-1.681-.526-.422-.823 1.024v-3.069h-.674v2.035l-.822-1.024-.526.423 1.348 1.679v1.176l-.822-1.023-.526.423 1.348 1.678v.365h-1.701l-.136-.152v-4.856zm25.621 5.684v4.549H14.264v-4.549h31.472zm-3.613 10.254l-8.147 3.955h-7.95l-8.04-3.955-3.344-5.03H45.37l-3.247 5.03z"/></g></symbol><symbol id="speciality" viewBox="0 0 60 60"><g fill="currentColor"><path d="M13.589 31.338v5.531l3.938 5.921 8.342 4.104h8.263l8.455-4.104 3.823-5.923v-5.529H13.589zm32.146.675v4.549H14.264v-4.549h31.471zm-3.612 10.253l-8.146 3.955h-7.951l-8.038-3.955-3.345-5.029h30.726l-3.246 5.029zM26.523 28.77L30 26.715l3.478 2.055-.88-3.942 3.029-2.671-4.021-.381L30 18.068l-1.605 3.707-4.021.381 3.029 2.671-.88 3.943zm-.534-6.089l2.867-.272L30 19.766l1.144 2.643 2.868.272-2.16 1.905.627 2.811L30 25.932l-2.479 1.465.627-2.811-2.159-1.905z"/></g></symbol><symbol id="specialne_vina" viewBox="0 0 60 60"><g fill="currentColor"><path d="M35.839 30.119l3.205-7.618-4.869-11.147h-8.641l-4.871 11.147 3.207 7.62 5.693 1.68v15.115l-6.615 2.932h13.773l-6.443-2.929v-15.12l5.561-1.68zm-9.863-18.092h7.756l4.307 9.854H21.67l4.306-9.854zm7.63 37.145h-7.471l3.783-1.676 3.688 1.676zm-3.685-17.97l-5.553-1.638-2.951-7.009H38.29l-2.949 7.01-5.42 1.637zM29.747 5.099h.676v3.927h-.676zM25.502 5.844l1.367 3.681-.633.235-1.367-3.68zM20.95 8.635l2.61 2.933-.503.448-2.611-2.933zM18.25 13.027l3.827.873-.15.658-3.828-.873zM41.9 13.685l-3.829.874-.15-.658 3.828-.873zM34.668 5.847l.633.235-1.37 3.681-.632-.235zM39.224 8.639l.502.45-2.616 2.928-.502-.45z"/></g></symbol><symbol id="teple_napoje" viewBox="0 0 60 60"><g fill="currentColor"><path d="M42.43 31.417h-3.896V28.27h-8.105l2.692-2.656-.474-.48-3.18 3.137h-7.102l2.934-2.896-3.489-3.445-.474.48 3.003 2.965-2.936 2.896h-5.678V42.46l4.378 4.436h14.051l4.378-4.436v-2.678h3.903l1.838-2.168v-4.158l-1.843-2.039zm-4.571 10.766l-3.986 4.038H20.386L16.4 42.183v-7.724h21.458v7.724zm0-8.398H16.4v-4.842h21.458v4.842zm5.742 3.58l-1.477 1.742h-3.59v-7.016h3.597l1.47 1.624v3.65z"/><path d="M21.025 25.133l-3.004-2.965 3.004-2.965-.474-.48-3.49 3.445 3.49 3.445zM36.679 25.613l.474-.48-3.004-2.965 3.004-2.965-.474-.48-3.491 3.445zM21.81 15.519l3.246 3.204-.473.48-3.246-3.205zM29.874 22.408l3.49-3.445-3.49-3.445-.475.48 3.005 2.965-3.005 2.965zM28.615 25.613l.474-.48-3.005-2.965 3.248-3.205-3.248-3.205 3.004-2.963-.473-.481-3.491 3.444 3.248 3.205-3.248 3.205z"/></g></symbol><symbol id="vina_vo_flasi" viewBox="0 0 60 60"><g fill="currentColor"><path d="M37.585 12.326l-4.904-2.26V0h-5.545v10.07l-4.721 2.258-1.598 4.584-.02 34.913 3.576 4.113h11.252l3.576-4.113V17.023l-1.616-4.697zm-5.578-2.312h-4.195V2.842h4.195v7.172zm0-9.338v1.49h-4.195V.676h4.195zm6.521 50.896l-3.209 3.691H24.681l-3.207-3.691V17.08l1.486-4.264 4.514-2.16v.031h4.87v-.033l4.698 2.164 1.486 4.262v34.492z"/><path d="M24.858 22.993l-1.855 1.854V41.14l1.855 1.854h10.213l1.854-1.854V24.848l-1.854-1.854H24.858zm11.393 17.868l-1.459 1.459h-9.654l-1.46-1.459V25.126l1.46-1.458h9.654l1.459 1.458v15.735z"/><path d="M29.039 34.511l-1.278 1.278v1.807l1.279 1.276h1.805l1.279-1.276v-1.807l-1.279-1.278h-1.806zm2.409 2.805l-.883.881h-1.247l-.884-.881v-1.248l.884-.883h1.247l.883.883v1.248zM29.307 33.161v-1.806l-1.276-1.278h-1.809l-1.275 1.278v1.806l1.275 1.278h1.809l1.276-1.278zm-2.806.603l-.88-.881v-1.249l.88-.882h1.25l.881.882v1.249l-.881.881h-1.25zM31.882 30.077l-1.277 1.276v1.809l1.277 1.277h1.807l1.277-1.278v-1.806l-1.277-1.278h-1.807zm2.409 2.806l-.882.881h-1.248l-.883-.883v-1.246l.883-.883h1.248l.882.882v1.249zM30.339 28.126l1.231-1.519-.524-.425-1.383 1.705v2.212h.676z"/></g></symbol><symbol id="whisky" viewBox="0 0 60 60"><path fill="currentColor" d="M29.428 44.326h-4.009v-4.009h4.009v4.009zm-3.335-.676h2.66v-2.658h-2.66v2.658z"/><path fill="currentColor" d="M20.262 32.6l3.094 14.297h13.276L39.739 32.6H20.262zm15.826 13.623H23.901l-1.61-7.437h9.372l2.362 2.36 2.36-2.36h1.319l-1.616 7.437zm-3.944-7.911l1.881-1.88 1.878 1.88-1.878 1.88-1.881-1.88zm4.513-.201l-2.632-2.633-2.635 2.633h-9.245l-1.047-4.837h17.804l-1.051 4.837h-1.194z"/></symbol><symbol id="zeleninove_jedla" viewBox="0 0 60 60"><g fill="currentColor"><path d="M41.829 30.523l.352-.351v-.498l-.352-.353h-.497l-.352.353v.498l.352.351zM32.862 26.972v.498l.353.351h.497l.353-.351v-.498l-.353-.352h-.497zM33.712 13.728l.353-.352v-.497l-.353-.354h-.497l-.353.354v.497l.353.352zM22.342 16.746l.353-.35v-.5l-.353-.351h-.497l-.353.351v.5l.353.35zM40.525 22.893l1.757-5.074-1.643-3.963-3.744 2.096-1.757 5.075 1.65 3.945 3.737-2.079zm-3.075-6.478l2.857-1.601 1.254 3.025-1.589 4.588-2.852 1.588-1.26-3.012 1.59-4.588z"/><path d="M37.361 22.288l.638.221.306-.883 1.823-1.146-.358-.57-1.113.698.385-1.111 1.823-1.145-.359-.573-1.112.7.666-1.924-.637-.22-1.004 2.899-.442-1.236-.636.228.725 2.026zM29.532 16.254v-5.37l-2.85-3.208-2.85 3.208v5.37l2.85 3.188 2.85-3.188zm-5.026-5.113l2.176-2.448 2.175 2.448v4.855l-2.175 2.434-2.176-2.434v-4.855z"/><path d="M27.02 16.719v-2.155l1.347-1.679-.526-.422-.821 1.024v-3.069h-.675v2.034l-.823-1.023-.525.423 1.348 1.677v1.177l-.823-1.023-.525.422 1.348 1.677v.937zM24.259 25.385l3.997.004v4.829h3.447v-4.829l4.038.004-1.778-4.301-3.959-1.641-3.962 1.638-1.783 4.296zm1.804-.674l2.195-1.221-.002 1.223-2.193-.002zm5.638-1.302l2.35 1.306-2.347-.001-.003-1.305zm-1.698-3.227l3.443 1.428 1.073 2.594-3.497-1.943.006 2.453h-.001v4.83h-2.098v-4.492l.004-2.707-3.489 1.939 1.112-2.678 3.447-1.424zM19.557 24.621l.647.698-.494.457-.646-.697zM21.078 24.089l.675.014-.02.949-.675-.015zM18.363 26.165l.873.374-.266.62-.873-.373zM17.792 28.04l.95-.011.01.676-.952.012zM18.933 30.663l-.474-.48.676-.669.475.48z"/><path d="M36.625 31.293l1.079-1.078-2.358-2.357-2.358 2.357 1.079 1.078H20.541l3.657-8.504-4.651-.061-3.072 2.988-.057 4.289 1.253 1.287h-4.082v5.533l3.936 5.92 8.342 4.105h8.264l8.456-4.105 3.823-5.922v-5.531h-9.785zm-2.684-1.078l1.403-1.404 1.404 1.404-1.079 1.078h-.65l-1.078-1.078zm-16.845-.481l.05-3.729 2.671-2.6 3.363.045-3.373 7.842h-1.193l-1.518-1.558zm28.639 2.235v4.549H14.264v-4.549h31.471zm-3.612 10.254l-8.147 3.955h-7.952l-8.038-3.955-3.344-5.03h30.727l-3.246 5.03zM24.17 18.364h-3.334v3.335h3.334v-3.335zm-.675 2.66H21.51v-1.985h1.985v1.985z"/><path d="M23.259 27.57v1.551l1.096 1.097h1.552l1.096-1.097V27.57l-1.096-1.098h-1.552l-1.096 1.098zm2.369-.422l.701.701v.992l-.701.701h-.993l-.701-.701v-.991l.701-.701h.993zM41.51 26.444l-1.097-1.096h-1.551l-1.097 1.096v1.552l1.097 1.097h1.551l1.097-1.097v-1.552zm-.675 1.273l-.701.701h-.992l-.702-.701v-.992l.702-.701h.992l.701.701v.992zM33.603 18.926l1.098-1.096v-1.552l-1.098-1.097h-1.55l-1.097 1.098v1.55l1.097 1.097h1.55zm-1.973-2.367l.702-.701h.992l.702.701v.99l-.702.703h-.992l-.702-.701v-.992z"/></g></symbol><symbol id="&#x161;ampansk&#xE9;" viewBox="0 0 60 60"><path fill="currentColor" d="M23.113 49.848h13.774l-6.46-2.929v-15.16l3.407-1.67 1.268-3.321-2.04-15.414h-6.129l-2.039 15.398.947 3.338 3.877 1.68v15.147l-6.605 2.931zm4.41-37.821h4.947l.79 5.972h-6.528l.791-5.972zm-1.12 17.572l-.822-2.896 1.062-8.028h6.707l1.06 8.013-1.112 2.912-3.233 1.585-3.662-1.586zm3.668 17.899l3.694 1.674h-7.468l3.774-1.674z"/></symbol></svg>