<?xml version="1.0" encoding="utf-8"?>
<!-- Generator: Adobe Illustrator 15.0.0, SVG Export Plug-In . SVG Version: 6.00 Build 0)  -->
<!DOCTYPE svg PUBLIC "-//W3C//DTD SVG 1.1//EN" "http://www.w3.org/Graphics/SVG/1.1/DTD/svg11.dtd">
<svg version="1.1" xmlns="http://www.w3.org/2000/svg" xmlns:xlink="http://www.w3.org/1999/xlink" x="0px" y="0px" width="411.7px"
	 height="236.666px" viewBox="0 292.334 411.7 236.666" enable-background="new 0 292.334 411.7 236.666" xml:space="preserve">
<g id="Layer_1">
</g>
<g id="Layer_2">
	<g>
		<defs>
			<rect id="SVGID_1_" y="292.334" width="411.7" height="236.666"/>
		</defs>
		<clipPath id="SVGID_2_">
			<use xlink:href="#SVGID_1_"  overflow="visible"/>
		</clipPath>
		<polygon clip-path="url(#SVGID_2_)" fill="#C32A53" points="293.9,602.1 301.299,609.4 301.299,594.8 		"/>
		<polygon clip-path="url(#SVGID_2_)" fill="#C32A53" points="308.6,587.4 301.299,594.8 316,594.8 		"/>
		<polygon clip-path="url(#SVGID_2_)" fill="#C32A53" points="176.5,572.7 183.8,580.1 183.8,565.4 		"/>
		<polygon clip-path="url(#SVGID_2_)" fill="#C32A53" points="191.2,558.1 183.9,565.4 198.5,565.4 		"/>
		<polygon clip-path="url(#SVGID_2_)" fill="#C32A53" points="205.9,572.7 198.5,565.4 198.5,580.1 		"/>
		<polygon clip-path="url(#SVGID_2_)" fill="#C32A53" points="404,580.1 411.4,572.7 404,565.4 		"/>
		<polygon clip-path="url(#SVGID_2_)" fill="#C32A53" points="191.2,587.4 198.5,580.1 183.8,580.1 		"/>
		<polygon clip-path="url(#SVGID_2_)" fill="#C32A53" points="352.7,660.8 360,668.2 360,653.5 		"/>
		<polygon clip-path="url(#SVGID_2_)" fill="#C32A53" points="367.299,646.2 360,653.5 374.7,653.5 		"/>
		<polygon clip-path="url(#SVGID_2_)" fill="#C32A53" points="382,660.8 374.7,653.5 374.7,668.2 		"/>
		<polygon clip-path="url(#SVGID_2_)" fill="#C32A53" points="367.299,675.5 374.7,668.2 360,668.2 		"/>
		<polygon clip-path="url(#SVGID_2_)" fill="#C32A53" points="352.7,719.5 360,726.9 360,712.2 		"/>
		<polygon clip-path="url(#SVGID_2_)" fill="#C32A53" points="367.299,704.9 360,712.2 374.7,712.2 		"/>
		<polygon clip-path="url(#SVGID_2_)" fill="#C32A53" points="352.7,748.9 360,756.2 360,741.6 		"/>
		<polygon clip-path="url(#SVGID_2_)" fill="#C32A53" points="382,748.9 389.4,756.2 389.4,741.6 		"/>
		<polygon clip-path="url(#SVGID_2_)" fill="#C32A53" points="396.7,734.2 389.4,741.6 404,741.6 		"/>
		<polygon clip-path="url(#SVGID_2_)" fill="#C32A53" points="382,719.5 374.7,712.2 374.7,726.9 		"/>
		<polygon clip-path="url(#SVGID_2_)" fill="#C32A53" points="367.299,734.2 374.7,726.9 360,726.9 		"/>
		<polygon clip-path="url(#SVGID_2_)" fill="#C32A53" points="308.6,734.2 316,726.9 301.299,726.9 		"/>
		<polygon clip-path="url(#SVGID_2_)" fill="#C32A53" points="323.299,690.2 330.6,697.5 330.6,682.8 		"/>
		<polygon clip-path="url(#SVGID_2_)" fill="#C32A53" points="338,675.5 330.6,682.8 345.299,682.8 		"/>
		<polygon clip-path="url(#SVGID_2_)" fill="#C32A53" points="352.7,690.2 345.299,682.8 345.299,697.5 		"/>
		<polygon clip-path="url(#SVGID_2_)" fill="#C32A53" points="338,704.9 345.299,697.5 330.6,697.5 		"/>
		<polygon clip-path="url(#SVGID_2_)" fill="#C32A53" points="264.6,690.2 271.9,697.5 271.9,682.8 		"/>
		<polygon clip-path="url(#SVGID_2_)" fill="#C32A53" points="279.299,675.5 271.9,682.8 286.6,682.8 		"/>
		<polygon clip-path="url(#SVGID_2_)" fill="#C32A53" points="293.9,690.2 286.6,682.8 286.6,697.5 		"/>
		<polygon clip-path="url(#SVGID_2_)" fill="#C32A53" points="279.299,704.9 286.6,697.5 271.9,697.5 		"/>
		<polygon clip-path="url(#SVGID_2_)" fill="#C32A53" points="235.2,748.9 242.6,756.2 242.6,741.6 		"/>
		<polygon clip-path="url(#SVGID_2_)" fill="#C32A53" points="249.9,734.2 242.6,741.6 257.2,741.6 		"/>
		<polygon clip-path="url(#SVGID_2_)" fill="#C32A53" points="264.6,748.9 257.2,741.6 257.2,756.2 		"/>
		<polygon clip-path="url(#SVGID_2_)" fill="#C32A53" points="249.9,763.6 257.2,756.2 242.6,756.2 		"/>
		<polygon clip-path="url(#SVGID_2_)" fill="#C32A53" points="147.1,748.9 154.5,756.2 154.5,741.6 		"/>
		<polygon clip-path="url(#SVGID_2_)" fill="#C32A53" points="117.8,748.9 125.1,756.2 125.1,741.6 		"/>
		<polygon clip-path="url(#SVGID_2_)" fill="#C32A53" points="161.8,734.2 154.5,741.6 169.2,741.6 		"/>
		<polygon clip-path="url(#SVGID_2_)" fill="#C32A53" points="176.5,748.9 169.2,741.6 169.2,756.2 		"/>
		<polygon clip-path="url(#SVGID_2_)" fill="#C32A53" points="161.8,763.6 169.2,756.2 154.5,756.2 		"/>
		<polygon clip-path="url(#SVGID_2_)" fill="#C32A53" points="147.1,778.3 154.5,785.6 154.5,770.9 		"/>
		<polygon clip-path="url(#SVGID_2_)" fill="#C32A53" points="161.8,763.6 154.5,770.9 169.2,770.9 		"/>
		<polygon clip-path="url(#SVGID_2_)" fill="#C32A53" points="176.5,778.3 169.2,770.9 169.2,785.6 		"/>
		<polygon clip-path="url(#SVGID_2_)" fill="#C32A53" points="154.5,785.6 161.8,792.9 169.2,785.6 		"/>
		<polygon clip-path="url(#SVGID_2_)" fill="#C32A53" points="59.1,778.3 66.4,785.6 66.4,770.9 		"/>
		<polygon clip-path="url(#SVGID_2_)" fill="#C32A53" points="73.8,763.6 66.4,770.9 81.1,770.9 		"/>
		<polygon clip-path="url(#SVGID_2_)" fill="#C32A53" points="88.4,778.3 81.1,770.9 81.1,785.6 		"/>
		<polygon clip-path="url(#SVGID_2_)" fill="#C32A53" points="66.4,785.6 73.7,792.9 81.1,785.6 		"/>
		<polygon clip-path="url(#SVGID_2_)" fill="#C32A53" points="125.1,785.6 132.5,792.9 139.8,785.6 		"/>
		<polygon clip-path="url(#SVGID_2_)" fill="#C32A53" points="29.7,748.9 37,756.2 37,741.6 		"/>
		<polygon clip-path="url(#SVGID_2_)" fill="#C32A53" points="44.4,734.2 37.1,741.6 51.7,741.6 		"/>
		<polygon clip-path="url(#SVGID_2_)" fill="#C32A53" points="59.1,748.9 51.7,741.6 51.7,756.2 		"/>
		<polygon clip-path="url(#SVGID_2_)" fill="#C32A53" points="44.4,763.6 51.7,756.2 37,756.2 		"/>
		<polygon clip-path="url(#SVGID_2_)" fill="#C32A53" points="0.4,778.3 7.7,785.6 7.7,770.9 		"/>
		<polygon clip-path="url(#SVGID_2_)" fill="#C32A53" points="15,763.6 7.7,770.9 22.4,770.9 		"/>
		<polygon clip-path="url(#SVGID_2_)" fill="#C32A53" points="29.7,778.3 22.4,770.9 22.4,785.6 		"/>
		<polygon clip-path="url(#SVGID_2_)" fill="#C32A53" points="7.7,785.6 15,792.9 22.4,785.6 		"/>
		<polygon clip-path="url(#SVGID_2_)" fill="#C32A53" points="382,778.3 389.4,785.6 389.4,770.9 		"/>
		<polygon clip-path="url(#SVGID_2_)" fill="#C32A53" points="396.7,763.6 389.4,770.9 404,770.9 		"/>
		<polygon clip-path="url(#SVGID_2_)" fill="#C32A53" points="404,785.6 411.4,778.3 404,770.9 		"/>
		<polygon clip-path="url(#SVGID_2_)" fill="#C32A53" points="389.4,785.6 396.7,792.9 404,785.6 		"/>
		<polygon clip-path="url(#SVGID_2_)" fill="#C32A53" points="293.9,778.3 301.299,785.6 301.299,770.9 		"/>
		<polygon clip-path="url(#SVGID_2_)" fill="#C32A53" points="308.6,763.6 301.299,770.9 316,770.9 		"/>
		<polygon clip-path="url(#SVGID_2_)" fill="#C32A53" points="205.9,778.3 213.2,785.6 213.2,770.9 		"/>
		<polygon clip-path="url(#SVGID_2_)" fill="#C32A53" points="176.5,778.3 183.8,785.6 183.8,770.9 		"/>
		<polygon clip-path="url(#SVGID_2_)" fill="#C32A53" points="220.5,763.6 213.2,770.9 227.9,770.9 		"/>
		<polygon clip-path="url(#SVGID_2_)" fill="#C32A53" points="249.9,763.6 242.6,770.9 257.2,770.9 		"/>
		<polygon clip-path="url(#SVGID_2_)" fill="#C32A53" points="323.299,778.3 316,770.9 316,785.6 		"/>
		<polygon clip-path="url(#SVGID_2_)" fill="#C32A53" points="301.299,785.6 308.6,792.9 315.9,785.6 		"/>
		<polygon clip-path="url(#SVGID_2_)" fill="#C32A53" points="360,785.6 367.299,792.9 374.7,785.6 		"/>
		<polygon clip-path="url(#SVGID_2_)" fill="#C32A53" points="264.6,690.2 257.2,682.8 257.2,697.5 		"/>
		<polygon clip-path="url(#SVGID_2_)" fill="#C32A53" points="249.9,704.9 257.2,697.5 242.6,697.5 		"/>
		<polygon clip-path="url(#SVGID_2_)" fill="#C32A53" points="161.8,704.9 169.2,697.5 154.5,697.5 		"/>
		<polygon clip-path="url(#SVGID_2_)" fill="#C32A53" points="396.7,704.9 404,697.5 389.4,697.5 		"/>
		<polygon clip-path="url(#SVGID_2_)" fill="#C32A53" points="117.8,660.8 125.1,668.2 125.1,653.5 		"/>
		<polygon clip-path="url(#SVGID_2_)" fill="#C32A53" points="132.5,646.2 125.1,653.5 139.8,653.5 		"/>
		<polygon clip-path="url(#SVGID_2_)" fill="#C32A53" points="147.1,660.8 139.8,653.5 139.8,668.2 		"/>
		<polygon clip-path="url(#SVGID_2_)" fill="#C32A53" points="205.9,660.8 198.5,653.5 198.5,668.2 		"/>
		<polygon clip-path="url(#SVGID_2_)" fill="#C32A53" points="132.5,675.5 139.8,668.2 125.1,668.2 		"/>
		<polygon clip-path="url(#SVGID_2_)" fill="#C32A53" points="117.8,719.5 125.1,726.9 125.1,712.2 		"/>
		<polygon clip-path="url(#SVGID_2_)" fill="#C32A53" points="132.5,704.9 125.1,712.2 139.8,712.2 		"/>
		<polygon clip-path="url(#SVGID_2_)" fill="#C32A53" points="147.1,719.5 139.8,712.2 139.8,726.9 		"/>
		<polygon clip-path="url(#SVGID_2_)" fill="#C32A53" points="132.5,734.2 139.8,726.9 125.1,726.9 		"/>
		<polygon clip-path="url(#SVGID_2_)" fill="#C32A53" points="73.7,734.2 81.1,726.9 66.4,726.9 		"/>
		<polygon clip-path="url(#SVGID_2_)" fill="#C32A53" points="88.4,690.2 95.8,697.5 95.8,682.8 		"/>
		<polygon clip-path="url(#SVGID_2_)" fill="#C32A53" points="103.1,675.5 95.8,682.8 110.4,682.8 		"/>
		<polygon clip-path="url(#SVGID_2_)" fill="#C32A53" points="117.8,690.2 110.5,682.8 110.5,697.5 		"/>
		<polygon clip-path="url(#SVGID_2_)" fill="#C32A53" points="103.1,704.9 110.4,697.5 95.8,697.5 		"/>
		<polygon clip-path="url(#SVGID_2_)" fill="#C32A53" points="29.7,690.2 37,697.5 37,682.8 		"/>
		<polygon clip-path="url(#SVGID_2_)" fill="#C32A53" points="44.4,675.5 37.1,682.8 51.7,682.8 		"/>
		<polygon clip-path="url(#SVGID_2_)" fill="#C32A53" points="59.1,690.2 51.7,682.8 51.7,697.5 		"/>
		<polygon clip-path="url(#SVGID_2_)" fill="#C32A53" points="44.4,704.9 51.7,697.5 37.1,697.5 		"/>
		<polygon clip-path="url(#SVGID_2_)" fill="#C32A53" points="29.7,719.5 22.4,712.2 22.4,726.9 		"/>
		<polygon clip-path="url(#SVGID_2_)" fill="#C32A53" points="15,704.9 22.4,697.5 7.7,697.5 		"/>
		<polygon clip-path="url(#SVGID_2_)" fill="#C32A53" points="279.299,616.8 271.9,624.1 286.6,624.1 		"/>
		<polygon clip-path="url(#SVGID_2_)" fill="#C32A53" points="293.9,631.5 286.6,624.1 286.6,638.8 		"/>
		<polygon clip-path="url(#SVGID_2_)" fill="#C32A53" points="279.299,646.1 286.6,638.8 271.9,638.8 		"/>
		<polygon clip-path="url(#SVGID_2_)" fill="#C32A53" points="44.4,616.8 37.1,624.1 51.7,624.1 		"/>
		<polygon clip-path="url(#SVGID_2_)" fill="#C32A53" points="59.1,631.5 51.7,624.1 51.7,638.8 		"/>
		<polygon clip-path="url(#SVGID_2_)" fill="#C32A53" points="44.4,646.1 51.7,638.8 37.1,638.8 		"/>
		<g clip-path="url(#SVGID_2_)">
			<g>
				<defs>
					<rect id="SVGID_3_" width="411.7" height="793"/>
				</defs>
				<clipPath id="SVGID_4_">
					<use xlink:href="#SVGID_3_"  overflow="visible"/>
				</clipPath>
				<g clip-path="url(#SVGID_4_)">
					<polygon fill="#C32A53" points="176.9,470.1 191.2,455.8 205.5,470.1 206.2,469.4 191.9,455.1 206.2,440.7 205.5,440 
						191.2,454.4 176.9,440 176.2,440.7 190.5,455.1 176.2,469.4 					"/>
					<polygon fill="#C32A53" points="176.9,587.5 191.2,573.2 205.5,587.5 206.2,586.8 191.9,572.5 206.2,558.2 205.5,557.5 
						191.2,571.8 176.9,557.5 176.2,558.2 190.5,572.5 176.2,586.8 					"/>
					<polygon fill="#C32A53" points="352.299,469.4 338,483.7 323.6,469.4 322.9,470.1 337.299,484.4 322.9,498.7 323.6,499.4 
						338,485.1 352.299,499.4 353,498.7 338.7,484.4 353,470.1 					"/>
					<polygon fill="#C32A53" points="323.6,323.3 338,309 352.299,323.3 353,322.6 338.7,308.3 353,293.9 352.299,293.2 338,307.6 
						323.6,293.2 322.9,293.9 337.299,308.3 322.9,322.6 					"/>
					<polygon fill="#C32A53" points="118.1,382 132.5,367.7 146.8,382 147.5,381.3 133.2,367 147.5,352.7 146.8,352 132.5,366.3 
						118.1,352 117.4,352.7 131.8,367 117.4,381.3 					"/>
					<polygon fill="#C32A53" points="294.299,440.7 308.6,426.4 322.9,440.7 323.6,440 309.299,425.7 323.6,411.4 322.9,410.7 
						308.6,425 294.299,410.7 293.6,411.4 307.9,425.7 293.6,440 					"/>
					<polygon fill="#C32A53" points="264.9,558.2 279.299,543.8 293.6,558.2 294.299,557.5 280,543.1 294.299,528.8 293.6,528.1 
						279.299,542.4 264.9,528.1 264.2,528.8 278.6,543.1 264.2,557.5 					"/>
					<polygon fill="#C32A53" points="88.8,528.8 103.1,514.5 117.4,528.8 118.1,528.1 103.8,513.8 118.1,499.4 117.4,498.7 
						103.1,513.1 88.8,498.7 88.1,499.4 102.4,513.8 88.1,528.1 					"/>
					<polygon fill="#C32A53" points="0.7,499.4 15,485.1 29.4,499.4 30.1,498.7 15.7,484.4 30.1,470.1 29.4,469.4 15,483.7 
						0.7,469.4 0,470.1 14.3,484.4 0,498.7 					"/>
					<path fill="#C32A53" d="M411,616.2L396.7,630.5l-14.3-14.3l-0.7,0.7L396,631.2l-28.701,28.7L353,645.5l-0.701,0.7l14.301,14.3
						l-14.301,14.3l0.701,0.7l14.299-14.3l14.301,14.3l14.3,14.3l-14.3,14.3l0,0L367.299,718.4L353,704.3l-0.4,0.4l0,0l0.3-0.3
						L338.6,690.1l14.3-14.3l-0.7-0.7L338,689.2L323.7,674.9l0,0L309.4,660.6l14.3-14.3L323,645.6L308.7,659.9L280,631.2
						l14.299-14.3l0,0L308.6,602.6l14.3,14.301l0.7-0.7l-14.301-14.3L323.6,587.6l-0.7-0.699l-14.3,14.3l-14.301-14.3L293.6,587.6
						l14.3,14.301l-14.3,14.3l0,0l-14.301,14.3L265,616.2l0,0L250.7,601.9L265,587.6l-0.701-0.699L250,601.2L235.7,586.9L235,587.6
						l14.299,14.301L235,616.2l0.699,0.7L250,602.6l14.299,14.301l0,0l14.301,14.3l-28.7,28.7L235.6,645.6l-0.7,0.7l14.3,14.3
						L234.9,674.9l0,0l-14.3,14.3l-28.7-28.7l14.3-14.3l-0.7-0.7l-14.3,14.3l-14.3-14.3l-14.3-14.3l14.3-14.3l-0.7-0.7l-14.3,14.3
						l-14.3-14.3l-0.7,0.7l14.3,14.3l-14.3,14.3l0,0l-14.3,14.3l-14.3-14.3l-0.7,0.7l14.3,14.3l-28.7,28.7l-14.3-14.3L74.6,660.6
						l14.3-14.3l-0.7-0.7L73.9,659.9l-28.7-28.7l14.3-14.3l-0.7-0.7l-14.3,14.3l-14.3-14.3l-0.7,0.7l14.3,14.3l-14.3,14.3l0,0
						L15,659.9L0.7,645.5L0,646.2l14.3,14.3L0,674.9l0.4,0.399L0,675.6L14.3,689.9L0,704.3l0.3,0.3L0,705l14.3,14.3L0,733.6l0.4,0.4
						L0,734.3l14.3,14.3L0,763l0.4,0.4L0,763.7L14.3,778L0,792.3l0.7,0.7L15,778.7L29.4,793l0.4-0.4l0.4,0.4l14.3-14.3L58.7,793
						l0.3-0.3l0.3,0.3l14.3-14.3L88.1,793l0.4-0.4l0.4,0.4l14.3-14.3l14.3,14.3l0.3-0.3l0.3,0.3l14.3-14.3l14.3,14.3l0.4-0.4
						l0.4,0.4l14.3-14.3l14.3,14.3l0.3-0.3l0.3,0.3l14.3-14.3l14.3,14.3l0.4-0.4l0.4,0.4l14.3-14.3l14.3,14.3l0.4-0.4l0.4,0.4
						l14.299-14.3L264.1,793l0.4-0.4l0.399,0.4l14.3-14.3L293.5,793l0.299-0.3l0.301,0.3l14.3-14.3l14.3,14.3l0.4-0.4l0.4,0.4
						l14.299-14.3L352.1,793l0.4-0.4l0.399,0.4l14.3-14.3L381.5,793l0.399-0.4l0.399,0.4l14.301-14.3L411,793l0.699-0.7L397.4,778
						l14.3-14.3l-0.4-0.4l0.4-0.399L397.4,748.6l14.3-14.3L411,733.6L396.7,747.9L382.4,733.6L382,734l0,0l0.399-0.4L368,719.3
						l14.299-14.3l0,0l14.301-14.3L411,705l0.699-0.7L397.4,690l14.3-14.3L411,675L396.7,689.3L382.4,675L368,660.6L396.7,631.9
						L411,646.2l0.699-0.7l-14.3-14.3l14.3-14.3L411,616.2z M352.7,705.3l14,14l-14,14l-14-14L352.7,705.3z M249.2,748.7l-14,14
						l-14-14l14-14L249.2,748.7z M235.9,734l14-14l14,14l-14,14L235.9,734z M279.299,718.6l-14-14l14-14l14,14L279.299,718.6z
						 M293.9,705.3l14,14l-14,14l-14-14L293.9,705.3z M278.6,719.3l-14,14l-14-14l14-14L278.6,719.3z M264.6,703.9l-14-14l14-14
						l14,14L264.6,703.9z M263.9,704.6l-14,14l-14-14l14-14L263.9,704.6z M264.6,734.7l14,14l-14,14l-14-14L264.6,734.7z
						 M265.299,734l14-14l14,14l-14,14L265.299,734z M293.9,734.7l14,14l-14,14l-14-14L293.9,734.7z M294.6,734l14-14l14,14l-14,14
						L294.6,734z M309.299,719.3l14-14l14,14l-14,14L309.299,719.3z M323.299,734.7l14,14l-14,14l-14-14L323.299,734.7z M324,734
						l14-14l14,14l-14,14L324,734z M352.7,734.7l14,14l-14,14l-14-14L352.7,734.7z M351.9,704.6l-14,14l-14-14l14-14L351.9,704.6z
						 M322.9,675.6L322.9,675.6l14.3,14.301l-14.3,14.3l0,0l-14.3,14.3l-14.301-14.3l0,0L280,689.9l14.299-14.301l14.301-14.3
						L322.9,675.6z M279.299,631.9L308,660.6L293.7,674.9l-14.3,14.3l-14.3-14.3L250.799,660.6L279.299,631.9z M249.9,661.3l14,14
						l-14,14l-14-14L249.9,661.3z M235.2,676l14,14l-14,14l-14-14L235.2,676z M249.2,719.3l-14.3,14.3l0,0L220.6,747.9L206.3,733.6
						l-0.4,0.4l0,0l0.4-0.4L192,719.3l14.3-14.3l0,0l14.3-14.3L249.2,719.3z M44.4,718.6l-14-14l14-14l14,14L44.4,718.6z
						 M59.1,705.3l14,14l-14,14l-14-14L59.1,705.3z M29.7,703.9l-14-14l14-14l14,14L29.7,703.9z M43.7,719.3l-14,14l-14-14l14-14
						L43.7,719.3z M29.7,734.7l14,14l-14,14l-14-14L29.7,734.7z M30.4,734l14-14l14,14l-14,14L30.4,734z M59.1,734.7l14,14l-14,14
						l-14-14L59.1,734.7z M59.8,734l14-14l14,14l-14,14L59.8,734z M74.4,719.3l14-14l14,14l-14,14L74.4,719.3z M88.4,734.7l14,14
						l-14,14l-14-14L88.4,734.7z M89.1,734l14-14l14,14l-14,14L89.1,734z M103.8,719.3l14-14l14,14l-14,14L103.8,719.3z
						 M117.8,734.7l14,14l-14,14l-14-14L117.8,734.7z M118.5,734l14-14l14,14l-14,14L118.5,734z M147.1,734.7l14,14l-14,14l-14-14
						L147.1,734.7z M147.5,733.6l-0.4,0.4l0,0L147.5,733.6l-14.3-14.3l28.7-28.7l14.3,14.301l0,0l14.3,14.3l-14.3,14.3l0,0
						l-14.3,14.3L147.5,733.6z M176.5,734.7l14,14l-14,14l-14-14L176.5,734.7z M177.2,734l14-14l14,14l-14,14L177.2,734z
						 M205.9,734.7l14,14l-14,14l-14-14L205.9,734.7z M219.799,689.9L205.5,704.2l0,0l-14.3,14.3l-14.3-14.3l0,0l-14.3-14.3
						l28.7-28.7L219.799,689.9z M147.5,646.2L147.5,646.2l14.3-14.3l14.3,14.3l14.3,14.3l-28.7,28.7l-14.3-14.3l0,0L133.1,660.6
						L147.5,646.2z M132.5,661.3l14.3,14.3l0,0l14.3,14.301L132.4,718.6l-14.3-14.3l0,0L103.8,690L132.5,661.3z M117.1,704.6l-14,14
						l-14-14l14-14L117.1,704.6z M102.4,689.9l-14.3,14.3l0,0l-14.3,14.3l-14.3-14.3l0,0l-14.3-14.3l28.7-28.7L102.4,689.9z
						 M30.1,646.2L30.1,646.2l14.3-14.3L73,660.6L58.7,674.9l-14.3,14.3l-14.3-14.3l0,0L15.8,660.6L30.1,646.2z M1.1,675.3l14-14
						l14,14l-14,14L1.1,675.3z M1.1,704.6l14-14l14,14l-14,14L1.1,704.6z M1.1,734l14-14l14,14l-14,14L1.1,734z M1.1,763.3l14-14
						l14,14l-14,14L1.1,763.3z M29.7,792l-14-14l14-14l14,14L29.7,792z M30.4,763.3l14-14l14,14l-14,14L30.4,763.3z M59.1,792
						l-14-14l14-14l14,14L59.1,792z M59.8,763.3l14-14l14,14l-14,14L59.8,763.3z M88.4,792l-14-14l14-14l14,14L88.4,792z
						 M89.1,763.3l14-14l14,14l-14,14L89.1,763.3z M117.8,792l-14-14l14-14l14,14L117.8,792z M118.5,763.3l14-14l14,14l-14,14
						L118.5,763.3z M147.1,792l-14-14l14-14l14,14L147.1,792z M147.8,763.3l14-14l14,14l-14,14L147.8,763.3z M176.5,792l-14-14
						l14-14l14,14L176.5,792z M177.2,763.3l14-14l14,14l-14,14L177.2,763.3z M205.9,792l-14-14l14-14l14,14L205.9,792z M206.6,763.3
						l14-14l14,14l-14,14L206.6,763.3z M235.2,792l-14-14l14-14l14,14L235.2,792z M235.9,763.3l14-14l14,14l-14,14L235.9,763.3z
						 M264.6,792l-14-14l14-14l14,14L264.6,792z M265.299,763.3l14-14l14,14l-14,14L265.299,763.3z M293.9,792l-14-14l14-14l14,14
						L293.9,792z M294.6,763.3l14-14l14,14l-14,14L294.6,763.3z M323.299,792l-14-14l14-14l14,14L323.299,792z M324,763.3l14-14
						l14,14l-14,14L324,763.3z M352.7,792l-14-14l14-14l14,14L352.7,792z M353.4,763.3l14-14l14,14l-14,14L353.4,763.3z M382,792
						l-14-14l14-14l14,14L382,792z M410.7,763.3l-14,14l-14-14l14-14L410.7,763.3z M382,734.7l14,14l-14,14l-14-14L382,734.7z
						 M381.299,734l-14,14l-14-14l14-14L381.299,734z"/>
					<polygon fill="#C32A53" points="411.7,558.2 411,557.5 396.7,571.8 382.4,557.5 381.7,558.2 396,572.5 381.7,586.8 
						382.4,587.5 396.7,573.2 411,587.5 411.7,586.8 397.4,572.5 					"/>
					<polygon fill="#C32A53" points="59.4,587.5 73.7,573.2 88.1,587.5 88.8,586.8 74.4,572.5 88.8,558.2 88.1,557.5 73.7,571.8 
						59.4,557.5 58.7,558.2 73,572.5 58.7,586.8 					"/>
					<polygon fill="#C32A53" points="0.7,411.4 15,397 29.4,411.4 30.1,410.7 15.7,396.3 30.1,382 29.4,381.3 15,395.6 0.7,381.3 
						0,382 14.3,396.3 0,410.7 					"/>
				</g>
			</g>
		</g>
		<polygon clip-path="url(#SVGID_2_)" fill="#C32A53" points="29.7,396.6 22.4,389.3 22.4,403.9 		"/>
		<polygon clip-path="url(#SVGID_2_)" fill="#C32A53" points="323.299,426 316,418.6 316,433.3 		"/>
		<polygon clip-path="url(#SVGID_2_)" fill="#C32A53" points="308.6,440.6 316,433.3 301.299,433.3 		"/>
		<polygon clip-path="url(#SVGID_2_)" fill="#C32A53" points="176.5,455.3 183.8,462.6 183.8,448 		"/>
		<polygon clip-path="url(#SVGID_2_)" fill="#C32A53" points="191.2,440.6 183.9,448 198.5,448 		"/>
		<polygon clip-path="url(#SVGID_2_)" fill="#C32A53" points="323.299,484.7 330.6,492 330.6,477.3 		"/>
		<polygon clip-path="url(#SVGID_2_)" fill="#C32A53" points="338,470 330.6,477.3 345.299,477.3 		"/>
		<polygon clip-path="url(#SVGID_2_)" fill="#C32A53" points="352.7,484.7 345.299,477.3 345.299,492 		"/>
		<polygon clip-path="url(#SVGID_2_)" fill="#C32A53" points="338,499.3 345.299,492 330.6,492 		"/>
		<polygon clip-path="url(#SVGID_2_)" fill="#C32A53" points="88.4,514 95.8,521.4 95.8,506.7 		"/>
		<polygon clip-path="url(#SVGID_2_)" fill="#C32A53" points="103.1,499.4 95.8,506.7 110.4,506.7 		"/>
		<polygon clip-path="url(#SVGID_2_)" fill="#C32A53" points="117.8,514 110.5,506.7 110.5,521.4 		"/>
		<polygon clip-path="url(#SVGID_2_)" fill="#C32A53" points="103.1,528.7 110.4,521.4 95.8,521.4 		"/>
	</g>
</g>
</svg>
