<?xml version="1.0" encoding="utf-8"?>
<!-- Generator: Adobe Illustrator 19.0.0, SVG Export Plug-In . SVG Version: 6.00 Build 0)  -->
<svg version="1.1" id="Layer_1" xmlns="http://www.w3.org/2000/svg" xmlns:xlink="http://www.w3.org/1999/xlink" x="0px" y="0px"
	 viewBox="-255 347 60 60" style="enable-background:new -255 347 60 60;" xml:space="preserve">
<style type="text/css">
	.st0{fill:#777777;}
	.st1{fill:#FFFFFF;}
</style>
<g>
	<circle class="st0" cx="-225" cy="377" r="28"/>
	<g>
		<path class="st1" d="M-224.9,385.1c-0.1-0.1-0.2-0.2-0.2-0.3c-0.1-0.1-0.1-0.2-0.2-0.3c-0.1-0.1-0.1-0.2-0.2-0.3
			c-0.1-0.1-0.1-0.2-0.2-0.3c-0.1-0.1-0.1-0.2-0.2-0.3c-0.1-0.1-0.1-0.2-0.2-0.3c-0.1-0.1-0.1-0.2-0.2-0.3c-0.1-0.1-0.1-0.2-0.2-0.3
			c-1.5,1.7-3.4,2.6-5.7,2.5c-1.7,0-3.2-0.6-4.5-1.8c-2.7-2.4-3.4-6.6-1-9.8c-0.3-0.9-0.6-1.8-1.3-2.5c0-0.1,0.1,0,0.1,0
			c0.3,0,0.6,0,0.8,0c1.2,0,2.4,0,3.7,0c0.1,0,0.2,0,0.2,0c0,0,0,0,0.1-0.1c0.2-0.3,0.5-0.6,0.9-0.9c0.5-0.4,1.1-0.7,1.7-0.9
			c0.7-0.3,1.4-0.4,2.2-0.6c1.1-0.2,2.2-0.3,3.3-0.3c0.8,0,1.6,0,2.4,0c1.2,0.1,2.4,0.2,3.6,0.5c0.7,0.2,1.4,0.4,2.1,0.7
			c0.4,0.2,0.8,0.4,1.2,0.7c0.2,0.2,0.5,0.4,0.6,0.6c0.1,0.1,0.1,0.1,0.2,0.1c0.1,0,0.2,0,0.3,0c1.4,0,2.8,0,4.2,0
			c0.1,0,0.2,0,0.3,0c0,0.1-0.1,0.2-0.2,0.2c-0.1,0.1-0.1,0.2-0.2,0.2s-0.1,0.2-0.2,0.2c0,0.1-0.1,0.2-0.1,0.3
			c0,0.1-0.1,0.2-0.1,0.3c0,0.1-0.1,0.2-0.1,0.3c0,0.1-0.1,0.2-0.1,0.3c0,0.1-0.1,0.2-0.1,0.3c0,0.1-0.1,0.2-0.1,0.3
			c1.3,1.6,1.8,3.5,1.6,5.5c-0.2,1.8-1.1,3.3-2.5,4.5c-1.5,1.3-3.3,1.9-5.3,1.7c-2-0.2-3.6-1.1-4.9-2.6c-0.1,0.2-0.2,0.4-0.4,0.6
			c-0.1,0.2-0.2,0.4-0.3,0.6c-0.1,0.2-0.2,0.4-0.4,0.6C-224.7,384.7-224.8,384.9-224.9,385.1z M-226.3,378.2c0-3.2-2.6-5.8-5.8-5.8
			c-3.3,0-5.8,2.7-5.8,5.8c0,3.2,2.6,5.8,5.8,5.8C-229,384-226.3,381.5-226.3,378.2z M-212.1,378.2c0-3.1-2.5-5.8-5.8-5.8
			c-3.3,0-5.8,2.7-5.8,5.8c0,3.2,2.6,5.8,5.8,5.8C-214.8,384-212.1,381.4-212.1,378.2z M-231.9,371.4
			C-231.9,371.4-231.9,371.5-231.9,371.4c0.8-0.1,1.6,0,2.3,0.2c1.3,0.4,2.4,1.1,3.2,2.2c0.6,0.8,1,1.6,1.3,2.5
			c0.1,0.2,0.1,0.4,0.2,0.6c0.1,0,0.1-0.1,0.1-0.1c0.1-0.5,0.3-0.9,0.5-1.3c0.4-0.9,0.9-1.7,1.6-2.4c1.3-1.3,2.9-1.8,4.7-1.7
			c0,0,0.1,0,0.1,0c0-0.1-0.1-0.1-0.2-0.2c-0.3-0.2-0.6-0.4-0.9-0.6c-0.6-0.3-1.2-0.6-1.9-0.8c-0.9-0.3-1.8-0.4-2.8-0.5
			c-1.1-0.1-2.1-0.1-3.2,0c-0.7,0.1-1.4,0.2-2,0.4c-0.8,0.2-1.5,0.5-2.2,0.9c-0.3,0.2-0.6,0.3-0.8,0.6
			C-231.8,371.3-231.9,371.4-231.9,371.4z"/>
		<path class="st1" d="M-228.6,378.2c0,1.9-1.5,3.5-3.5,3.5c-1.9,0-3.4-1.6-3.4-3.5c0-2,1.7-3.5,3.5-3.4
			C-230.2,374.8-228.6,376.3-228.6,378.2z M-232.1,380.6c1.2,0,2.4-1,2.4-2.4c0-1.4-1.1-2.4-2.4-2.4c-1.4,0-2.4,1.2-2.4,2.4
			C-234.5,379.5-233.4,380.6-232.1,380.6z"/>
		<path class="st1" d="M-217.9,374.8c1.9,0,3.5,1.6,3.5,3.4c0,1.8-1.5,3.5-3.4,3.5c-2,0-3.5-1.6-3.5-3.5
			C-221.4,376.3-219.8,374.7-217.9,374.8z M-215.5,378.2c0-1.2-1-2.4-2.4-2.4c-1.4,0-2.4,1.2-2.4,2.4c0,1.3,1.1,2.4,2.4,2.4
			C-216.6,380.6-215.5,379.5-215.5,378.2z"/>
		<path class="st1" d="M-232.1,377c0.7,0,1.2,0.5,1.2,1.2c0,0.5-0.4,1.2-1.2,1.2c-0.7,0-1.2-0.5-1.2-1.2
			C-233.2,377.6-232.7,377-232.1,377z"/>
		<path class="st1" d="M-216.8,378.2c0,0.6-0.5,1.2-1.2,1.2c-0.7,0-1.2-0.5-1.2-1.2c0-0.7,0.6-1.2,1.2-1.2
			C-217.3,377-216.8,377.6-216.8,378.2z"/>
	</g>
</g>
</svg>
