<?xml version="1.0" standalone="no"?>
<!DOCTYPE svg PUBLIC "-//W3C//DTD SVG 1.1//EN" "http://www.w3.org/Graphics/SVG/1.1/DTD/svg11.dtd" >
<svg xmlns="http://www.w3.org/2000/svg">
<metadata>
This is a custom SVG webfont generated by Suitcase Type Foundry.
</metadata>
<defs>
<font id="briefcasetype-hAQ2XGEs" horiz-adv-x="657" >
<font-face units-per-em="1000" ascent="740" descent="-260" />
<missing-glyph horiz-adv-x="300" />
<glyph unicode=" "  horiz-adv-x="300" />
<glyph unicode="&#x09;" horiz-adv-x="300" />
<glyph unicode="&#xa0;" horiz-adv-x="300" />
<glyph unicode="A" d="M68 0v469q0 117 69.5 179t191.5 62q121 0 190.5 -62t69.5 -179v-469h-82v217h-357v-217h-82zM150 289h357v180q0 81 -47 125t-131 44q-85 0 -132 -44t-47 -125v-180z" />
<glyph unicode="B" horiz-adv-x="617" d="M70 700h296q93 0 144.5 -46t51.5 -138q0 -60 -23 -99.5t-65 -61.5q50 -19 76.5 -61.5t26.5 -108.5q0 -92 -51 -138.5t-145 -46.5h-311v700zM153 72h214q125 0 125 121q0 60 -30.5 91t-93.5 31h-215v-243zM153 387h199q125 0 125 121q0 59 -31 89.5t-93 30.5h-200v-241z " />
<glyph unicode="C" horiz-adv-x="647" d="M592 225v-3q0 -112 -70.5 -172t-192.5 -60q-62 0 -112 16.5t-85 48.5t-53.5 79t-18.5 107v218q0 122 72 186.5t198 64.5q121 0 191.5 -59.5t70.5 -171.5v-4h-83v4q0 75 -47.5 117t-131.5 42q-88 0 -137.5 -46.5t-49.5 -132.5v-218q0 -86 49 -132.5t137 -46.5 q85 0 132.5 42t47.5 118v3h83z" />
<glyph unicode="D" d="M592 248q0 -120 -72.5 -184t-199.5 -64h-250v700h252q126 0 198 -63.5t72 -183.5v-205zM509 453q0 85 -49.5 130t-137.5 45h-169v-556h167q90 0 139.5 45.5t49.5 130.5v205z" />
<glyph unicode="E" horiz-adv-x="562" d="M329 0q-62 0 -112 16.5t-85 48.5t-53.5 79t-18.5 107v198q0 122 72 186.5t198 64.5h192v-72h-192q-88 0 -137.5 -46.5t-49.5 -132.5v-62h329v-72h-329v-64q0 -86 49 -132.5t137 -46.5h193v-72h-193z" />
<glyph unicode="F" horiz-adv-x="502" d="M60 0v449q0 122 72 186.5t198 64.5h172v-72h-172q-88 0 -137.5 -46.5t-49.5 -132.5v-82h309v-72h-309v-295h-83z" />
<glyph unicode="G" horiz-adv-x="654" d="M289 356h303v-147q0 -55 -18.5 -96t-53 -68.5t-82.5 -41t-108 -13.5q-63 0 -113 16t-85 48t-53.5 79.5t-18.5 110.5v213q0 125 72 189t198 64q60 0 108 -13.5t82.5 -41t53 -68.5t18.5 -95v-7h-83v7q0 70 -47.5 108t-131.5 38q-88 0 -137.5 -45.5t-49.5 -135.5v-213 q0 -90 49.5 -136t137.5 -46q84 0 131.5 38t47.5 109v75h-220v72z" />
<glyph unicode="H" horiz-adv-x="662" d="M509 315h-356v-315h-83v700h83v-313h356v313h83v-700h-83v315z" />
<glyph unicode="I" horiz-adv-x="473" d="M278 72h145v-72h-373v72h145v556h-145v72h373v-72h-145v-556z" />
<glyph unicode="J" horiz-adv-x="582" d="M213 700h299v-482q0 -111 -66 -169.5t-181 -58.5q-114 0 -179.5 58.5t-65.5 169.5v10h83v-10q0 -75 43 -115.5t119 -40.5q78 0 121 40.5t43 115.5v410h-216v72z" />
<glyph unicode="K" horiz-adv-x="627" d="M70 700h83v-326h153l164 326h92l-170 -328q88 -8 139 -60t51 -155v-157h-83v157q0 77 -39.5 111t-103.5 34h-203v-302h-83v700z" />
<glyph unicode="L" horiz-adv-x="542" d="M70 700h83v-628h369v-72h-452v700z" />
<glyph unicode="M" horiz-adv-x="742" d="M590 537l-219 -409l-218 409v-537h-83v700h80l221 -414l221 414h80v-700h-82v537z" />
<glyph unicode="N" horiz-adv-x="662" d="M153 549v-549h-83v700h78l361 -548v548h83v-700h-78z" />
<glyph unicode="O" horiz-adv-x="662" d="M519 459q0 86 -49.5 132.5t-137.5 46.5q-90 0 -139.5 -46.5t-49.5 -132.5v-218q0 -86 49.5 -132.5t137.5 -46.5q90 0 139.5 46.5t49.5 132.5v218zM602 241q0 -121 -72.5 -186t-199.5 -65q-63 0 -113 16.5t-85 48.5t-53.5 79t-18.5 107v218q0 61 18.5 107.5t54 78.5 t86 48.5t113.5 16.5q126 0 198 -64.5t72 -186.5v-218z" />
<glyph unicode="P" horiz-adv-x="587" d="M70 700h263q102 0 163 -52.5t61 -164.5q0 -113 -61 -165.5t-163 -52.5h-180v-265h-83v700zM153 337h178q65 0 103 34t38 112q0 77 -38.5 111t-102.5 34h-178v-291z" />
<glyph unicode="Q" horiz-adv-x="652" d="M519 459q0 86 -49.5 132.5t-137.5 46.5q-90 0 -139.5 -46.5t-49.5 -132.5v-218q0 -86 49.5 -132.5t137.5 -46.5q90 0 139.5 46.5t49.5 132.5v218zM602 241q0 -121 -72.5 -186t-199.5 -65q-63 0 -113 16.5t-85 48.5t-53.5 79t-18.5 107v218q0 61 18.5 107.5t54 78.5 t86 48.5t113.5 16.5q126 0 198 -64.5t72 -186.5v-218zM330 -88h322v-72h-322v72z" />
<glyph unicode="R" horiz-adv-x="612" d="M70 700h268q49 0 90 -13t71 -38.5t46.5 -64t16.5 -90.5q0 -72 -27 -119.5t-76 -71.5q52 -20 80 -66.5t28 -116.5v-120h-85v131q0 67 -35 100.5t-99 33.5h-195v-265h-83v700zM336 337q65 0 103 34t38 112q0 77 -38.5 111t-102.5 34h-183v-291h183z" />
<glyph unicode="S" horiz-adv-x="627" d="M482 188q0 49 -29 76.5t-80 37.5l-133 25q-82 16 -128 61.5t-46 124.5q0 97 64.5 147t183.5 50t183.5 -52.5t64.5 -158.5v-9h-82v9q0 69 -42.5 104t-123.5 35q-163 0 -163 -120q0 -49 29 -77t80 -38l132 -25q85 -16 130 -61t45 -124q0 -102 -67 -152.5t-187 -50.5 q-119 0 -186 52.5t-67 158.5v9h83v-9q0 -69 44.5 -104t125.5 -35q82 0 125.5 31t43.5 95z" />
<glyph unicode="T" horiz-adv-x="605" d="M10 700h545v-72h-246v-377q0 -86 49.5 -132.5t137.5 -46.5h59v-72h-59q-63 0 -113 16.5t-85 48.5t-53.5 79t-18.5 107v377h-216v72z" />
<glyph unicode="U" d="M589 700v-468q0 -118 -69.5 -180t-191.5 -62q-121 0 -190.5 62t-69.5 180v468h82v-468q0 -81 47 -125.5t131 -44.5q85 0 132 44.5t47 125.5v468h82z" />
<glyph unicode="V" horiz-adv-x="613" d="M0 700h90l220 -598l221 598h82l-258 -700h-96z" />
<glyph unicode="W" horiz-adv-x="860" d="M-3 700h85l154 -594l155 594h80l155 -594l154 594h82l-188 -700h-94l-150 550l-150 -550h-94z" />
<glyph unicode="X" horiz-adv-x="602" d="M299 282l-185 -282h-94l233 348l-233 352h99l183 -282l186 282h94l-233 -348l233 -352h-99z" />
<glyph unicode="Y" horiz-adv-x="642" d="M280 267q-103 10 -161.5 71t-58.5 168v194h83v-194q0 -81 47 -125t130 -44q85 0 132 44t47 125v194h83v-194q0 -106 -58.5 -167t-161.5 -72v-267h-82v267z" />
<glyph unicode="Z" horiz-adv-x="577" d="M444 628h-409v72h507v-72l-409 -556h409v-72h-507v72z" />
<glyph unicode="&#xc6;" horiz-adv-x="1008" d="M68 469q0 117 69.5 179t191.5 62q85 0 142 -33t81 -95q28 57 85 87.5t139 30.5h192v-72h-192q-88 0 -137.5 -46.5t-49.5 -132.5v-62h329v-72h-329v-64q0 -86 49 -132.5t137 -46.5h193v-72h-193q-116 0 -186 55.5t-81 161.5h-358v-217h-82v469zM150 289h357v180 q0 81 -47 125t-131 44q-85 0 -132 -44t-47 -125v-180z" />
<glyph unicode="&#x152;" horiz-adv-x="1021" d="M60 459q0 61 18.5 107.5t54 78.5t86 48.5t113.5 16.5q88 0 147 -34t85 -98q27 59 84 90.5t141 31.5h192v-72h-192q-88 0 -137.5 -46.5t-49.5 -132.5v-62h329v-72h-329v-64q0 -86 49 -132.5t137 -46.5h193v-72h-193q-84 0 -141 31.5t-83 90.5q-26 -63 -86 -97.5 t-148 -34.5q-63 0 -113 16.5t-85 48.5t-53.5 79t-18.5 107v218zM143 241q0 -86 49.5 -132.5t137.5 -46.5q90 0 139.5 46.5t49.5 132.5v218q0 86 -49.5 132.5t-137.5 46.5q-90 0 -139.5 -46.5t-49.5 -132.5v-218z" />
<glyph unicode="&#xc1;" d="M68 0v469q0 117 69.5 179t191.5 62q121 0 190.5 -62t69.5 -179v-469h-82v217h-357v-217h-82zM150 289h357v180q0 81 -47 125t-131 44q-85 0 -132 -44t-47 -125v-180zM267 740l92 145h86l-110 -145h-68z" />
<glyph unicode="&#xc4;" d="M68 0v469q0 117 69.5 179t191.5 62q121 0 190.5 -62t69.5 -179v-469h-82v217h-357v-217h-82zM150 289h357v180q0 81 -47 125t-131 44q-85 0 -132 -44t-47 -125v-180zM177 865h68v-107h-68v107zM412 865h68v-107h-68v107z" />
<glyph unicode="&#xc0;" d="M68 0v469q0 117 69.5 179t191.5 62q121 0 190.5 -62t69.5 -179v-469h-82v217h-357v-217h-82zM150 289h357v180q0 81 -47 125t-131 44q-85 0 -132 -44t-47 -125v-180zM317 740l-110 145h86l91 -145h-67z" />
<glyph unicode="&#x10c;" horiz-adv-x="647" d="M592 225v-3q0 -112 -70.5 -172t-192.5 -60q-62 0 -112 16.5t-85 48.5t-53.5 79t-18.5 107v218q0 122 72 186.5t198 64.5q121 0 191.5 -59.5t70.5 -171.5v-4h-83v4q0 75 -47.5 117t-131.5 42q-88 0 -137.5 -46.5t-49.5 -132.5v-218q0 -86 49 -132.5t137 -46.5 q85 0 132.5 42t47.5 118v3h83zM170 885h73l84 -98l84 98h71l-113 -145h-86z" />
<glyph unicode="&#xc7;" horiz-adv-x="647" d="M592 225v-3q0 -112 -70.5 -172t-192.5 -60q-62 0 -112 16.5t-85 48.5t-53.5 79t-18.5 107v218q0 122 72 186.5t198 64.5q121 0 191.5 -59.5t70.5 -171.5v-4h-83v4q0 75 -47.5 117t-131.5 42q-88 0 -137.5 -46.5t-49.5 -132.5v-218q0 -86 49 -132.5t137 -46.5 q85 0 132.5 42t47.5 118v3h83zM246 -153q52 -5 80 0t28 32q0 26 -28 31t-80 0l12 45q73 10 118 -8.5t45 -68.5t-45 -69t-118 -8z" />
<glyph unicode="&#x10e;" d="M140 885h73l84 -98l84 98h71l-113 -145h-86zM592 248q0 -120 -72.5 -184t-199.5 -64h-250v700h252q126 0 198 -63.5t72 -183.5v-205zM509 453q0 85 -49.5 130t-137.5 45h-169v-556h167q90 0 139.5 45.5t49.5 130.5v205z" />
<glyph unicode="&#xc9;" horiz-adv-x="562" d="M242 740l92 145h86l-110 -145h-68zM329 0q-62 0 -112 16.5t-85 48.5t-53.5 79t-18.5 107v198q0 122 72 186.5t198 64.5h192v-72h-192q-88 0 -137.5 -46.5t-49.5 -132.5v-62h329v-72h-329v-64q0 -86 49 -132.5t137 -46.5h193v-72h-193z" />
<glyph unicode="&#xca;" horiz-adv-x="562" d="M329 0q-62 0 -112 16.5t-85 48.5t-53.5 79t-18.5 107v198q0 122 72 186.5t198 64.5h192v-72h-192q-88 0 -137.5 -46.5t-49.5 -132.5v-62h329v-72h-329v-64q0 -86 49 -132.5t137 -46.5h193v-72h-193zM457 740h-73l-84 99l-84 -99h-71l113 145h86z" />
<glyph unicode="&#xcb;" horiz-adv-x="562" d="M149 865h68v-107h-68v107zM384 865h68v-107h-68v107zM329 0q-62 0 -112 16.5t-85 48.5t-53.5 79t-18.5 107v198q0 122 72 186.5t198 64.5h192v-72h-192q-88 0 -137.5 -46.5t-49.5 -132.5v-62h329v-72h-329v-64q0 -86 49 -132.5t137 -46.5h193v-72h-193z" />
<glyph unicode="&#xc8;" horiz-adv-x="562" d="M292 740l-110 145h86l91 -145h-67zM329 0q-62 0 -112 16.5t-85 48.5t-53.5 79t-18.5 107v198q0 122 72 186.5t198 64.5h192v-72h-192q-88 0 -137.5 -46.5t-49.5 -132.5v-62h329v-72h-329v-64q0 -86 49 -132.5t137 -46.5h193v-72h-193z" />
<glyph unicode="&#xcd;" horiz-adv-x="473" d="M278 72h145v-72h-373v72h145v556h-145v72h373v-72h-145v-556zM197 740l92 145h86l-110 -145h-68z" />
<glyph unicode="&#xcf;" horiz-adv-x="473" d="M278 72h145v-72h-373v72h145v556h-145v72h373v-72h-145v-556zM85 865h68v-107h-68v107zM320 865h68v-107h-68v107z" />
<glyph unicode="&#x139;" horiz-adv-x="542" d="M70 740l92 145h86l-110 -145h-68zM70 700h83v-628h369v-72h-452v700z" />
<glyph unicode="&#x13d;" horiz-adv-x="542" d="M239 780h73l-43 -200h-47zM70 700h83v-628h369v-72h-452v700z" />
<glyph unicode="&#x13f;" horiz-adv-x="542" d="M70 700h83v-628h369v-72h-452v700zM340 427h78v-113h-78v113z" />
<glyph unicode="&#x147;" horiz-adv-x="662" d="M175 885h73l84 -98l84 98h71l-113 -145h-86zM153 549v-549h-83v700h78l361 -548v548h83v-700h-78z" />
<glyph unicode="&#xd1;" horiz-adv-x="662" d="M147 783q30 58 57 78.5t53 20.5q22 0 43.5 -11.5t40.5 -26t36 -26t31 -11.5q12 0 27 15t36 52l43 -26q-15 -29 -29 -48.5t-27.5 -30.5t-26.5 -15.5t-25 -4.5q-23 0 -44.5 11.5t-40.5 25.5l-36 25.5t-30 11.5q-14 0 -29 -14.5t-35 -51.5zM153 549v-549h-83v700h78 l361 -548v548h83v-700h-78z" />
<glyph unicode="&#xd3;" horiz-adv-x="662" d="M267 740l92 145h86l-110 -145h-68zM519 459q0 86 -49.5 132.5t-137.5 46.5q-90 0 -139.5 -46.5t-49.5 -132.5v-218q0 -86 49.5 -132.5t137.5 -46.5q90 0 139.5 46.5t49.5 132.5v218zM602 241q0 -121 -72.5 -186t-199.5 -65q-63 0 -113 16.5t-85 48.5t-53.5 79t-18.5 107 v218q0 61 18.5 107.5t54 78.5t86 48.5t113.5 16.5q126 0 198 -64.5t72 -186.5v-218z" />
<glyph unicode="&#xd4;" horiz-adv-x="662" d="M519 459q0 86 -49.5 132.5t-137.5 46.5q-90 0 -139.5 -46.5t-49.5 -132.5v-218q0 -86 49.5 -132.5t137.5 -46.5q90 0 139.5 46.5t49.5 132.5v218zM602 241q0 -121 -72.5 -186t-199.5 -65q-63 0 -113 16.5t-85 48.5t-53.5 79t-18.5 107v218q0 61 18.5 107.5t54 78.5 t86 48.5t113.5 16.5q126 0 198 -64.5t72 -186.5v-218zM482 740h-73l-84 99l-84 -99h-71l113 145h86z" />
<glyph unicode="&#xd6;" horiz-adv-x="662" d="M174 865h68v-107h-68v107zM409 865h68v-107h-68v107zM519 459q0 86 -49.5 132.5t-137.5 46.5q-90 0 -139.5 -46.5t-49.5 -132.5v-218q0 -86 49.5 -132.5t137.5 -46.5q90 0 139.5 46.5t49.5 132.5v218zM602 241q0 -121 -72.5 -186t-199.5 -65q-63 0 -113 16.5t-85 48.5 t-53.5 79t-18.5 107v218q0 61 18.5 107.5t54 78.5t86 48.5t113.5 16.5q126 0 198 -64.5t72 -186.5v-218z" />
<glyph unicode="&#x150;" horiz-adv-x="662" d="M519 459q0 86 -49.5 132.5t-137.5 46.5q-90 0 -139.5 -46.5t-49.5 -132.5v-218q0 -86 49.5 -132.5t137.5 -46.5q90 0 139.5 46.5t49.5 132.5v218zM602 241q0 -121 -72.5 -186t-199.5 -65q-63 0 -113 16.5t-85 48.5t-53.5 79t-18.5 107v218q0 61 18.5 107.5t54 78.5 t86 48.5t113.5 16.5q126 0 198 -64.5t72 -186.5v-218zM164 740l101 145h82l-120 -145h-63zM365 740l101 145h82l-120 -145h-63z" />
<glyph unicode="&#x154;" horiz-adv-x="612" d="M70 700h268q49 0 90 -13t71 -38.5t46.5 -64t16.5 -90.5q0 -72 -27 -119.5t-76 -71.5q52 -20 80 -66.5t28 -116.5v-120h-85v131q0 67 -35 100.5t-99 33.5h-195v-265h-83v700zM336 337q65 0 103 34t38 112q0 77 -38.5 111t-102.5 34h-183v-291h183zM222 740l92 145h86 l-110 -145h-68z" />
<glyph unicode="&#x160;" horiz-adv-x="627" d="M482 188q0 49 -29 76.5t-80 37.5l-133 25q-82 16 -128 61.5t-46 124.5q0 97 64.5 147t183.5 50t183.5 -52.5t64.5 -158.5v-9h-82v9q0 69 -42.5 104t-123.5 35q-163 0 -163 -120q0 -49 29 -77t80 -38l132 -25q85 -16 130 -61t45 -124q0 -102 -67 -152.5t-187 -50.5 q-119 0 -186 52.5t-67 158.5v9h83v-9q0 -69 44.5 -104t125.5 -35q82 0 125.5 31t43.5 95zM157 885h73l84 -98l84 98h71l-113 -145h-86z" />
<glyph unicode="&#x164;" horiz-adv-x="605" d="M111 885h73l84 -98l84 98h71l-113 -145h-86zM10 700h545v-72h-246v-377q0 -86 49.5 -132.5t137.5 -46.5h59v-72h-59q-63 0 -113 16.5t-85 48.5t-53.5 79t-18.5 107v377h-216v72z" />
<glyph unicode="&#xda;" d="M269 740l92 145h86l-110 -145h-68zM589 700v-468q0 -118 -69.5 -180t-191.5 -62q-121 0 -190.5 62t-69.5 180v468h82v-468q0 -81 47 -125.5t131 -44.5q85 0 132 44.5t47 125.5v468h82z" />
<glyph unicode="&#xdc;" d="M177 865h68v-107h-68v107zM412 865h68v-107h-68v107zM589 700v-468q0 -118 -69.5 -180t-191.5 -62q-121 0 -190.5 62t-69.5 180v468h82v-468q0 -81 47 -125.5t131 -44.5q85 0 132 44.5t47 125.5v468h82z" />
<glyph unicode="&#x170;" d="M589 700v-468q0 -118 -69.5 -180t-191.5 -62q-121 0 -190.5 62t-69.5 180v468h82v-468q0 -81 47 -125.5t131 -44.5q85 0 132 44.5t47 125.5v468h82zM166 740l101 145h82l-120 -145h-63zM367 740l101 145h82l-120 -145h-63z" />
<glyph unicode="&#xdd;" horiz-adv-x="642" d="M280 267q-103 10 -161.5 71t-58.5 168v194h83v-194q0 -81 47 -125t130 -44q85 0 132 44t47 125v194h83v-194q0 -106 -58.5 -167t-161.5 -72v-267h-82v267zM272 740l92 145h86l-110 -145h-68z" />
<glyph unicode="&#x17d;" horiz-adv-x="577" d="M132 885h73l84 -98l84 98h71l-113 -145h-86zM444 628h-409v72h507v-72l-409 -556h409v-72h-507v72z" />
<glyph unicode="a" horiz-adv-x="566" d="M40 144q0 79 51 116.5t138 37.5q51 0 90 -12.5t65 -38.5v98q0 56 -32.5 83.5t-89.5 27.5q-60 0 -89.5 -23t-29.5 -76h-78q0 83 51 123t146 40q91 0 145 -44.5t54 -135.5v-180q0 -62 18.5 -85.5t71.5 -10.5v-64q-68 -17 -104 0.5t-50 60.5q-24 -35 -67.5 -53t-101.5 -18 q-86 0 -137 37.5t-51 116.5zM118 147q0 -48 35 -69t95 -21t98 22.5t38 67.5q0 44 -38 66.5t-98 22.5t-95 -20.5t-35 -68.5z" />
<glyph unicode="b" horiz-adv-x="549" d="M148 740v-284q26 31 64.5 47.5t87.5 16.5q88 0 139.5 -48.5t51.5 -142.5v-147q0 -95 -57.5 -143.5t-153.5 -48.5q-47 0 -86 12t-66.5 36t-42.5 60t-15 84v558h78zM284 453q-61 0 -98.5 -32t-37.5 -92v-152q0 -60 36 -90t96 -30q61 0 97.5 30t36.5 90v157q0 58 -35 88.5 t-95 30.5z" />
<glyph unicode="c" horiz-adv-x="526" d="M479 173v-1q0 -87 -56 -134.5t-153 -47.5q-99 0 -155.5 49.5t-56.5 143.5v144q0 94 56.5 143.5t156.5 49.5q97 0 152.5 -47t55.5 -134v-1h-78v6q0 51 -34.5 80t-95.5 29q-64 0 -100 -31t-36 -90v-154q0 -58 36 -89.5t99 -31.5q62 0 96.5 29.5t34.5 80.5v6h78z" />
<glyph unicode="d" horiz-adv-x="549" d="M479 740v-558q0 -48 -15 -84t-42.5 -60t-66.5 -36t-86 -12q-96 0 -153.5 48.5t-57.5 143.5v147q0 94 51.5 142.5t139.5 48.5q100 0 152 -61v281h78zM269 57q60 0 96 30t36 90v152q0 60 -36.5 92t-99.5 32q-60 0 -95 -30.5t-35 -88.5v-157q0 -60 36.5 -90t97.5 -30z" />
<glyph unicode="e" horiz-adv-x="536" d="M478 158q-5 -81 -59.5 -124.5t-148.5 -43.5q-98 0 -155 49.5t-57 143.5v146q0 94 57.5 142.5t153.5 48.5q47 0 86 -12t66.5 -36t42.5 -60t15 -83v-96h-344v-55q0 -57 34.5 -89t100.5 -32q63 0 95.5 28t35.5 73h77zM135 295h266v39q0 60 -36 89.5t-96 29.5 q-61 0 -97.5 -29.5t-36.5 -89.5v-39z" />
<glyph unicode="f" horiz-adv-x="365" d="M208 510h157v-67h-157v-643h-78v643h-110v67h110v45q0 54 8.5 94.5t33.5 65.5t71 32.5t122 -5.5v-64q-50 7 -80.5 4t-47.5 -16.5t-23 -38.5t-6 -64v-53z" />
<glyph unicode="g" horiz-adv-x="552" d="M484 453l-47 -6q15 -22 23.5 -50t8.5 -63v-1q0 -95 -57.5 -141t-153.5 -46q-11 0 -21.5 0.5t-21.5 1.5q-11 -12 -15 -26.5t0 -26.5t15 -20t29 -8h111q67 0 105.5 -34t38.5 -90q0 -35 -16 -63t-46 -48t-73.5 -31t-98.5 -11q-126 0 -177.5 43.5t-34.5 124.5h74 q-10 -55 25 -78t113 -23q74 0 115.5 21t41.5 61q0 32 -23 49t-56 17h-111q-41 0 -65 16.5t-32.5 40.5t-2.5 51.5t26 48.5q-52 19 -81 61t-29 110v1q0 47 15 82t43 58t66.5 34.5t86.5 11.5q46 0 82 -10h143v-57zM258 213q61 0 97.5 30t36.5 90v1q0 60 -36.5 89.5t-96.5 29.5 t-96.5 -29.5t-36.5 -89.5v-1q0 -60 36 -90t96 -30z" />
<glyph unicode="h" horiz-adv-x="559" d="M414 0v339q0 60 -35 87t-95 27t-98 -29.5t-38 -89.5v-334h-78v740h78v-279q26 29 64.5 44t87.5 15q88 0 139.5 -45.5t51.5 -140.5v-334h-77z" />
<glyph unicode="i" horiz-adv-x="383" d="M150 723h78v-113h-78v113zM25 510h203v-350q0 -31 6 -52.5t21.5 -33t43 -14t69.5 3.5v-64q-68 -13 -110.5 -5.5t-66.5 30.5t-32.5 59.5t-8.5 82.5v276h-125v67z" />
<glyph unicode="j" horiz-adv-x="298" d="M25 510h203v-541q0 -46 -7.5 -82.5t-28.5 -59.5t-58 -30.5t-96 5.5v64q66 -14 89 9.5t23 85.5v482h-125v67zM150 723h78v-113h-78v113z" />
<glyph unicode="k" horiz-adv-x="524" d="M70 740h78v-444h108l110 214h85l-119 -222q65 -16 102 -62t37 -121v-105h-77v110q0 60 -36.5 89.5t-96.5 29.5h-113v-229h-78v740z" />
<glyph unicode="l" horiz-adv-x="368" d="M10 740h203v-580q0 -31 6 -52.5t21.5 -33t43 -14t69.5 3.5v-64q-68 -13 -110.5 -5.5t-66.5 30.5t-32.5 59.5t-8.5 82.5v506h-125v67z" />
<glyph unicode="m" horiz-adv-x="808" d="M70 338q0 92 51 137t137 45q48 0 85.5 -15t61.5 -44q25 29 63 44t86 15q85 0 136 -45t51 -137v-338h-78v343q0 57 -29.5 83.5t-79.5 26.5q-49 0 -79 -26t-31 -80v-347h-77v343q0 57 -29.5 83.5t-79.5 26.5q-51 0 -80.5 -26.5t-29.5 -83.5v-343h-78v338z" />
<glyph unicode="n" horiz-adv-x="556" d="M68 329q0 94 57.5 142.5t153.5 48.5q47 0 86 -12t66.5 -36t42.5 -60t15 -83v-329h-78v334q0 60 -36 89.5t-96 29.5q-61 0 -97.5 -29.5t-36.5 -89.5v-334h-77v329z" />
<glyph unicode="o" horiz-adv-x="536" d="M479 182q0 -48 -15 -84t-43 -60t-66.5 -36t-86.5 -12q-95 0 -152.5 48.5t-57.5 143.5v147q0 94 57.5 142.5t153.5 48.5q47 0 86 -12t66.5 -36t42.5 -60t15 -83v-147zM401 334q0 60 -36 89.5t-96 29.5q-61 0 -97.5 -29.5t-36.5 -89.5v-157q0 -60 36.5 -90t96.5 -30 q61 0 97 30t36 90v157z" />
<glyph unicode="p" horiz-adv-x="549" d="M70 329q0 47 15 83t42.5 60t66.5 36t86 12q96 0 153.5 -48.5t57.5 -142.5v-147q0 -94 -51.5 -143t-139.5 -49q-49 0 -87.5 14.5t-64.5 43.5v-248h-78v529zM148 182q0 -60 36.5 -92.5t99.5 -32.5q60 0 95 31t35 89v157q0 60 -36.5 89.5t-97.5 29.5q-60 0 -96 -29.5 t-36 -89.5v-152z" />
<glyph unicode="q" horiz-adv-x="549" d="M401 53q-52 -63 -152 -63q-88 0 -139.5 49t-51.5 143v147q0 94 57.5 142.5t153.5 48.5q47 0 86 -12t66.5 -36t42.5 -60t15 -83v-529h-78v253zM265 57q61 0 97.5 30.5t38.5 88.5v158q0 60 -36 89.5t-96 29.5q-61 0 -97.5 -29.5t-36.5 -89.5v-157q0 -58 35 -89t95 -31z" />
<glyph unicode="r" horiz-adv-x="440" d="M10 67h125v262q0 53 19.5 92.5t55.5 63t87 31t113 -2.5v-70q-44 10 -80 6t-62 -19.5t-40.5 -41.5t-14.5 -59v-262h155v-67h-358v67z" />
<glyph unicode="s" horiz-adv-x="521" d="M391 138q0 61 -82 76l-106 21q-65 13 -102.5 47t-37.5 93q0 145 199 145q97 0 147 -38.5t50 -116.5v-8h-78v5q0 48 -28.5 71t-90.5 23q-122 0 -122 -79q0 -61 81 -77l107 -21q66 -14 103.5 -47.5t37.5 -91.5q0 -75 -55 -112.5t-153 -37.5t-153 39t-55 117v8h77v-6 q0 -48 34 -70.5t97 -22.5q62 0 96 20.5t34 62.5z" />
<glyph unicode="t" horiz-adv-x="430" d="M233 180q0 -39 6 -64t23 -39t47.5 -16.5t80.5 3.5v-64q-76 -13 -122 -5.5t-71 32.5t-33.5 65.5t-8.5 94.5v256h-140v67h375v-67h-157v-263z" />
<glyph unicode="u" horiz-adv-x="556" d="M145 510v-333q0 -60 36.5 -90t96.5 -30t96.5 30t36.5 90v333h78v-328q0 -48 -15 -84t-43 -60t-66.5 -36t-86.5 -12q-95 0 -152.5 48.5t-57.5 143.5v328h77z" />
<glyph unicode="v" horiz-adv-x="531" d="M219 0l-199 510h83l165 -423l165 423h78l-199 -510h-93z" />
<glyph unicode="w" horiz-adv-x="788" d="M182 0l-162 510h80l130 -415l128 415h77l128 -415l130 415h75l-162 -510h-87l-125 393l-125 -393h-87z" />
<glyph unicode="x" horiz-adv-x="502" d="M249 197l-142 -197h-87l186 253l-186 257h92l141 -197l142 197h87l-186 -253l186 -257h-92z" />
<glyph unicode="y" horiz-adv-x="559" d="M489 510v-527q0 -94 -56.5 -143.5t-156.5 -49.5q-97 0 -152.5 47t-55.5 134v1h77v-6q0 -51 34.5 -80t96.5 -29q64 0 99.5 31t35.5 90v91q-25 -28 -62.5 -43.5t-89.5 -15.5q-88 0 -139.5 45.5t-51.5 141.5v313h77v-318q0 -58 35 -86.5t96 -28.5q60 0 98 30t38 90v313h77z " />
<glyph unicode="z" horiz-adv-x="486" d="M350 443h-310v67h406v-67l-310 -376h310v-67h-406v67z" />
<glyph unicode="&#xe6;" horiz-adv-x="862" d="M804 158q-5 -81 -58.5 -124.5t-141.5 -43.5q-63 0 -109 22t-71 64q-24 -43 -73 -64.5t-118 -21.5q-88 0 -140.5 37.5t-52.5 116.5t50.5 116.5t138.5 37.5q49 0 89 -12t66 -37v96q0 56 -32.5 83.5t-89.5 27.5q-60 0 -89.5 -23t-29.5 -76h-78q0 83 51 123t146 40 q60 0 101.5 -20.5t62.5 -62.5q25 42 70 62.5t106 20.5q92 0 147.5 -48t55.5 -143v-96h-344v-55q0 -58 36 -89.5t99 -31.5t95.5 28t35.5 73h77zM118 147q0 -48 35 -69t95 -21t98 22.5t38 67.5q0 44 -38 66.5t-98 22.5t-95 -20.5t-35 -68.5zM461 295h266v39q0 60 -36 89.5 t-96 29.5q-61 0 -97.5 -29.5t-36.5 -89.5v-39z" />
<glyph unicode="&#x153;" horiz-adv-x="880" d="M822 158q-5 -81 -59 -124.5t-145 -43.5q-124 0 -178 78q-26 -39 -71 -58.5t-105 -19.5q-93 0 -149.5 48.5t-56.5 143.5v147q0 95 56.5 143t150.5 48q59 0 104 -19.5t71 -58.5q26 39 71 58.5t105 19.5q93 0 149.5 -48.5t56.5 -142.5v-96h-343v-55q0 -57 35 -89t100 -32 q63 0 95 28t35 73h78zM401 334q0 60 -36 89.5t-96 29.5q-61 0 -97.5 -29.5t-36.5 -89.5v-157q0 -60 36.5 -90t96.5 -30q61 0 97 30t36 90v157zM479 295h266v39q0 60 -36.5 89.5t-96.5 29.5t-96.5 -29.5t-36.5 -89.5v-39z" />
<glyph unicode="&#xe1;" horiz-adv-x="556" d="M40 144q0 79 51 116.5t138 37.5q51 0 90 -12.5t65 -38.5v98q0 56 -32.5 83.5t-89.5 27.5q-60 0 -89.5 -23t-29.5 -76h-78q0 83 51 123t146 40q91 0 145 -44.5t54 -135.5v-180q0 -62 18.5 -85.5t71.5 -10.5v-64q-68 -17 -104 0.5t-50 60.5q-24 -35 -67.5 -53t-101.5 -18 q-86 0 -137 37.5t-51 116.5zM118 147q0 -48 35 -69t95 -21t98 22.5t38 67.5q0 44 -38 66.5t-98 22.5t-95 -20.5t-35 -68.5zM212 580l101 160h82l-120 -160h-63z" />
<glyph unicode="&#xe4;" horiz-adv-x="556" d="M40 144q0 79 51 116.5t138 37.5q51 0 90 -12.5t65 -38.5v98q0 56 -32.5 83.5t-89.5 27.5q-60 0 -89.5 -23t-29.5 -76h-78q0 83 51 123t146 40q91 0 145 -44.5t54 -135.5v-180q0 -62 18.5 -85.5t71.5 -10.5v-64q-68 -17 -104 0.5t-50 60.5q-24 -35 -67.5 -53t-101.5 -18 q-86 0 -137 37.5t-51 116.5zM118 147q0 -48 35 -69t95 -21t98 22.5t38 67.5q0 44 -38 66.5t-98 22.5t-95 -20.5t-35 -68.5zM126 713h68v-108h-68v108zM331 713h68v-108h-68v108z" />
<glyph unicode="&#xe0;" horiz-adv-x="556" d="M40 144q0 79 51 116.5t138 37.5q51 0 90 -12.5t65 -38.5v98q0 56 -32.5 83.5t-89.5 27.5q-60 0 -89.5 -23t-29.5 -76h-78q0 83 51 123t146 40q91 0 145 -44.5t54 -135.5v-180q0 -62 18.5 -85.5t71.5 -10.5v-64q-68 -17 -104 0.5t-50 60.5q-24 -35 -67.5 -53t-101.5 -18 q-86 0 -137 37.5t-51 116.5zM118 147q0 -48 35 -69t95 -21t98 22.5t38 67.5q0 44 -38 66.5t-98 22.5t-95 -20.5t-35 -68.5zM252 580l-120 160h81l101 -160h-62z" />
<glyph unicode="&#x10d;" horiz-adv-x="526" d="M117 740h72l75 -106l75 106h70l-108 -160h-76zM479 173v-1q0 -87 -56 -134.5t-153 -47.5q-99 0 -155.5 49.5t-56.5 143.5v144q0 94 56.5 143.5t156.5 49.5q97 0 152.5 -47t55.5 -134v-1h-78v6q0 51 -34.5 80t-95.5 29q-64 0 -100 -31t-36 -90v-154q0 -58 36 -89.5 t99 -31.5q62 0 96.5 29.5t34.5 80.5v6h78z" />
<glyph unicode="&#xe7;" horiz-adv-x="526" d="M479 173v-1q0 -87 -56 -134.5t-153 -47.5q-99 0 -155.5 49.5t-56.5 143.5v144q0 94 56.5 143.5t156.5 49.5q97 0 152.5 -47t55.5 -134v-1h-78v6q0 51 -34.5 80t-95.5 29q-64 0 -100 -31t-36 -90v-154q0 -58 36 -89.5t99 -31.5q62 0 96.5 29.5t34.5 80.5v6h78zM188 -153 q52 -5 80 0t28 32q0 26 -28 31t-80 0l12 45q73 10 118 -8.5t45 -68.5t-45 -69t-118 -8z" />
<glyph unicode="&#x10f;" horiz-adv-x="569" d="M545 780h73l-43 -200h-47zM479 740v-558q0 -48 -15 -84t-42.5 -60t-66.5 -36t-86 -12q-96 0 -153.5 48.5t-57.5 143.5v147q0 94 51.5 142.5t139.5 48.5q100 0 152 -61v281h78zM269 57q60 0 96 30t36 90v152q0 60 -36.5 92t-99.5 32q-60 0 -95 -30.5t-35 -88.5v-157 q0 -60 36.5 -90t97.5 -30z" />
<glyph unicode="&#xe9;" horiz-adv-x="536" d="M217 580l101 160h82l-120 -160h-63zM478 158q-5 -81 -59.5 -124.5t-148.5 -43.5q-98 0 -155 49.5t-57 143.5v146q0 94 57.5 142.5t153.5 48.5q47 0 86 -12t66.5 -36t42.5 -60t15 -83v-96h-344v-55q0 -57 34.5 -89t100.5 -32q63 0 95.5 28t35.5 73h77zM135 295h266v39 q0 60 -36 89.5t-96 29.5q-61 0 -97.5 -29.5t-36.5 -89.5v-39z" />
<glyph unicode="&#xea;" horiz-adv-x="536" d="M414 580h-72l-75 106l-75 -106h-70l108 160h76zM478 158q-5 -81 -59.5 -124.5t-148.5 -43.5q-98 0 -155 49.5t-57 143.5v146q0 94 57.5 142.5t153.5 48.5q47 0 86 -12t66.5 -36t42.5 -60t15 -83v-96h-344v-55q0 -57 34.5 -89t100.5 -32q63 0 95.5 28t35.5 73h77zM135 295 h266v39q0 60 -36 89.5t-96 29.5q-61 0 -97.5 -29.5t-36.5 -89.5v-39z" />
<glyph unicode="&#xeb;" horiz-adv-x="536" d="M131 713h68v-108h-68v108zM336 713h68v-108h-68v108zM478 158q-5 -81 -59.5 -124.5t-148.5 -43.5q-98 0 -155 49.5t-57 143.5v146q0 94 57.5 142.5t153.5 48.5q47 0 86 -12t66.5 -36t42.5 -60t15 -83v-96h-344v-55q0 -57 34.5 -89t100.5 -32q63 0 95.5 28t35.5 73h77z M135 295h266v39q0 60 -36 89.5t-96 29.5q-61 0 -97.5 -29.5t-36.5 -89.5v-39z" />
<glyph unicode="&#xe8;" horiz-adv-x="536" d="M478 158q-5 -81 -59.5 -124.5t-148.5 -43.5q-98 0 -155 49.5t-57 143.5v146q0 94 57.5 142.5t153.5 48.5q47 0 86 -12t66.5 -36t42.5 -60t15 -83v-96h-344v-55q0 -57 34.5 -89t100.5 -32q63 0 95.5 28t35.5 73h77zM135 295h266v39q0 60 -36 89.5t-96 29.5 q-61 0 -97.5 -29.5t-36.5 -89.5v-39zM257 580l-120 160h81l101 -160h-62z" />
<glyph unicode="&#xed;" horiz-adv-x="383" d="M148 580l101 160h82l-120 -160h-63zM25 510h203v-350q0 -31 6 -52.5t21.5 -33t43 -14t69.5 3.5v-64q-68 -13 -110.5 -5.5t-66.5 30.5t-32.5 59.5t-8.5 82.5v276h-125v67z" />
<glyph unicode="&#xef;" horiz-adv-x="383" d="M53 713h68v-108h-68v108zM258 713h68v-108h-68v108zM25 510h203v-350q0 -31 6 -52.5t21.5 -33t43 -14t69.5 3.5v-64q-68 -13 -110.5 -5.5t-66.5 30.5t-32.5 59.5t-8.5 82.5v276h-125v67z" />
<glyph horiz-adv-x="383" d="M150 723h78v-113h-78v113zM25 510h203v-350q0 -31 6 -52.5t21.5 -33t43 -14t69.5 3.5v-64q-68 -13 -110.5 -5.5t-66.5 30.5t-32.5 59.5t-8.5 82.5v276h-125v67z" />
<glyph unicode="&#x13a;" horiz-adv-x="368" d="M127 780l92 145h86l-110 -145h-68zM10 740h203v-580q0 -31 6 -52.5t21.5 -33t43 -14t69.5 3.5v-64q-68 -13 -110.5 -5.5t-66.5 30.5t-32.5 59.5t-8.5 82.5v506h-125v67z" />
<glyph unicode="&#x13e;" horiz-adv-x="368" d="M279 780h73l-43 -200h-47zM10 740h203v-580q0 -31 6 -52.5t21.5 -33t43 -14t69.5 3.5v-64q-68 -13 -110.5 -5.5t-66.5 30.5t-32.5 59.5t-8.5 82.5v506h-125v67z" />
<glyph unicode="&#x140;" horiz-adv-x="343" d="M10 740h203v-580q0 -31 6 -52.5t21.5 -33t43 -14t69.5 3.5v-64q-68 -13 -110.5 -5.5t-66.5 30.5t-32.5 59.5t-8.5 82.5v506h-125v67zM305 447h78v-113h-78v113z" />
<glyph unicode="&#x148;" horiz-adv-x="556" d="M132 740h72l75 -106l75 106h70l-108 -160h-76zM68 329q0 94 57.5 142.5t153.5 48.5q47 0 86 -12t66.5 -36t42.5 -60t15 -83v-329h-78v334q0 60 -36 89.5t-96 29.5q-61 0 -97.5 -29.5t-36.5 -89.5v-334h-77v329z" />
<glyph unicode="&#xf1;" horiz-adv-x="556" d="M68 329q0 94 57.5 142.5t153.5 48.5q47 0 86 -12t66.5 -36t42.5 -60t15 -83v-329h-78v334q0 60 -36 89.5t-96 29.5q-61 0 -97.5 -29.5t-36.5 -89.5v-334h-77v329zM107 638q30 58 55.5 78.5t51.5 20.5q23 0 41.5 -11.5t34 -26l29 -26t26.5 -11.5t26.5 15t34.5 52l43 -26 q-15 -29 -28.5 -48.5t-26.5 -30.5t-26 -15.5t-26 -4.5q-23 0 -41 11.5t-34 25.5l-29.5 25.5t-26.5 11.5q-12 0 -26 -14.5t-34 -51.5z" />
<glyph unicode="&#xf3;" horiz-adv-x="536" d="M217 580l101 160h82l-120 -160h-63zM479 182q0 -48 -15 -84t-43 -60t-66.5 -36t-86.5 -12q-95 0 -152.5 48.5t-57.5 143.5v147q0 94 57.5 142.5t153.5 48.5q47 0 86 -12t66.5 -36t42.5 -60t15 -83v-147zM401 334q0 60 -36 89.5t-96 29.5q-61 0 -97.5 -29.5t-36.5 -89.5 v-157q0 -60 36.5 -90t96.5 -30q61 0 97 30t36 90v157z" />
<glyph unicode="&#xf4;" horiz-adv-x="536" d="M414 580h-72l-75 106l-75 -106h-70l108 160h76zM479 182q0 -48 -15 -84t-43 -60t-66.5 -36t-86.5 -12q-95 0 -152.5 48.5t-57.5 143.5v147q0 94 57.5 142.5t153.5 48.5q47 0 86 -12t66.5 -36t42.5 -60t15 -83v-147zM401 334q0 60 -36 89.5t-96 29.5q-61 0 -97.5 -29.5 t-36.5 -89.5v-157q0 -60 36.5 -90t96.5 -30q61 0 97 30t36 90v157z" />
<glyph unicode="&#xf6;" horiz-adv-x="536" d="M131 713h68v-108h-68v108zM336 713h68v-108h-68v108zM479 182q0 -48 -15 -84t-43 -60t-66.5 -36t-86.5 -12q-95 0 -152.5 48.5t-57.5 143.5v147q0 94 57.5 142.5t153.5 48.5q47 0 86 -12t66.5 -36t42.5 -60t15 -83v-147zM401 334q0 60 -36 89.5t-96 29.5 q-61 0 -97.5 -29.5t-36.5 -89.5v-157q0 -60 36.5 -90t96.5 -30q61 0 97 30t36 90v157z" />
<glyph unicode="&#x151;" horiz-adv-x="536" d="M141 580l92 160h74l-111 -160h-55zM303 580l92 160h79l-111 -160h-60zM479 182q0 -48 -15 -84t-43 -60t-66.5 -36t-86.5 -12q-95 0 -152.5 48.5t-57.5 143.5v147q0 94 57.5 142.5t153.5 48.5q47 0 86 -12t66.5 -36t42.5 -60t15 -83v-147zM401 334q0 60 -36 89.5t-96 29.5 q-61 0 -97.5 -29.5t-36.5 -89.5v-157q0 -60 36.5 -90t96.5 -30q61 0 97 30t36 90v157z" />
<glyph unicode="&#x155;" horiz-adv-x="440" d="M189 580l101 160h82l-120 -160h-63zM10 67h125v262q0 53 19.5 92.5t55.5 63t87 31t113 -2.5v-70q-44 10 -80 6t-62 -19.5t-40.5 -41.5t-14.5 -59v-262h155v-67h-358v67z" />
<glyph unicode="&#x161;" horiz-adv-x="521" d="M114 740h72l75 -106l75 106h70l-108 -160h-76zM391 138q0 61 -82 76l-106 21q-65 13 -102.5 47t-37.5 93q0 145 199 145q97 0 147 -38.5t50 -116.5v-8h-78v5q0 48 -28.5 71t-90.5 23q-122 0 -122 -79q0 -61 81 -77l107 -21q66 -14 103.5 -47.5t37.5 -91.5 q0 -75 -55 -112.5t-153 -37.5t-153 39t-55 117v8h77v-6q0 -48 34 -70.5t97 -22.5q62 0 96 20.5t34 62.5z" />
<glyph unicode="&#x165;" horiz-adv-x="430" d="M48 740h72l75 -106l75 106h70l-108 -160h-76zM233 180q0 -39 6 -64t23 -39t47.5 -16.5t80.5 3.5v-64q-76 -13 -122 -5.5t-71 32.5t-33.5 65.5t-8.5 94.5v256h-140v67h375v-67h-157v-263z" />
<glyph unicode="&#xfa;" horiz-adv-x="556" d="M232 580l101 160h82l-120 -160h-63zM145 510v-333q0 -60 36.5 -90t96.5 -30t96.5 30t36.5 90v333h78v-328q0 -48 -15 -84t-43 -60t-66.5 -36t-86.5 -12q-95 0 -152.5 48.5t-57.5 143.5v328h77z" />
<glyph unicode="&#xfc;" horiz-adv-x="556" d="M141 713h68v-108h-68v108zM346 713h68v-108h-68v108zM145 510v-333q0 -60 36.5 -90t96.5 -30t96.5 30t36.5 90v333h78v-328q0 -48 -15 -84t-43 -60t-66.5 -36t-86.5 -12q-95 0 -152.5 48.5t-57.5 143.5v328h77z" />
<glyph unicode="&#x171;" horiz-adv-x="556" d="M145 510v-333q0 -60 36.5 -90t96.5 -30t96.5 30t36.5 90v333h78v-328q0 -48 -15 -84t-43 -60t-66.5 -36t-86.5 -12q-95 0 -152.5 48.5t-57.5 143.5v328h77zM156 580l92 160h74l-111 -160h-55zM318 580l92 160h79l-111 -160h-60z" />
<glyph unicode="&#xfd;" horiz-adv-x="559" d="M489 510v-527q0 -94 -56.5 -143.5t-156.5 -49.5q-97 0 -152.5 47t-55.5 134v1h77v-6q0 -51 34.5 -80t96.5 -29q64 0 99.5 31t35.5 90v91q-25 -28 -62.5 -43.5t-89.5 -15.5q-88 0 -139.5 45.5t-51.5 141.5v313h77v-318q0 -58 35 -86.5t96 -28.5q60 0 98 30t38 90v313h77z M233 580l101 160h82l-120 -160h-63z" />
<glyph unicode="&#x17e;" horiz-adv-x="486" d="M97 740h72l75 -106l75 106h70l-108 -160h-76zM350 443h-310v67h406v-67l-310 -376h310v-67h-406v67z" />
<glyph unicode="$" horiz-adv-x="627" d="M484 188q0 49 -29 76.5t-80 37.5l-135 25q-82 16 -128 61.5t-46 124.5q0 88 53.5 137t155.5 57v113h78v-112q101 -8 155 -60t54 -149v-9h-82v9q0 69 -42.5 104t-123.5 35t-123.5 -30t-42.5 -90q0 -49 29 -77t80 -37l135 -26q85 -16 130 -61t45 -124q0 -92 -56.5 -142.5 t-157.5 -58.5v-112h-78v113q-102 8 -158.5 59.5t-56.5 148.5v9h83v-9q0 -69 44.5 -104t125.5 -35q82 0 126.5 31t44.5 95z" />
<glyph unicode="&#xa2;" horiz-adv-x="546" d="M237 174q-88 8 -137.5 56t-49.5 133v154q0 84 49.5 132.5t137.5 57.5v113h77v-113q86 -9 134 -55t48 -123v-1h-77v6q0 51 -38 80t-105 29q-70 0 -109 -31t-39 -90v-164q0 -58 39 -89.5t108 -31.5q68 0 106 29.5t38 80.5v6h77v-1q0 -78 -48 -124t-134 -54v-114h-77v114z " />
<glyph unicode="&#xa3;" horiz-adv-x="628" d="M30 378h108v137q0 95 58.5 145t161.5 50q99 0 156.5 -48t57.5 -136v-36h-83v36q0 52 -34.5 82t-96.5 30q-65 0 -101 -32t-36 -91v-137h210v-62h-210v-244h357v-72h-548v72h108v244h-108v62z" />
<glyph unicode="&#xa5;" horiz-adv-x="612" d="M76 329h152l-223 371h98l204 -349l206 349h94l-224 -371h153v-62h-189v-267h-82v267h-189v62z" />
<glyph unicode="&#x20ac;" horiz-adv-x="686" d="M30 381h70v78q0 121 71.5 186t197.5 65q122 0 192 -60t70 -172v-3h-82v3q0 76 -47.5 118t-132.5 42q-88 0 -137.5 -46.5t-49.5 -132.5v-78h232v-62h-232v-78q0 -86 50.5 -132.5t135.5 -46.5t133 42t48 117v4h82v-4q0 -110 -70 -170.5t-193 -60.5q-125 0 -196.5 64.5 t-71.5 186.5v78h-70v62z" />
<glyph unicode="&#xa4;" horiz-adv-x="637" d="M59 351q0 48 13.5 88.5t37.5 72.5l-96 97l47 47l96 -97q32 25 72.5 38.5t88.5 13.5t88 -13.5t72 -38.5l101 101l48 -47l-101 -101q25 -32 38.5 -72.5t13.5 -88.5t-13.5 -88.5t-38.5 -72.5l97 -96l-47 -47l-97 96q-32 -24 -72.5 -37.5t-88.5 -13.5q-97 0 -161 52l-99 -99 l-48 47l99 99q-24 32 -37 72t-13 88zM136 351q0 -42 13.5 -77.5t37.5 -61t57.5 -39.5t73.5 -14t73.5 14t57.5 39.5t37.5 61t13.5 77.5q0 43 -13.5 78.5t-37.5 61t-57.5 39.5t-73.5 14t-73.5 -14t-57.5 -39.5t-37.5 -61t-13.5 -78.5z" />
<glyph unicode="#" horiz-adv-x="731" d="M405 199h-176l-63 -199h-69l64 199h-137v63h157l56 177h-133v62h153l64 199h69l-64 -199h176l64 199h68l-64 -199h137v-62h-157l-56 -177h133v-63h-153l-64 -199h-68zM249 262h176l57 177h-176z" />
<glyph unicode="0" horiz-adv-x="622" d="M469 487q0 72 -41.5 111.5t-115.5 39.5q-75 0 -117 -39.5t-42 -111.5v-274q0 -72 41.5 -111.5t115.5 -39.5q75 0 117 39.5t42 111.5v274zM552 213q0 -109 -64.5 -166t-177.5 -57q-112 0 -176 57t-64 166v274q0 109 64.5 166t177.5 57q112 0 176 -57t64 -166v-274z" />
<glyph unicode="1" horiz-adv-x="373" d="M303 0h-83v616l-185 -132v84l185 132h83v-700z" />
<glyph unicode="2" horiz-adv-x="602" d="M530 519q0 -55 -26 -102.5t-67 -85.5l-259 -259h364v-72h-472v72l310 307q32 32 49.5 67.5t17.5 70.5q0 59 -39.5 90t-105.5 31q-71 0 -110 -34t-39 -103v-36h-83v36q0 104 61.5 156.5t170.5 52.5q51 0 93 -12.5t72 -37t46.5 -60t16.5 -81.5z" />
<glyph unicode="3" horiz-adv-x="602" d="M250 387h51q69 0 105 34.5t36 88.5q0 60 -36.5 94t-108.5 34t-110.5 -32.5t-38.5 -91.5v-19h-83v27q0 86 60 137t172 51t171 -51.5t59 -140.5q0 -61 -28.5 -102.5t-82.5 -63.5q56 -20 86 -61.5t30 -107.5q0 -89 -60 -141t-173 -52t-173.5 51.5t-60.5 137.5v27h83v-19 q0 -59 39 -92t112 -33t110.5 34.5t37.5 94.5t-39 92t-107 32h-51v72z" />
<glyph unicode="4" horiz-adv-x="562" d="M114 231h220v166h82v-166h116v-72h-116v-159h-82v159h-304v72l234 469h87z" />
<glyph unicode="5" horiz-adv-x="602" d="M70 194h83v-6q0 -60 39.5 -93t108.5 -33q70 0 109.5 39t39.5 122q0 84 -39.5 123t-108.5 39q-58 0 -92.5 -22t-50.5 -58h-80l31 395h387v-72h-322l-21 -236q33 32 73.5 46t86.5 14t86 -13.5t69 -42t46 -72t17 -102.5q0 -115 -61.5 -173.5t-169.5 -58.5t-169.5 52.5 t-61.5 149.5v2z" />
<glyph unicode="6" horiz-adv-x="607" d="M153 354q28 32 70 50t97 18q101 0 159 -57t58 -159q0 -50 -16 -90t-46.5 -68t-73.5 -43t-97 -15q-109 0 -171.5 58t-62.5 158v300q0 94 59.5 149t174.5 55q113 0 173 -51.5t60 -139.5v-16h-82v9q0 60 -39 93t-112 33q-72 0 -111.5 -34.5t-39.5 -97.5v-152zM304 62 q71 0 111 39t40 107q0 70 -39 108.5t-112 38.5q-72 0 -111.5 -39t-39.5 -108q0 -68 39.5 -107t111.5 -39z" />
<glyph unicode="7" horiz-adv-x="542" d="M421 628h-386v72h472v-62l-297 -638h-91z" />
<glyph unicode="8" horiz-adv-x="607" d="M532 521q0 -56 -25.5 -98t-74.5 -65q57 -22 86 -66.5t29 -106.5q0 -89 -62 -142.5t-181 -53.5t-181.5 52.5t-62.5 143.5q0 61 29.5 105.5t85.5 67.5q-48 23 -74 64.5t-26 98.5q0 87 59.5 138t168.5 51q110 0 169.5 -50.5t59.5 -138.5zM465 192q0 61 -42 95.5t-120 34.5 t-119 -35t-41 -95t41.5 -95t119.5 -35t119.5 35t41.5 95zM450 514q0 58 -38 91t-109 33q-69 0 -107 -33.5t-38 -90.5q0 -58 38 -91t108 -33t108 33.5t38 90.5z" />
<glyph unicode="9" horiz-adv-x="607" d="M304 62q71 0 111 34.5t40 97.5v153q-29 -33 -71 -50.5t-96 -17.5q-101 0 -159.5 57t-58.5 159q0 49 16 89t46.5 68t74 43t97.5 15q109 0 171 -57.5t62 -157.5v-301q0 -94 -59.5 -149t-173.5 -55q-113 0 -173.5 52t-60.5 139v16h83v-8q0 -60 39 -93.5t112 -33.5zM304 638 q-72 0 -111.5 -39t-39.5 -107q0 -70 39 -108t112 -38q71 0 111 39t40 107t-40 107t-111 39z" />
<glyph unicode="+" horiz-adv-x="512" d="M220 582h71v-198h191v-67h-191v-196h-71v196h-190v67h190v198z" />
<glyph unicode="&#x3c;" horiz-adv-x="512" d="M30 317v68l452 177v-74l-368 -137l368 -136v-75z" />
<glyph unicode="&#x3e;" horiz-adv-x="512" d="M482 385v-68l-452 -177v75l368 136l-368 137v74z" />
<glyph unicode="=" horiz-adv-x="512" d="M482 509v-67h-452v67h452zM482 259v-67h-452v67h452z" />
<glyph unicode="|" horiz-adv-x="210" d="M70 835h70v-970h-70v970z" />
<glyph unicode="'" horiz-adv-x="228" d="M70 700h88l-10 -277h-68z" />
<glyph unicode="&#x22;" horiz-adv-x="365" d="M70 700h88l-10 -277h-68zM208 700h87l-10 -277h-67z" />
<glyph unicode="_" horiz-adv-x="510" d="M5 -67v57h500v-57h-500z" />
<glyph unicode="&#x2014;" horiz-adv-x="1010" d="M5 289h1000v-67h-1000v67z" />
<glyph unicode="&#x2013;" horiz-adv-x="510" d="M5 289h500v-67h-500v67z" />
<glyph unicode="-" horiz-adv-x="259" d="M30 289h199v-67h-199v67z" />
<glyph unicode="&#x2039;" horiz-adv-x="257" d="M20 226v68l207 160v-79l-140 -115l140 -113v-81z" />
<glyph unicode="&#x203a;" horiz-adv-x="257" d="M232 294v-68l-207 -160v80l141 114l-141 114v80z" />
<glyph unicode="&#x2019;" horiz-adv-x="228" d="M70 798h88l-30 -238h-58v238z" />
<glyph unicode="&#x201d;" horiz-adv-x="365" d="M70 798h88l-30 -238h-58v238zM208 798h87l-30 -238h-57v238z" />
<glyph unicode="&#x2018;" horiz-adv-x="228" d="M158 560h-88l30 238h58v-238z" />
<glyph unicode="&#x201c;" horiz-adv-x="365" d="M295 560h-87l30 238h57v-238zM158 560h-88l30 238h58v-238z" />
<glyph unicode="," horiz-adv-x="228" d="M75 123h88l-40 -238h-58z" />
<glyph unicode="." horiz-adv-x="228" d="M70 123h88v-123h-88v123z" />
<glyph unicode=":" horiz-adv-x="228" d="M70 123h88v-123h-88v123zM70 520h88v-122h-88v122z" />
<glyph unicode=";" horiz-adv-x="228" d="M70 520h88v-122h-88v122zM75 123h88l-40 -238h-58z" />
<glyph unicode="?" horiz-adv-x="627" d="M313 384q78 0 122 35t44 95t-44 94.5t-122 34.5t-121.5 -34.5t-43.5 -94.5v-24h-78v24q0 45 17 81.5t48.5 62t76.5 39t101 13.5q57 0 102 -13.5t76.5 -39t48.5 -62t17 -81.5q0 -85 -54.5 -135.5t-150.5 -58.5v-125h-78v189h39zM352 0h-78v113h78v-113z" />
<glyph unicode="&#xbf;" horiz-adv-x="627" d="M314 136q-78 0 -122 -34.5t-44 -94.5q0 -61 44 -95.5t122 -34.5t121.5 34.5t43.5 95.5v23h78v-23q0 -92 -65 -144.5t-178 -52.5q-114 0 -179 52.5t-65 144.5q0 84 54.5 134.5t150.5 58.5v125h78v-189h-39zM275 520h78v-112h-78v112z" />
<glyph unicode="!" horiz-adv-x="258" d="M168 195h-78v505h78v-505zM168 0h-78v113h78v-113z" />
<glyph unicode="&#xa1;" horiz-adv-x="258" d="M90 315h78v-505h-78v505zM90 510h78v-112h-78v112z" />
<glyph unicode="(" horiz-adv-x="292" d="M213 -112q-72 87 -115 201t-43 260t43 261t115 202h79q-72 -91 -115.5 -207t-43.5 -256q0 -137 43.5 -254t115.5 -207h-79z" />
<glyph unicode=")" horiz-adv-x="292" d="M79 812q71 -86 114.5 -200.5t43.5 -259.5q0 -147 -43 -261.5t-115 -202.5h-79q72 91 115.5 207.5t43.5 256.5q0 137 -43.5 253.5t-115.5 206.5h79z" />
<glyph unicode="[" horiz-adv-x="297" d="M277 740h-124v-780h124v-72h-207v924h207v-72z" />
<glyph unicode="]" horiz-adv-x="297" d="M20 -40h125v780h-125v72h207v-924h-207v72z" />
<glyph unicode="{" horiz-adv-x="337" d="M110 234q0 36 -21 58t-57 22h-32v72h32q36 0 57 22.5t21 58.5v196q0 68 41 108.5t107 40.5h59v-72h-44q-37 0 -59 -21.5t-22 -58.5v-174q0 -50 -23 -85t-62 -51q39 -15 62 -50.5t23 -84.5v-174q0 -38 22 -59.5t59 -21.5h44v-72h-59q-33 0 -60.5 11t-47 30.5t-30 47 t-10.5 60.5v197z" />
<glyph unicode="}" horiz-adv-x="337" d="M227 467q0 -37 21 -59t57 -22h32v-72h-32q-36 0 -57 -22t-21 -58v-197q0 -34 -11 -61.5t-30.5 -47t-46.5 -30t-60 -10.5h-59v72h44q37 0 59 21.5t22 59.5v174q0 49 23 84.5t62 50.5q-39 16 -62 51t-23 85v174q0 37 -22 58.5t-59 21.5h-44v72h59q33 0 60 -11t46.5 -30.5 t30.5 -47t11 -60.5v-196z" />
<glyph unicode="/" horiz-adv-x="311" d="M274 812h69l-306 -924h-69z" />
<glyph unicode="\" horiz-adv-x="311" d="M343 -112h-68l-307 924h69z" />
<glyph unicode="*" horiz-adv-x="460" d="M48 644l160 -60l-7 173h57l-6 -172l160 59l18 -54l-164 -47l106 -134l-46 -33l-96 143l-96 -143l-46 33l105 134l-163 46z" />
<glyph unicode="&#x2022;" horiz-adv-x="304" d="M35 350q0 52 32.5 84.5t84.5 32.5t84.5 -32.5t32.5 -84.5t-32.5 -84.5t-84.5 -32.5t-84.5 32.5t-32.5 84.5z" />
<glyph unicode="&#xa7;" horiz-adv-x="621" d="M561 243q0 -45 -16 -79t-45 -60q29 -20 45 -51t16 -76q0 -90 -64.5 -138.5t-183.5 -48.5t-183.5 52.5t-64.5 158.5v9h82v-9q0 -69 42.5 -104t123.5 -35t122 29t41 81q0 24 -7.5 40.5t-22 28t-34.5 18t-45 11.5l-132 25q-85 16 -130 52.5t-45 109.5q0 86 61 139 q-29 20 -45 50.5t-16 76.5q0 90 64.5 138.5t184.5 48.5q119 0 183.5 -52.5t64.5 -158.5v-9h-83v9q0 69 -42 104t-123 35q-82 0 -123 -29t-41 -81q0 -24 7.5 -40.5t22 -27.5t34.5 -18t45 -11l133 -25q85 -16 129.5 -53t44.5 -110zM234 355q-13 2 -25 4.5t-23 6.5 q-41 -40 -41 -96q0 -47 30 -68.5t80 -31.5l133 -25q12 -2 24 -5l23 -6q41 39 41 96q0 47 -30 68.5t-80 31.5z" />
<glyph unicode="&#x2020;" horiz-adv-x="539" d="M228 -60l10 475l-218 -10v72l218 -10l-10 233h83l-10 -233l218 10v-72l-218 10l10 -475h-83z" />
<glyph unicode="&#xa9;" horiz-adv-x="880" d="M135 350q0 -71 22 -128t61.5 -97.5t96 -62.5t125.5 -22t125.5 22t96.5 62.5t61.5 97.5t21.5 128t-21.5 128.5t-61.5 98t-96.5 62.5t-125.5 22t-125.5 -22t-96 -62.5t-61.5 -98t-22 -128.5zM80 350q0 82 25.5 148.5t72.5 113.5t113.5 72.5t148.5 25.5t148.5 -25.5 t113.5 -72.5t72.5 -113.5t25.5 -148.5t-25.5 -148.5t-72.5 -113.5t-113.5 -72.5t-148.5 -25.5t-148.5 25.5t-113.5 72.5t-72.5 113.5t-25.5 148.5zM608 292v-13q0 -68 -44.5 -105t-122.5 -37q-79 0 -124 39t-45 112v125q0 73 45 111.5t125 38.5q77 0 121.5 -36.5 t44.5 -104.5v-8h-55v8q0 45 -29 69t-82 24q-56 0 -85.5 -25.5t-29.5 -76.5v-125q0 -51 29.5 -76.5t84.5 -25.5q54 0 83 24t29 69v13h55z" />
<glyph unicode="&#xae;" horiz-adv-x="366" d="M30 547q0 70 41.5 111.5t111.5 41.5t111.5 -41.5t41.5 -111.5t-41.5 -111.5t-111.5 -41.5t-111.5 41.5t-41.5 111.5zM56 547q0 -60 34.5 -94.5t92.5 -34.5t92.5 34.5t34.5 94.5t-34.5 95t-92.5 35t-92.5 -35t-34.5 -95zM251 580q0 -44 -35 -54l34 -67h-33l-32 64h-37v-64 h-29v176h75q26 0 41.5 -13t15.5 -42zM222 579q0 16 -8 23t-21 7h-45v-60h45q13 0 21 7t8 23z" />
<glyph unicode="&#x2122;" horiz-adv-x="590" d="M25 700h219v-48h-80v-116q0 -50 52 -50h28v-48h-33q-52 0 -76.5 24.5t-24.5 69.5v120h-85v48zM484 611l-75 -130l-75 130v-173h-52v262h50l77 -132l76 132h50v-262h-51v173z" />
<glyph unicode="@" horiz-adv-x="1039" d="M322 330q17 94 73 142t144 48q54 0 94 -18.5t60 -54.5l22 63h60l-64 -367q-7 -37 8.5 -57t46.5 -20q34 0 62 27t47.5 69t30.5 92.5t11 97.5q0 67 -21.5 121.5t-62.5 92.5t-99.5 58.5t-132.5 20.5q-99 0 -186.5 -35t-152.5 -99t-102.5 -154.5t-37.5 -201.5 q0 -68 21.5 -122.5t62.5 -92.5t99.5 -58.5t133.5 -20.5q60 0 116 13.5t107 39.5l25 -63q-57 -27 -119 -41.5t-129 -14.5q-92 0 -164 25t-122 71.5t-76.5 113t-26.5 149.5q0 125 43.5 227.5t118 175.5t175 113t214.5 40q91 0 163 -25t122 -71.5t76.5 -113t26.5 -148.5 q0 -70 -17 -134t-47.5 -112.5t-72.5 -77t-93 -28.5q-45 0 -76.5 19t-43.5 57q-31 -42 -77.5 -64t-105.5 -22q-89 0 -132 54t-26 148zM374 187q-11 -59 18.5 -94.5t86.5 -35.5q31 0 58 9.5t48.5 26.5t36 42t20.5 57l23 132q5 30 -1.5 53.5t-22.5 40.5t-40.5 26t-55.5 9 q-61 0 -97.5 -30.5t-47.5 -87.5z" />
<glyph unicode="&#x26;" horiz-adv-x="690" d="M650 315h-110v-135q0 -39 4 -64t16 -39t33.5 -16.5t56.5 3.5v-64q-86 -18 -127.5 3t-55.5 74q-28 -40 -77 -63.5t-116 -23.5q-49 0 -87.5 14t-65.5 38.5t-41.5 58.5t-14.5 75q0 63 31.5 107.5t88.5 67.5q-54 22 -82 64.5t-28 104.5q0 89 60.5 139.5t172.5 50.5t172 -51 t60 -137v-22h-83v14q0 59 -38.5 91.5t-110.5 32.5t-110 -32.5t-38 -92.5q0 -55 36 -90.5t105 -35.5h349v-72zM457 315h-158q-68 0 -108.5 -34.5t-40.5 -94.5t36.5 -92t109.5 -32q35 0 64.5 10t51 27.5t33.5 42.5t12 55v118z" />
<glyph unicode="%" horiz-adv-x="824" d="M618 700h70l-482 -700h-70zM332 448q0 -60 -35.5 -90.5t-95.5 -30.5t-95.5 30.5t-35.5 90.5v137q0 59 35.5 89.5t95.5 30.5t95.5 -30.5t35.5 -89.5v-137zM271 585q0 32 -18.5 49.5t-51.5 17.5q-32 0 -50.5 -17.5t-18.5 -49.5v-137q0 -32 18.5 -49.5t50.5 -17.5 q33 0 51.5 17.5t18.5 49.5v137zM754 116q0 -60 -35.5 -90.5t-95.5 -30.5t-95.5 30.5t-35.5 90.5v137q0 59 35.5 89.5t95.5 30.5t95.5 -30.5t35.5 -89.5v-137zM692 253q0 32 -18.5 49.5t-50.5 17.5q-33 0 -51.5 -17.5t-18.5 -49.5v-137q0 -32 18.5 -49.5t51.5 -17.5 q32 0 50.5 17.5t18.5 49.5v137z" />
<glyph unicode="&#x2030;" horiz-adv-x="1156" d="M618 700h70l-482 -700h-70zM332 448q0 -60 -35.5 -90.5t-95.5 -30.5t-95.5 30.5t-35.5 90.5v137q0 59 35.5 89.5t95.5 30.5t95.5 -30.5t35.5 -89.5v-137zM271 585q0 32 -18.5 49.5t-51.5 17.5q-32 0 -50.5 -17.5t-18.5 -49.5v-137q0 -32 18.5 -49.5t50.5 -17.5 q33 0 51.5 17.5t18.5 49.5v137zM754 116q0 -60 -35.5 -90.5t-95.5 -30.5t-95.5 30.5t-35.5 90.5v137q0 59 35.5 89.5t95.5 30.5t95.5 -30.5t35.5 -89.5v-137zM692 253q0 32 -18.5 49.5t-50.5 17.5q-33 0 -51.5 -17.5t-18.5 -49.5v-137q0 -32 18.5 -49.5t51.5 -17.5 q32 0 50.5 17.5t18.5 49.5v137zM1086 116q0 -60 -35.5 -90.5t-95.5 -30.5t-95.5 30.5t-35.5 90.5v137q0 59 35.5 89.5t95.5 30.5t95.5 -30.5t35.5 -89.5v-137zM1024 253q0 32 -18.5 49.5t-50.5 17.5q-33 0 -51.5 -17.5t-18.5 -49.5v-137q0 -32 18.5 -49.5t51.5 -17.5 q32 0 50.5 17.5t18.5 49.5v137z" />
</font>
</defs>
</svg>
